<mxfile host="app.diagrams.net" modified="2023-11-27T07:17:55.637Z" agent="Mozilla/5.0 (Windows NT 10.0; Win64; x64) AppleWebKit/537.36 (KHTML, like Gecko) Chrome/119.0.0.0 Safari/537.36" etag="2cO_VfDUy5RrYqzUGr9O" version="22.1.4" type="device" pages="6">
  <diagram name="Trang-1" id="DKHV0intuanLiW3pcUIb">
    <mxGraphModel dx="807" dy="603" grid="1" gridSize="10" guides="1" tooltips="1" connect="1" arrows="1" fold="1" page="1" pageScale="1" pageWidth="827" pageHeight="1169" math="0" shadow="0">
      <root>
        <mxCell id="0" />
        <mxCell id="1" parent="0" />
        <mxCell id="YmzWJKh0RqTUligRXQG8-3" style="edgeStyle=orthogonalEdgeStyle;rounded=0;orthogonalLoop=1;jettySize=auto;html=1;entryX=0.5;entryY=0;entryDx=0;entryDy=0;" parent="1" source="YmzWJKh0RqTUligRXQG8-1" target="YmzWJKh0RqTUligRXQG8-2" edge="1">
          <mxGeometry relative="1" as="geometry" />
        </mxCell>
        <mxCell id="YmzWJKh0RqTUligRXQG8-1" value="start" style="ellipse;whiteSpace=wrap;html=1;" parent="1" vertex="1">
          <mxGeometry x="210" y="70" width="120" height="80" as="geometry" />
        </mxCell>
        <mxCell id="YmzWJKh0RqTUligRXQG8-5" style="edgeStyle=orthogonalEdgeStyle;rounded=0;orthogonalLoop=1;jettySize=auto;html=1;" parent="1" source="YmzWJKh0RqTUligRXQG8-2" target="YmzWJKh0RqTUligRXQG8-4" edge="1">
          <mxGeometry relative="1" as="geometry" />
        </mxCell>
        <mxCell id="YmzWJKh0RqTUligRXQG8-2" value="a, b, c, theRest, result" style="shape=parallelogram;perimeter=parallelogramPerimeter;whiteSpace=wrap;html=1;fixedSize=1;" parent="1" vertex="1">
          <mxGeometry x="190" y="180" width="160" height="60" as="geometry" />
        </mxCell>
        <mxCell id="YmzWJKh0RqTUligRXQG8-10" style="edgeStyle=orthogonalEdgeStyle;rounded=0;orthogonalLoop=1;jettySize=auto;html=1;entryX=0.5;entryY=0;entryDx=0;entryDy=0;" parent="1" source="YmzWJKh0RqTUligRXQG8-4" target="YmzWJKh0RqTUligRXQG8-8" edge="1">
          <mxGeometry relative="1" as="geometry" />
        </mxCell>
        <mxCell id="YmzWJKh0RqTUligRXQG8-12" value="false" style="edgeLabel;html=1;align=center;verticalAlign=middle;resizable=0;points=[];" parent="YmzWJKh0RqTUligRXQG8-10" vertex="1" connectable="0">
          <mxGeometry x="-0.1037" relative="1" as="geometry">
            <mxPoint as="offset" />
          </mxGeometry>
        </mxCell>
        <mxCell id="YmzWJKh0RqTUligRXQG8-19" style="edgeStyle=orthogonalEdgeStyle;rounded=0;orthogonalLoop=1;jettySize=auto;html=1;entryX=0;entryY=0.5;entryDx=0;entryDy=0;" parent="1" source="YmzWJKh0RqTUligRXQG8-4" edge="1">
          <mxGeometry relative="1" as="geometry">
            <mxPoint x="354" y="310" as="targetPoint" />
          </mxGeometry>
        </mxCell>
        <mxCell id="YmzWJKh0RqTUligRXQG8-4" value="a&amp;gt;b&amp;amp;&amp;amp;b&amp;gt;c" style="rhombus;whiteSpace=wrap;html=1;" parent="1" vertex="1">
          <mxGeometry x="230" y="270" width="80" height="80" as="geometry" />
        </mxCell>
        <mxCell id="YmzWJKh0RqTUligRXQG8-11" style="edgeStyle=orthogonalEdgeStyle;rounded=0;orthogonalLoop=1;jettySize=auto;html=1;entryX=0.5;entryY=0;entryDx=0;entryDy=0;" parent="1" source="YmzWJKh0RqTUligRXQG8-8" target="YmzWJKh0RqTUligRXQG8-9" edge="1">
          <mxGeometry relative="1" as="geometry" />
        </mxCell>
        <mxCell id="YmzWJKh0RqTUligRXQG8-13" value="false" style="edgeLabel;html=1;align=center;verticalAlign=middle;resizable=0;points=[];" parent="YmzWJKh0RqTUligRXQG8-11" vertex="1" connectable="0">
          <mxGeometry x="-0.2044" y="1" relative="1" as="geometry">
            <mxPoint as="offset" />
          </mxGeometry>
        </mxCell>
        <mxCell id="YmzWJKh0RqTUligRXQG8-20" style="edgeStyle=orthogonalEdgeStyle;rounded=0;orthogonalLoop=1;jettySize=auto;html=1;entryX=0;entryY=0.5;entryDx=0;entryDy=0;" parent="1" source="YmzWJKh0RqTUligRXQG8-8" edge="1">
          <mxGeometry relative="1" as="geometry">
            <mxPoint x="354" y="450" as="targetPoint" />
          </mxGeometry>
        </mxCell>
        <mxCell id="YmzWJKh0RqTUligRXQG8-8" value="b&amp;gt;c&amp;amp;&amp;amp;c&amp;gt;a" style="rhombus;whiteSpace=wrap;html=1;" parent="1" vertex="1">
          <mxGeometry x="230" y="410" width="80" height="80" as="geometry" />
        </mxCell>
        <mxCell id="YmzWJKh0RqTUligRXQG8-21" style="edgeStyle=orthogonalEdgeStyle;rounded=0;orthogonalLoop=1;jettySize=auto;html=1;entryX=0;entryY=0.5;entryDx=0;entryDy=0;" parent="1" source="YmzWJKh0RqTUligRXQG8-9" edge="1">
          <mxGeometry relative="1" as="geometry">
            <mxPoint x="354" y="580" as="targetPoint" />
          </mxGeometry>
        </mxCell>
        <mxCell id="YmzWJKh0RqTUligRXQG8-9" value="c&amp;gt;a&amp;amp;&amp;amp;a&amp;gt;b" style="rhombus;whiteSpace=wrap;html=1;" parent="1" vertex="1">
          <mxGeometry x="230" y="540" width="80" height="80" as="geometry" />
        </mxCell>
        <mxCell id="YmzWJKh0RqTUligRXQG8-37" style="edgeStyle=orthogonalEdgeStyle;rounded=0;orthogonalLoop=1;jettySize=auto;html=1;" parent="1" source="YmzWJKh0RqTUligRXQG8-31" target="YmzWJKh0RqTUligRXQG8-35" edge="1">
          <mxGeometry relative="1" as="geometry" />
        </mxCell>
        <mxCell id="YmzWJKh0RqTUligRXQG8-31" value="max =a, min=c, theRest=b" style="rounded=0;whiteSpace=wrap;html=1;" parent="1" vertex="1">
          <mxGeometry x="354" y="280" width="120" height="60" as="geometry" />
        </mxCell>
        <mxCell id="YmzWJKh0RqTUligRXQG8-39" style="edgeStyle=orthogonalEdgeStyle;rounded=0;orthogonalLoop=1;jettySize=auto;html=1;" parent="1" source="YmzWJKh0RqTUligRXQG8-32" target="YmzWJKh0RqTUligRXQG8-35" edge="1">
          <mxGeometry relative="1" as="geometry" />
        </mxCell>
        <mxCell id="YmzWJKh0RqTUligRXQG8-32" value="max =b, min=a, theRest=c" style="rounded=0;whiteSpace=wrap;html=1;" parent="1" vertex="1">
          <mxGeometry x="354" y="420" width="120" height="60" as="geometry" />
        </mxCell>
        <mxCell id="YmzWJKh0RqTUligRXQG8-38" style="edgeStyle=orthogonalEdgeStyle;rounded=0;orthogonalLoop=1;jettySize=auto;html=1;" parent="1" source="YmzWJKh0RqTUligRXQG8-34" target="YmzWJKh0RqTUligRXQG8-35" edge="1">
          <mxGeometry relative="1" as="geometry" />
        </mxCell>
        <mxCell id="YmzWJKh0RqTUligRXQG8-34" value="max =c, min=b, theRest=a" style="rounded=0;whiteSpace=wrap;html=1;" parent="1" vertex="1">
          <mxGeometry x="354" y="550" width="120" height="60" as="geometry" />
        </mxCell>
        <mxCell id="YmzWJKh0RqTUligRXQG8-40" style="edgeStyle=orthogonalEdgeStyle;rounded=0;orthogonalLoop=1;jettySize=auto;html=1;entryX=0;entryY=0.5;entryDx=0;entryDy=0;" parent="1" source="YmzWJKh0RqTUligRXQG8-35" target="YmzWJKh0RqTUligRXQG8-36" edge="1">
          <mxGeometry relative="1" as="geometry" />
        </mxCell>
        <mxCell id="YmzWJKh0RqTUligRXQG8-35" value="min+max=result || min+theRest=result &amp;amp;&amp;amp; max-min=result || theRest-min=result" style="rounded=0;whiteSpace=wrap;html=1;" parent="1" vertex="1">
          <mxGeometry x="540" y="420" width="120" height="60" as="geometry" />
        </mxCell>
        <mxCell id="YmzWJKh0RqTUligRXQG8-42" style="edgeStyle=orthogonalEdgeStyle;rounded=0;orthogonalLoop=1;jettySize=auto;html=1;entryX=0;entryY=0.5;entryDx=0;entryDy=0;" parent="1" source="YmzWJKh0RqTUligRXQG8-36" target="YmzWJKh0RqTUligRXQG8-41" edge="1">
          <mxGeometry relative="1" as="geometry" />
        </mxCell>
        <mxCell id="YmzWJKh0RqTUligRXQG8-36" value="result" style="shape=parallelogram;perimeter=parallelogramPerimeter;whiteSpace=wrap;html=1;fixedSize=1;" parent="1" vertex="1">
          <mxGeometry x="690" y="420" width="200" height="60" as="geometry" />
        </mxCell>
        <mxCell id="YmzWJKh0RqTUligRXQG8-41" value="end" style="ellipse;whiteSpace=wrap;html=1;" parent="1" vertex="1">
          <mxGeometry x="930" y="410" width="120" height="80" as="geometry" />
        </mxCell>
      </root>
    </mxGraphModel>
  </diagram>
  <diagram id="pqkOZH3a60a2pTphxthz" name="Trang-2">
    <mxGraphModel dx="807" dy="1772" grid="1" gridSize="10" guides="1" tooltips="1" connect="1" arrows="1" fold="1" page="1" pageScale="1" pageWidth="827" pageHeight="1169" math="0" shadow="0">
      <root>
        <mxCell id="0" />
        <mxCell id="1" parent="0" />
        <mxCell id="DIwuzvVsBrzfk0uitmzC-1" value="" style="edgeStyle=orthogonalEdgeStyle;rounded=0;orthogonalLoop=1;jettySize=auto;html=1;" edge="1" parent="1" source="DIwuzvVsBrzfk0uitmzC-2">
          <mxGeometry relative="1" as="geometry">
            <mxPoint x="190" y="220" as="targetPoint" />
          </mxGeometry>
        </mxCell>
        <mxCell id="DIwuzvVsBrzfk0uitmzC-2" value="start" style="ellipse;whiteSpace=wrap;html=1;" vertex="1" parent="1">
          <mxGeometry y="180" width="120" height="80" as="geometry" />
        </mxCell>
        <mxCell id="DIwuzvVsBrzfk0uitmzC-3" style="edgeStyle=orthogonalEdgeStyle;rounded=0;orthogonalLoop=1;jettySize=auto;html=1;" edge="1" parent="1" source="DIwuzvVsBrzfk0uitmzC-4" target="DIwuzvVsBrzfk0uitmzC-7">
          <mxGeometry relative="1" as="geometry" />
        </mxCell>
        <mxCell id="DIwuzvVsBrzfk0uitmzC-4" value="devide(a,b)" style="shape=parallelogram;perimeter=parallelogramPerimeter;whiteSpace=wrap;html=1;fixedSize=1;" vertex="1" parent="1">
          <mxGeometry width="120" height="60" as="geometry" />
        </mxCell>
        <mxCell id="DIwuzvVsBrzfk0uitmzC-5" value="" style="edgeStyle=orthogonalEdgeStyle;rounded=0;orthogonalLoop=1;jettySize=auto;html=1;" edge="1" parent="1" source="DIwuzvVsBrzfk0uitmzC-7" target="DIwuzvVsBrzfk0uitmzC-8">
          <mxGeometry relative="1" as="geometry" />
        </mxCell>
        <mxCell id="DIwuzvVsBrzfk0uitmzC-6" value="" style="edgeStyle=orthogonalEdgeStyle;rounded=0;orthogonalLoop=1;jettySize=auto;html=1;" edge="1" parent="1" source="DIwuzvVsBrzfk0uitmzC-7" target="DIwuzvVsBrzfk0uitmzC-9">
          <mxGeometry relative="1" as="geometry">
            <Array as="points">
              <mxPoint x="240" y="140" />
            </Array>
          </mxGeometry>
        </mxCell>
        <mxCell id="DIwuzvVsBrzfk0uitmzC-7" value="a%b == 0" style="rhombus;whiteSpace=wrap;html=1;" vertex="1" parent="1">
          <mxGeometry x="200" y="-10" width="80" height="80" as="geometry" />
        </mxCell>
        <mxCell id="DIwuzvVsBrzfk0uitmzC-8" value="output true" style="shape=parallelogram;perimeter=parallelogramPerimeter;whiteSpace=wrap;html=1;fixedSize=1;" vertex="1" parent="1">
          <mxGeometry x="340" width="120" height="60" as="geometry" />
        </mxCell>
        <mxCell id="DIwuzvVsBrzfk0uitmzC-9" value="output false" style="shape=parallelogram;perimeter=parallelogramPerimeter;whiteSpace=wrap;html=1;fixedSize=1;" vertex="1" parent="1">
          <mxGeometry x="340" y="110" width="120" height="60" as="geometry" />
        </mxCell>
        <mxCell id="DIwuzvVsBrzfk0uitmzC-10" value="true" style="text;html=1;strokeColor=none;fillColor=none;align=center;verticalAlign=middle;whiteSpace=wrap;rounded=0;" vertex="1" parent="1">
          <mxGeometry x="280" width="60" height="30" as="geometry" />
        </mxCell>
        <mxCell id="DIwuzvVsBrzfk0uitmzC-11" value="false" style="text;html=1;strokeColor=none;fillColor=none;align=center;verticalAlign=middle;whiteSpace=wrap;rounded=0;" vertex="1" parent="1">
          <mxGeometry x="260" y="110" width="60" height="30" as="geometry" />
        </mxCell>
        <mxCell id="DIwuzvVsBrzfk0uitmzC-12" value="" style="edgeStyle=orthogonalEdgeStyle;rounded=0;orthogonalLoop=1;jettySize=auto;html=1;" edge="1" parent="1" source="DIwuzvVsBrzfk0uitmzC-13" target="DIwuzvVsBrzfk0uitmzC-18">
          <mxGeometry relative="1" as="geometry" />
        </mxCell>
        <mxCell id="DIwuzvVsBrzfk0uitmzC-13" value="input a,b,c" style="shape=parallelogram;perimeter=parallelogramPerimeter;whiteSpace=wrap;html=1;fixedSize=1;" vertex="1" parent="1">
          <mxGeometry x="180" y="190" width="120" height="60" as="geometry" />
        </mxCell>
        <mxCell id="DIwuzvVsBrzfk0uitmzC-14" value="" style="edgeStyle=orthogonalEdgeStyle;rounded=0;orthogonalLoop=1;jettySize=auto;html=1;" edge="1" parent="1" source="DIwuzvVsBrzfk0uitmzC-16" target="DIwuzvVsBrzfk0uitmzC-20">
          <mxGeometry relative="1" as="geometry" />
        </mxCell>
        <mxCell id="DIwuzvVsBrzfk0uitmzC-15" value="" style="edgeStyle=orthogonalEdgeStyle;rounded=0;orthogonalLoop=1;jettySize=auto;html=1;" edge="1" parent="1" source="DIwuzvVsBrzfk0uitmzC-16" target="DIwuzvVsBrzfk0uitmzC-21">
          <mxGeometry relative="1" as="geometry">
            <Array as="points">
              <mxPoint x="560" y="340" />
            </Array>
          </mxGeometry>
        </mxCell>
        <mxCell id="DIwuzvVsBrzfk0uitmzC-16" value="devide(a,b)" style="rhombus;whiteSpace=wrap;html=1;" vertex="1" parent="1">
          <mxGeometry x="520" y="180" width="80" height="80" as="geometry" />
        </mxCell>
        <mxCell id="DIwuzvVsBrzfk0uitmzC-17" value="" style="edgeStyle=orthogonalEdgeStyle;rounded=0;orthogonalLoop=1;jettySize=auto;html=1;" edge="1" parent="1" source="DIwuzvVsBrzfk0uitmzC-18" target="DIwuzvVsBrzfk0uitmzC-16">
          <mxGeometry relative="1" as="geometry" />
        </mxCell>
        <mxCell id="DIwuzvVsBrzfk0uitmzC-18" value="output a*b" style="shape=parallelogram;perimeter=parallelogramPerimeter;whiteSpace=wrap;html=1;fixedSize=1;" vertex="1" parent="1">
          <mxGeometry x="360" y="190" width="120" height="60" as="geometry" />
        </mxCell>
        <mxCell id="DIwuzvVsBrzfk0uitmzC-19" value="" style="edgeStyle=orthogonalEdgeStyle;rounded=0;orthogonalLoop=1;jettySize=auto;html=1;" edge="1" parent="1" source="DIwuzvVsBrzfk0uitmzC-20" target="DIwuzvVsBrzfk0uitmzC-28">
          <mxGeometry relative="1" as="geometry" />
        </mxCell>
        <mxCell id="DIwuzvVsBrzfk0uitmzC-20" value="output a / b" style="shape=parallelogram;perimeter=parallelogramPerimeter;whiteSpace=wrap;html=1;fixedSize=1;" vertex="1" parent="1">
          <mxGeometry x="660" y="190" width="120" height="60" as="geometry" />
        </mxCell>
        <mxCell id="DIwuzvVsBrzfk0uitmzC-21" value="output a khong chia het cho b" style="shape=parallelogram;perimeter=parallelogramPerimeter;whiteSpace=wrap;html=1;fixedSize=1;" vertex="1" parent="1">
          <mxGeometry x="660" y="310" width="120" height="60" as="geometry" />
        </mxCell>
        <mxCell id="DIwuzvVsBrzfk0uitmzC-22" value="true" style="text;html=1;strokeColor=none;fillColor=none;align=center;verticalAlign=middle;whiteSpace=wrap;rounded=0;" vertex="1" parent="1">
          <mxGeometry x="600" y="190" width="60" height="30" as="geometry" />
        </mxCell>
        <mxCell id="DIwuzvVsBrzfk0uitmzC-23" value="fasle" style="text;html=1;strokeColor=none;fillColor=none;align=center;verticalAlign=middle;whiteSpace=wrap;rounded=0;" vertex="1" parent="1">
          <mxGeometry x="590" y="310" width="60" height="30" as="geometry" />
        </mxCell>
        <mxCell id="DIwuzvVsBrzfk0uitmzC-24" value="" style="edgeStyle=orthogonalEdgeStyle;rounded=0;orthogonalLoop=1;jettySize=auto;html=1;" edge="1" parent="1" source="DIwuzvVsBrzfk0uitmzC-26" target="DIwuzvVsBrzfk0uitmzC-30">
          <mxGeometry relative="1" as="geometry" />
        </mxCell>
        <mxCell id="DIwuzvVsBrzfk0uitmzC-25" value="" style="edgeStyle=orthogonalEdgeStyle;rounded=0;orthogonalLoop=1;jettySize=auto;html=1;" edge="1" parent="1" source="DIwuzvVsBrzfk0uitmzC-26" target="DIwuzvVsBrzfk0uitmzC-31">
          <mxGeometry relative="1" as="geometry">
            <Array as="points">
              <mxPoint x="1020" y="340" />
            </Array>
          </mxGeometry>
        </mxCell>
        <mxCell id="DIwuzvVsBrzfk0uitmzC-26" value="devide(a,c)" style="rhombus;whiteSpace=wrap;html=1;" vertex="1" parent="1">
          <mxGeometry x="980" y="180" width="80" height="80" as="geometry" />
        </mxCell>
        <mxCell id="DIwuzvVsBrzfk0uitmzC-27" value="" style="edgeStyle=orthogonalEdgeStyle;rounded=0;orthogonalLoop=1;jettySize=auto;html=1;" edge="1" parent="1" source="DIwuzvVsBrzfk0uitmzC-28" target="DIwuzvVsBrzfk0uitmzC-26">
          <mxGeometry relative="1" as="geometry" />
        </mxCell>
        <mxCell id="DIwuzvVsBrzfk0uitmzC-28" value="output a*c" style="shape=parallelogram;perimeter=parallelogramPerimeter;whiteSpace=wrap;html=1;fixedSize=1;" vertex="1" parent="1">
          <mxGeometry x="820" y="190" width="120" height="60" as="geometry" />
        </mxCell>
        <mxCell id="DIwuzvVsBrzfk0uitmzC-29" value="" style="edgeStyle=orthogonalEdgeStyle;rounded=0;orthogonalLoop=1;jettySize=auto;html=1;" edge="1" parent="1" source="DIwuzvVsBrzfk0uitmzC-30" target="DIwuzvVsBrzfk0uitmzC-38">
          <mxGeometry relative="1" as="geometry" />
        </mxCell>
        <mxCell id="DIwuzvVsBrzfk0uitmzC-30" value="output a /c" style="shape=parallelogram;perimeter=parallelogramPerimeter;whiteSpace=wrap;html=1;fixedSize=1;" vertex="1" parent="1">
          <mxGeometry x="1120" y="190" width="120" height="60" as="geometry" />
        </mxCell>
        <mxCell id="DIwuzvVsBrzfk0uitmzC-31" value="c khong chia het cho a" style="shape=parallelogram;perimeter=parallelogramPerimeter;whiteSpace=wrap;html=1;fixedSize=1;" vertex="1" parent="1">
          <mxGeometry x="1120" y="310" width="120" height="60" as="geometry" />
        </mxCell>
        <mxCell id="DIwuzvVsBrzfk0uitmzC-32" value="true" style="text;html=1;strokeColor=none;fillColor=none;align=center;verticalAlign=middle;whiteSpace=wrap;rounded=0;" vertex="1" parent="1">
          <mxGeometry x="1060" y="190" width="60" height="30" as="geometry" />
        </mxCell>
        <mxCell id="DIwuzvVsBrzfk0uitmzC-33" value="fasle" style="text;html=1;strokeColor=none;fillColor=none;align=center;verticalAlign=middle;whiteSpace=wrap;rounded=0;" vertex="1" parent="1">
          <mxGeometry x="1050" y="310" width="60" height="30" as="geometry" />
        </mxCell>
        <mxCell id="DIwuzvVsBrzfk0uitmzC-34" value="" style="edgeStyle=orthogonalEdgeStyle;rounded=0;orthogonalLoop=1;jettySize=auto;html=1;" edge="1" parent="1" source="DIwuzvVsBrzfk0uitmzC-36" target="DIwuzvVsBrzfk0uitmzC-39">
          <mxGeometry relative="1" as="geometry" />
        </mxCell>
        <mxCell id="DIwuzvVsBrzfk0uitmzC-35" value="" style="edgeStyle=orthogonalEdgeStyle;rounded=0;orthogonalLoop=1;jettySize=auto;html=1;" edge="1" parent="1" source="DIwuzvVsBrzfk0uitmzC-36" target="DIwuzvVsBrzfk0uitmzC-40">
          <mxGeometry relative="1" as="geometry">
            <Array as="points">
              <mxPoint x="1510" y="340" />
            </Array>
          </mxGeometry>
        </mxCell>
        <mxCell id="DIwuzvVsBrzfk0uitmzC-36" value="devide(b,c)" style="rhombus;whiteSpace=wrap;html=1;" vertex="1" parent="1">
          <mxGeometry x="1470" y="180" width="80" height="80" as="geometry" />
        </mxCell>
        <mxCell id="DIwuzvVsBrzfk0uitmzC-37" value="" style="edgeStyle=orthogonalEdgeStyle;rounded=0;orthogonalLoop=1;jettySize=auto;html=1;" edge="1" parent="1" source="DIwuzvVsBrzfk0uitmzC-38" target="DIwuzvVsBrzfk0uitmzC-36">
          <mxGeometry relative="1" as="geometry" />
        </mxCell>
        <mxCell id="DIwuzvVsBrzfk0uitmzC-38" value="output c*b" style="shape=parallelogram;perimeter=parallelogramPerimeter;whiteSpace=wrap;html=1;fixedSize=1;" vertex="1" parent="1">
          <mxGeometry x="1310" y="190" width="120" height="60" as="geometry" />
        </mxCell>
        <mxCell id="DIwuzvVsBrzfk0uitmzC-39" value="output b/c" style="shape=parallelogram;perimeter=parallelogramPerimeter;whiteSpace=wrap;html=1;fixedSize=1;" vertex="1" parent="1">
          <mxGeometry x="1610" y="190" width="120" height="60" as="geometry" />
        </mxCell>
        <mxCell id="DIwuzvVsBrzfk0uitmzC-40" value="b khong chia het cho c" style="shape=parallelogram;perimeter=parallelogramPerimeter;whiteSpace=wrap;html=1;fixedSize=1;" vertex="1" parent="1">
          <mxGeometry x="1610" y="310" width="120" height="60" as="geometry" />
        </mxCell>
        <mxCell id="DIwuzvVsBrzfk0uitmzC-41" value="true" style="text;html=1;strokeColor=none;fillColor=none;align=center;verticalAlign=middle;whiteSpace=wrap;rounded=0;" vertex="1" parent="1">
          <mxGeometry x="1550" y="190" width="60" height="30" as="geometry" />
        </mxCell>
        <mxCell id="DIwuzvVsBrzfk0uitmzC-42" value="fasle" style="text;html=1;strokeColor=none;fillColor=none;align=center;verticalAlign=middle;whiteSpace=wrap;rounded=0;" vertex="1" parent="1">
          <mxGeometry x="1540" y="310" width="60" height="30" as="geometry" />
        </mxCell>
      </root>
    </mxGraphModel>
  </diagram>
  <diagram id="Yra5d58ePKEE8_fBxzcV" name="Trang-3">
    <mxGraphModel dx="807" dy="1772" grid="1" gridSize="10" guides="1" tooltips="1" connect="1" arrows="1" fold="1" page="1" pageScale="1" pageWidth="827" pageHeight="1169" math="0" shadow="0">
      <root>
        <mxCell id="0" />
        <mxCell id="1" parent="0" />
        <mxCell id="onsA2clJ2b90-Ck_CqrX-1" value="" style="edgeStyle=orthogonalEdgeStyle;rounded=0;orthogonalLoop=1;jettySize=auto;html=1;" edge="1" parent="1" source="onsA2clJ2b90-Ck_CqrX-4" target="onsA2clJ2b90-Ck_CqrX-26">
          <mxGeometry relative="1" as="geometry" />
        </mxCell>
        <mxCell id="onsA2clJ2b90-Ck_CqrX-2" style="edgeStyle=orthogonalEdgeStyle;rounded=0;orthogonalLoop=1;jettySize=auto;html=1;entryX=0;entryY=0.5;entryDx=0;entryDy=0;" edge="1" parent="1" source="onsA2clJ2b90-Ck_CqrX-4" target="onsA2clJ2b90-Ck_CqrX-36">
          <mxGeometry relative="1" as="geometry">
            <Array as="points">
              <mxPoint x="90" y="440" />
            </Array>
          </mxGeometry>
        </mxCell>
        <mxCell id="onsA2clJ2b90-Ck_CqrX-3" style="edgeStyle=orthogonalEdgeStyle;rounded=0;orthogonalLoop=1;jettySize=auto;html=1;" edge="1" parent="1" source="onsA2clJ2b90-Ck_CqrX-4">
          <mxGeometry relative="1" as="geometry">
            <mxPoint x="90" y="630" as="targetPoint" />
          </mxGeometry>
        </mxCell>
        <mxCell id="onsA2clJ2b90-Ck_CqrX-4" value="start" style="ellipse;whiteSpace=wrap;html=1;" vertex="1" parent="1">
          <mxGeometry x="30" y="240" width="120" height="80" as="geometry" />
        </mxCell>
        <mxCell id="onsA2clJ2b90-Ck_CqrX-5" value="" style="edgeStyle=orthogonalEdgeStyle;rounded=0;orthogonalLoop=1;jettySize=auto;html=1;" edge="1" parent="1" source="onsA2clJ2b90-Ck_CqrX-14" target="onsA2clJ2b90-Ck_CqrX-9">
          <mxGeometry relative="1" as="geometry" />
        </mxCell>
        <mxCell id="onsA2clJ2b90-Ck_CqrX-6" value="snt(a)" style="shape=parallelogram;perimeter=parallelogramPerimeter;whiteSpace=wrap;html=1;fixedSize=1;" vertex="1" parent="1">
          <mxGeometry x="30" y="40" width="120" height="60" as="geometry" />
        </mxCell>
        <mxCell id="onsA2clJ2b90-Ck_CqrX-7" value="" style="edgeStyle=orthogonalEdgeStyle;rounded=0;orthogonalLoop=1;jettySize=auto;html=1;" edge="1" parent="1" source="onsA2clJ2b90-Ck_CqrX-9">
          <mxGeometry relative="1" as="geometry">
            <mxPoint x="390" y="70" as="targetPoint" />
          </mxGeometry>
        </mxCell>
        <mxCell id="onsA2clJ2b90-Ck_CqrX-8" style="edgeStyle=orthogonalEdgeStyle;rounded=0;orthogonalLoop=1;jettySize=auto;html=1;entryX=0.5;entryY=0;entryDx=0;entryDy=0;" edge="1" parent="1" source="onsA2clJ2b90-Ck_CqrX-9" target="onsA2clJ2b90-Ck_CqrX-19">
          <mxGeometry relative="1" as="geometry">
            <Array as="points">
              <mxPoint x="310" y="-30" />
              <mxPoint x="770" y="-30" />
            </Array>
          </mxGeometry>
        </mxCell>
        <mxCell id="onsA2clJ2b90-Ck_CqrX-9" value="i&amp;lt;sqrt(n)" style="rhombus;whiteSpace=wrap;html=1;" vertex="1" parent="1">
          <mxGeometry x="270" y="30" width="80" height="80" as="geometry" />
        </mxCell>
        <mxCell id="onsA2clJ2b90-Ck_CqrX-10" value="" style="edgeStyle=orthogonalEdgeStyle;rounded=0;orthogonalLoop=1;jettySize=auto;html=1;" edge="1" parent="1" source="onsA2clJ2b90-Ck_CqrX-12" target="onsA2clJ2b90-Ck_CqrX-15">
          <mxGeometry relative="1" as="geometry" />
        </mxCell>
        <mxCell id="onsA2clJ2b90-Ck_CqrX-11" style="edgeStyle=orthogonalEdgeStyle;rounded=0;orthogonalLoop=1;jettySize=auto;html=1;entryX=0.5;entryY=1;entryDx=0;entryDy=0;" edge="1" parent="1" source="onsA2clJ2b90-Ck_CqrX-12" target="onsA2clJ2b90-Ck_CqrX-9">
          <mxGeometry relative="1" as="geometry">
            <Array as="points">
              <mxPoint x="430" y="170" />
              <mxPoint x="310" y="170" />
            </Array>
          </mxGeometry>
        </mxCell>
        <mxCell id="onsA2clJ2b90-Ck_CqrX-12" value="n%i == 0" style="rhombus;whiteSpace=wrap;html=1;" vertex="1" parent="1">
          <mxGeometry x="390" y="30" width="80" height="80" as="geometry" />
        </mxCell>
        <mxCell id="onsA2clJ2b90-Ck_CqrX-13" value="" style="edgeStyle=orthogonalEdgeStyle;rounded=0;orthogonalLoop=1;jettySize=auto;html=1;" edge="1" parent="1" source="onsA2clJ2b90-Ck_CqrX-6" target="onsA2clJ2b90-Ck_CqrX-14">
          <mxGeometry relative="1" as="geometry">
            <mxPoint x="140" y="70" as="sourcePoint" />
            <mxPoint x="250" y="70" as="targetPoint" />
          </mxGeometry>
        </mxCell>
        <mxCell id="onsA2clJ2b90-Ck_CqrX-14" value="i = 2;" style="rounded=1;whiteSpace=wrap;html=1;" vertex="1" parent="1">
          <mxGeometry x="170" y="40" width="60" height="60" as="geometry" />
        </mxCell>
        <mxCell id="onsA2clJ2b90-Ck_CqrX-15" value="return false;&lt;br&gt;" style="whiteSpace=wrap;html=1;" vertex="1" parent="1">
          <mxGeometry x="530" y="40" width="120" height="60" as="geometry" />
        </mxCell>
        <mxCell id="onsA2clJ2b90-Ck_CqrX-16" value="true" style="text;html=1;strokeColor=none;fillColor=none;align=center;verticalAlign=middle;whiteSpace=wrap;rounded=0;" vertex="1" parent="1">
          <mxGeometry x="460" y="40" width="60" height="30" as="geometry" />
        </mxCell>
        <mxCell id="onsA2clJ2b90-Ck_CqrX-17" value="false" style="text;html=1;strokeColor=none;fillColor=none;align=center;verticalAlign=middle;whiteSpace=wrap;rounded=0;" vertex="1" parent="1">
          <mxGeometry x="340" y="140" width="60" height="30" as="geometry" />
        </mxCell>
        <mxCell id="onsA2clJ2b90-Ck_CqrX-18" value="true" style="text;html=1;strokeColor=none;fillColor=none;align=center;verticalAlign=middle;whiteSpace=wrap;rounded=0;" vertex="1" parent="1">
          <mxGeometry x="340" y="40" width="60" height="30" as="geometry" />
        </mxCell>
        <mxCell id="onsA2clJ2b90-Ck_CqrX-19" value="return true" style="rounded=0;whiteSpace=wrap;html=1;" vertex="1" parent="1">
          <mxGeometry x="710" y="40" width="120" height="60" as="geometry" />
        </mxCell>
        <mxCell id="onsA2clJ2b90-Ck_CqrX-20" value="false" style="text;html=1;strokeColor=none;fillColor=none;align=center;verticalAlign=middle;whiteSpace=wrap;rounded=0;" vertex="1" parent="1">
          <mxGeometry x="510" y="-70" width="60" height="30" as="geometry" />
        </mxCell>
        <mxCell id="onsA2clJ2b90-Ck_CqrX-21" value="" style="edgeStyle=orthogonalEdgeStyle;rounded=0;orthogonalLoop=1;jettySize=auto;html=1;" edge="1" parent="1" source="onsA2clJ2b90-Ck_CqrX-24" target="onsA2clJ2b90-Ck_CqrX-23">
          <mxGeometry relative="1" as="geometry" />
        </mxCell>
        <mxCell id="onsA2clJ2b90-Ck_CqrX-22" value="" style="edgeStyle=orthogonalEdgeStyle;rounded=0;orthogonalLoop=1;jettySize=auto;html=1;" edge="1" parent="1" source="onsA2clJ2b90-Ck_CqrX-23" target="onsA2clJ2b90-Ck_CqrX-28">
          <mxGeometry relative="1" as="geometry" />
        </mxCell>
        <mxCell id="onsA2clJ2b90-Ck_CqrX-23" value="i&amp;lt;n" style="rhombus;whiteSpace=wrap;html=1;" vertex="1" parent="1">
          <mxGeometry x="510" y="240" width="80" height="80" as="geometry" />
        </mxCell>
        <mxCell id="onsA2clJ2b90-Ck_CqrX-24" value="i = 0" style="rounded=1;whiteSpace=wrap;html=1;" vertex="1" parent="1">
          <mxGeometry x="410" y="250" width="60" height="60" as="geometry" />
        </mxCell>
        <mxCell id="onsA2clJ2b90-Ck_CqrX-25" value="" style="edgeStyle=orthogonalEdgeStyle;rounded=0;orthogonalLoop=1;jettySize=auto;html=1;" edge="1" parent="1" source="onsA2clJ2b90-Ck_CqrX-26" target="onsA2clJ2b90-Ck_CqrX-24">
          <mxGeometry relative="1" as="geometry" />
        </mxCell>
        <mxCell id="onsA2clJ2b90-Ck_CqrX-26" value="input n" style="shape=parallelogram;perimeter=parallelogramPerimeter;whiteSpace=wrap;html=1;fixedSize=1;" vertex="1" parent="1">
          <mxGeometry x="230" y="250" width="120" height="60" as="geometry" />
        </mxCell>
        <mxCell id="onsA2clJ2b90-Ck_CqrX-27" value="" style="edgeStyle=orthogonalEdgeStyle;rounded=0;orthogonalLoop=1;jettySize=auto;html=1;" edge="1" parent="1" source="onsA2clJ2b90-Ck_CqrX-28" target="onsA2clJ2b90-Ck_CqrX-30">
          <mxGeometry relative="1" as="geometry" />
        </mxCell>
        <mxCell id="onsA2clJ2b90-Ck_CqrX-28" value="input a[i]" style="shape=parallelogram;perimeter=parallelogramPerimeter;whiteSpace=wrap;html=1;fixedSize=1;" vertex="1" parent="1">
          <mxGeometry x="650" y="250" width="120" height="60" as="geometry" />
        </mxCell>
        <mxCell id="onsA2clJ2b90-Ck_CqrX-29" style="edgeStyle=orthogonalEdgeStyle;rounded=0;orthogonalLoop=1;jettySize=auto;html=1;entryX=0.5;entryY=0;entryDx=0;entryDy=0;" edge="1" parent="1" source="onsA2clJ2b90-Ck_CqrX-30" target="onsA2clJ2b90-Ck_CqrX-23">
          <mxGeometry relative="1" as="geometry">
            <Array as="points">
              <mxPoint x="910" y="170" />
              <mxPoint x="550" y="170" />
            </Array>
          </mxGeometry>
        </mxCell>
        <mxCell id="onsA2clJ2b90-Ck_CqrX-30" value="i++" style="whiteSpace=wrap;html=1;" vertex="1" parent="1">
          <mxGeometry x="850" y="250" width="120" height="60" as="geometry" />
        </mxCell>
        <mxCell id="onsA2clJ2b90-Ck_CqrX-31" value="" style="edgeStyle=orthogonalEdgeStyle;rounded=0;orthogonalLoop=1;jettySize=auto;html=1;" edge="1" parent="1" source="onsA2clJ2b90-Ck_CqrX-34" target="onsA2clJ2b90-Ck_CqrX-33">
          <mxGeometry relative="1" as="geometry" />
        </mxCell>
        <mxCell id="onsA2clJ2b90-Ck_CqrX-32" value="" style="edgeStyle=orthogonalEdgeStyle;rounded=0;orthogonalLoop=1;jettySize=auto;html=1;" edge="1" parent="1" source="onsA2clJ2b90-Ck_CqrX-33" target="onsA2clJ2b90-Ck_CqrX-38">
          <mxGeometry relative="1" as="geometry" />
        </mxCell>
        <mxCell id="onsA2clJ2b90-Ck_CqrX-33" value="i&amp;lt;m" style="rhombus;whiteSpace=wrap;html=1;" vertex="1" parent="1">
          <mxGeometry x="510" y="400" width="80" height="80" as="geometry" />
        </mxCell>
        <mxCell id="onsA2clJ2b90-Ck_CqrX-34" value="i = 0" style="rounded=1;whiteSpace=wrap;html=1;" vertex="1" parent="1">
          <mxGeometry x="410" y="410" width="60" height="60" as="geometry" />
        </mxCell>
        <mxCell id="onsA2clJ2b90-Ck_CqrX-35" value="" style="edgeStyle=orthogonalEdgeStyle;rounded=0;orthogonalLoop=1;jettySize=auto;html=1;" edge="1" parent="1" source="onsA2clJ2b90-Ck_CqrX-36" target="onsA2clJ2b90-Ck_CqrX-34">
          <mxGeometry relative="1" as="geometry" />
        </mxCell>
        <mxCell id="onsA2clJ2b90-Ck_CqrX-36" value="input m" style="shape=parallelogram;perimeter=parallelogramPerimeter;whiteSpace=wrap;html=1;fixedSize=1;" vertex="1" parent="1">
          <mxGeometry x="230" y="410" width="120" height="60" as="geometry" />
        </mxCell>
        <mxCell id="onsA2clJ2b90-Ck_CqrX-37" value="" style="edgeStyle=orthogonalEdgeStyle;rounded=0;orthogonalLoop=1;jettySize=auto;html=1;" edge="1" parent="1" source="onsA2clJ2b90-Ck_CqrX-38" target="onsA2clJ2b90-Ck_CqrX-41">
          <mxGeometry relative="1" as="geometry" />
        </mxCell>
        <mxCell id="onsA2clJ2b90-Ck_CqrX-38" value="input b[i]" style="shape=parallelogram;perimeter=parallelogramPerimeter;whiteSpace=wrap;html=1;fixedSize=1;" vertex="1" parent="1">
          <mxGeometry x="650" y="410" width="120" height="60" as="geometry" />
        </mxCell>
        <mxCell id="onsA2clJ2b90-Ck_CqrX-39" style="edgeStyle=orthogonalEdgeStyle;rounded=0;orthogonalLoop=1;jettySize=auto;html=1;entryX=0.5;entryY=0;entryDx=0;entryDy=0;" edge="1" parent="1" source="onsA2clJ2b90-Ck_CqrX-41" target="onsA2clJ2b90-Ck_CqrX-33">
          <mxGeometry relative="1" as="geometry">
            <Array as="points">
              <mxPoint x="910" y="330" />
              <mxPoint x="550" y="330" />
            </Array>
          </mxGeometry>
        </mxCell>
        <mxCell id="onsA2clJ2b90-Ck_CqrX-40" value="" style="edgeStyle=orthogonalEdgeStyle;rounded=0;orthogonalLoop=1;jettySize=auto;html=1;" edge="1" parent="1" source="onsA2clJ2b90-Ck_CqrX-41" target="onsA2clJ2b90-Ck_CqrX-56">
          <mxGeometry relative="1" as="geometry" />
        </mxCell>
        <mxCell id="onsA2clJ2b90-Ck_CqrX-41" value="i++" style="whiteSpace=wrap;html=1;" vertex="1" parent="1">
          <mxGeometry x="850" y="410" width="120" height="60" as="geometry" />
        </mxCell>
        <mxCell id="onsA2clJ2b90-Ck_CqrX-42" value="" style="edgeStyle=orthogonalEdgeStyle;rounded=0;orthogonalLoop=1;jettySize=auto;html=1;" edge="1" parent="1" source="onsA2clJ2b90-Ck_CqrX-45" target="onsA2clJ2b90-Ck_CqrX-44">
          <mxGeometry relative="1" as="geometry" />
        </mxCell>
        <mxCell id="onsA2clJ2b90-Ck_CqrX-43" value="" style="edgeStyle=orthogonalEdgeStyle;rounded=0;orthogonalLoop=1;jettySize=auto;html=1;" edge="1" parent="1" source="onsA2clJ2b90-Ck_CqrX-44">
          <mxGeometry relative="1" as="geometry">
            <mxPoint x="1290" y="280" as="targetPoint" />
          </mxGeometry>
        </mxCell>
        <mxCell id="onsA2clJ2b90-Ck_CqrX-44" value="i&amp;lt;n" style="rhombus;whiteSpace=wrap;html=1;" vertex="1" parent="1">
          <mxGeometry x="1140" y="240" width="80" height="80" as="geometry" />
        </mxCell>
        <mxCell id="onsA2clJ2b90-Ck_CqrX-45" value="i = 0" style="rounded=1;whiteSpace=wrap;html=1;" vertex="1" parent="1">
          <mxGeometry x="1040" y="250" width="60" height="60" as="geometry" />
        </mxCell>
        <mxCell id="onsA2clJ2b90-Ck_CqrX-46" value="" style="edgeStyle=orthogonalEdgeStyle;rounded=0;orthogonalLoop=1;jettySize=auto;html=1;" edge="1" parent="1" target="onsA2clJ2b90-Ck_CqrX-45">
          <mxGeometry relative="1" as="geometry">
            <mxPoint x="970" y="280.00000000000006" as="sourcePoint" />
          </mxGeometry>
        </mxCell>
        <mxCell id="onsA2clJ2b90-Ck_CqrX-47" style="edgeStyle=orthogonalEdgeStyle;rounded=0;orthogonalLoop=1;jettySize=auto;html=1;entryX=0.5;entryY=0;entryDx=0;entryDy=0;" edge="1" parent="1" source="onsA2clJ2b90-Ck_CqrX-48" target="onsA2clJ2b90-Ck_CqrX-44">
          <mxGeometry relative="1" as="geometry">
            <Array as="points">
              <mxPoint x="1630" y="170" />
              <mxPoint x="1180" y="170" />
            </Array>
          </mxGeometry>
        </mxCell>
        <mxCell id="onsA2clJ2b90-Ck_CqrX-48" value="i++&lt;br&gt;count1++" style="whiteSpace=wrap;html=1;" vertex="1" parent="1">
          <mxGeometry x="1570" y="250" width="120" height="60" as="geometry" />
        </mxCell>
        <mxCell id="onsA2clJ2b90-Ck_CqrX-49" value="" style="edgeStyle=orthogonalEdgeStyle;rounded=0;orthogonalLoop=1;jettySize=auto;html=1;" edge="1" parent="1" source="onsA2clJ2b90-Ck_CqrX-50">
          <mxGeometry relative="1" as="geometry">
            <mxPoint x="1400" y="280.0588235294117" as="targetPoint" />
          </mxGeometry>
        </mxCell>
        <mxCell id="onsA2clJ2b90-Ck_CqrX-50" value="snt(a[i])" style="rhombus;whiteSpace=wrap;html=1;" vertex="1" parent="1">
          <mxGeometry x="1290" y="240" width="80" height="80" as="geometry" />
        </mxCell>
        <mxCell id="onsA2clJ2b90-Ck_CqrX-51" value="" style="edgeStyle=orthogonalEdgeStyle;rounded=0;orthogonalLoop=1;jettySize=auto;html=1;exitX=1;exitY=0.5;exitDx=0;exitDy=0;" edge="1" parent="1" source="onsA2clJ2b90-Ck_CqrX-52" target="onsA2clJ2b90-Ck_CqrX-48">
          <mxGeometry relative="1" as="geometry">
            <mxPoint x="1520" y="280" as="sourcePoint" />
          </mxGeometry>
        </mxCell>
        <mxCell id="onsA2clJ2b90-Ck_CqrX-52" value="output a[i]" style="shape=parallelogram;perimeter=parallelogramPerimeter;whiteSpace=wrap;html=1;fixedSize=1;" vertex="1" parent="1">
          <mxGeometry x="1390" y="250" width="120" height="60" as="geometry" />
        </mxCell>
        <mxCell id="onsA2clJ2b90-Ck_CqrX-53" value="" style="edgeStyle=orthogonalEdgeStyle;rounded=0;orthogonalLoop=1;jettySize=auto;html=1;" edge="1" parent="1" source="onsA2clJ2b90-Ck_CqrX-56" target="onsA2clJ2b90-Ck_CqrX-55">
          <mxGeometry relative="1" as="geometry" />
        </mxCell>
        <mxCell id="onsA2clJ2b90-Ck_CqrX-54" value="" style="edgeStyle=orthogonalEdgeStyle;rounded=0;orthogonalLoop=1;jettySize=auto;html=1;" edge="1" parent="1" source="onsA2clJ2b90-Ck_CqrX-55">
          <mxGeometry relative="1" as="geometry">
            <mxPoint x="1290" y="440" as="targetPoint" />
          </mxGeometry>
        </mxCell>
        <mxCell id="onsA2clJ2b90-Ck_CqrX-55" value="i&amp;lt;m" style="rhombus;whiteSpace=wrap;html=1;" vertex="1" parent="1">
          <mxGeometry x="1140" y="400" width="80" height="80" as="geometry" />
        </mxCell>
        <mxCell id="onsA2clJ2b90-Ck_CqrX-56" value="i = 0" style="rounded=1;whiteSpace=wrap;html=1;" vertex="1" parent="1">
          <mxGeometry x="1040" y="410" width="60" height="60" as="geometry" />
        </mxCell>
        <mxCell id="onsA2clJ2b90-Ck_CqrX-57" style="edgeStyle=orthogonalEdgeStyle;rounded=0;orthogonalLoop=1;jettySize=auto;html=1;entryX=0.5;entryY=0;entryDx=0;entryDy=0;" edge="1" parent="1" source="onsA2clJ2b90-Ck_CqrX-58" target="onsA2clJ2b90-Ck_CqrX-55">
          <mxGeometry relative="1" as="geometry">
            <Array as="points">
              <mxPoint x="1630" y="330" />
              <mxPoint x="1180" y="330" />
            </Array>
          </mxGeometry>
        </mxCell>
        <mxCell id="onsA2clJ2b90-Ck_CqrX-58" value="i++&lt;br&gt;count2++" style="whiteSpace=wrap;html=1;" vertex="1" parent="1">
          <mxGeometry x="1570" y="410" width="120" height="60" as="geometry" />
        </mxCell>
        <mxCell id="onsA2clJ2b90-Ck_CqrX-59" value="" style="edgeStyle=orthogonalEdgeStyle;rounded=0;orthogonalLoop=1;jettySize=auto;html=1;" edge="1" parent="1" source="onsA2clJ2b90-Ck_CqrX-60">
          <mxGeometry relative="1" as="geometry">
            <mxPoint x="1400" y="440.0588235294117" as="targetPoint" />
          </mxGeometry>
        </mxCell>
        <mxCell id="onsA2clJ2b90-Ck_CqrX-60" value="snt(b[i])" style="rhombus;whiteSpace=wrap;html=1;" vertex="1" parent="1">
          <mxGeometry x="1290" y="400" width="80" height="80" as="geometry" />
        </mxCell>
        <mxCell id="onsA2clJ2b90-Ck_CqrX-61" value="" style="edgeStyle=orthogonalEdgeStyle;rounded=0;orthogonalLoop=1;jettySize=auto;html=1;exitX=1;exitY=0.5;exitDx=0;exitDy=0;" edge="1" parent="1" source="onsA2clJ2b90-Ck_CqrX-62" target="onsA2clJ2b90-Ck_CqrX-58">
          <mxGeometry relative="1" as="geometry">
            <mxPoint x="1520" y="440" as="sourcePoint" />
          </mxGeometry>
        </mxCell>
        <mxCell id="onsA2clJ2b90-Ck_CqrX-62" value="output b[i]" style="shape=parallelogram;perimeter=parallelogramPerimeter;whiteSpace=wrap;html=1;fixedSize=1;" vertex="1" parent="1">
          <mxGeometry x="1390" y="410" width="120" height="60" as="geometry" />
        </mxCell>
        <mxCell id="onsA2clJ2b90-Ck_CqrX-63" value="" style="edgeStyle=orthogonalEdgeStyle;rounded=0;orthogonalLoop=1;jettySize=auto;html=1;" edge="1" parent="1" source="onsA2clJ2b90-Ck_CqrX-65" target="onsA2clJ2b90-Ck_CqrX-66">
          <mxGeometry relative="1" as="geometry" />
        </mxCell>
        <mxCell id="onsA2clJ2b90-Ck_CqrX-64" style="edgeStyle=orthogonalEdgeStyle;rounded=0;orthogonalLoop=1;jettySize=auto;html=1;entryX=0;entryY=0.5;entryDx=0;entryDy=0;" edge="1" parent="1" source="onsA2clJ2b90-Ck_CqrX-65" target="onsA2clJ2b90-Ck_CqrX-67">
          <mxGeometry relative="1" as="geometry">
            <Array as="points">
              <mxPoint x="180" y="730" />
            </Array>
          </mxGeometry>
        </mxCell>
        <mxCell id="onsA2clJ2b90-Ck_CqrX-65" value="count1 &amp;gt; count2" style="rhombus;whiteSpace=wrap;html=1;" vertex="1" parent="1">
          <mxGeometry x="90" y="590" width="180" height="80" as="geometry" />
        </mxCell>
        <mxCell id="onsA2clJ2b90-Ck_CqrX-66" value="output arr1" style="shape=parallelogram;perimeter=parallelogramPerimeter;whiteSpace=wrap;html=1;fixedSize=1;" vertex="1" parent="1">
          <mxGeometry x="330" y="600" width="120" height="60" as="geometry" />
        </mxCell>
        <mxCell id="onsA2clJ2b90-Ck_CqrX-67" value="output ar2" style="shape=parallelogram;perimeter=parallelogramPerimeter;whiteSpace=wrap;html=1;fixedSize=1;" vertex="1" parent="1">
          <mxGeometry x="330" y="700" width="120" height="60" as="geometry" />
        </mxCell>
        <mxCell id="onsA2clJ2b90-Ck_CqrX-68" value="true" style="text;html=1;strokeColor=none;fillColor=none;align=center;verticalAlign=middle;whiteSpace=wrap;rounded=0;" vertex="1" parent="1">
          <mxGeometry x="270" y="600" width="60" height="30" as="geometry" />
        </mxCell>
        <mxCell id="onsA2clJ2b90-Ck_CqrX-69" value="false" style="text;html=1;strokeColor=none;fillColor=none;align=center;verticalAlign=middle;whiteSpace=wrap;rounded=0;" vertex="1" parent="1">
          <mxGeometry x="230" y="690" width="60" height="30" as="geometry" />
        </mxCell>
      </root>
    </mxGraphModel>
  </diagram>
  <diagram id="Vtv8BDVGHGQhlHyCZeip" name="Trang-4">
    <mxGraphModel dx="807" dy="1772" grid="1" gridSize="10" guides="1" tooltips="1" connect="1" arrows="1" fold="1" page="1" pageScale="1" pageWidth="827" pageHeight="1169" math="0" shadow="0">
      <root>
        <mxCell id="0" />
        <mxCell id="1" parent="0" />
        <mxCell id="dwurgXfCIW99iyT5z0r_-1" value="" style="edgeStyle=orthogonalEdgeStyle;rounded=0;orthogonalLoop=1;jettySize=auto;html=1;" edge="1" parent="1" source="dwurgXfCIW99iyT5z0r_-2" target="dwurgXfCIW99iyT5z0r_-20">
          <mxGeometry relative="1" as="geometry" />
        </mxCell>
        <mxCell id="dwurgXfCIW99iyT5z0r_-2" value="start" style="ellipse;whiteSpace=wrap;html=1;" vertex="1" parent="1">
          <mxGeometry x="10" y="360" width="120" height="80" as="geometry" />
        </mxCell>
        <mxCell id="dwurgXfCIW99iyT5z0r_-3" value="" style="edgeStyle=orthogonalEdgeStyle;rounded=0;orthogonalLoop=1;jettySize=auto;html=1;" edge="1" parent="1" source="dwurgXfCIW99iyT5z0r_-4" target="dwurgXfCIW99iyT5z0r_-6">
          <mxGeometry relative="1" as="geometry" />
        </mxCell>
        <mxCell id="dwurgXfCIW99iyT5z0r_-4" value="check(arr,n)" style="shape=parallelogram;perimeter=parallelogramPerimeter;whiteSpace=wrap;html=1;fixedSize=1;" vertex="1" parent="1">
          <mxGeometry x="40" y="50" width="120" height="60" as="geometry" />
        </mxCell>
        <mxCell id="dwurgXfCIW99iyT5z0r_-5" value="" style="edgeStyle=orthogonalEdgeStyle;rounded=0;orthogonalLoop=1;jettySize=auto;html=1;" edge="1" parent="1" source="dwurgXfCIW99iyT5z0r_-6" target="dwurgXfCIW99iyT5z0r_-10">
          <mxGeometry relative="1" as="geometry" />
        </mxCell>
        <mxCell id="dwurgXfCIW99iyT5z0r_-6" value="i&amp;lt; n /2" style="rhombus;whiteSpace=wrap;html=1;" vertex="1" parent="1">
          <mxGeometry x="370" y="40" width="80" height="80" as="geometry" />
        </mxCell>
        <mxCell id="dwurgXfCIW99iyT5z0r_-7" value="i = 0" style="rounded=0;whiteSpace=wrap;html=1;" vertex="1" parent="1">
          <mxGeometry x="210" y="50" width="120" height="60" as="geometry" />
        </mxCell>
        <mxCell id="dwurgXfCIW99iyT5z0r_-8" value="" style="edgeStyle=orthogonalEdgeStyle;rounded=0;orthogonalLoop=1;jettySize=auto;html=1;" edge="1" parent="1" source="dwurgXfCIW99iyT5z0r_-10" target="dwurgXfCIW99iyT5z0r_-11">
          <mxGeometry relative="1" as="geometry">
            <Array as="points">
              <mxPoint x="620" y="210" />
            </Array>
          </mxGeometry>
        </mxCell>
        <mxCell id="dwurgXfCIW99iyT5z0r_-9" value="" style="edgeStyle=orthogonalEdgeStyle;rounded=0;orthogonalLoop=1;jettySize=auto;html=1;" edge="1" parent="1" source="dwurgXfCIW99iyT5z0r_-10" target="dwurgXfCIW99iyT5z0r_-14">
          <mxGeometry relative="1" as="geometry" />
        </mxCell>
        <mxCell id="dwurgXfCIW99iyT5z0r_-10" value="a[i] != a[n-i-1]" style="rhombus;whiteSpace=wrap;html=1;" vertex="1" parent="1">
          <mxGeometry x="530" y="40" width="180" height="80" as="geometry" />
        </mxCell>
        <mxCell id="dwurgXfCIW99iyT5z0r_-11" value="return false" style="shape=parallelogram;perimeter=parallelogramPerimeter;whiteSpace=wrap;html=1;fixedSize=1;" vertex="1" parent="1">
          <mxGeometry x="820" y="180" width="120" height="60" as="geometry" />
        </mxCell>
        <mxCell id="dwurgXfCIW99iyT5z0r_-12" value="false" style="text;html=1;strokeColor=none;fillColor=none;align=center;verticalAlign=middle;whiteSpace=wrap;rounded=0;" vertex="1" parent="1">
          <mxGeometry x="720" y="170" width="60" height="30" as="geometry" />
        </mxCell>
        <mxCell id="dwurgXfCIW99iyT5z0r_-13" style="edgeStyle=orthogonalEdgeStyle;rounded=0;orthogonalLoop=1;jettySize=auto;html=1;entryX=0.5;entryY=0;entryDx=0;entryDy=0;" edge="1" parent="1" source="dwurgXfCIW99iyT5z0r_-14" target="dwurgXfCIW99iyT5z0r_-6">
          <mxGeometry relative="1" as="geometry">
            <Array as="points">
              <mxPoint x="880" y="-40" />
              <mxPoint x="410" y="-40" />
            </Array>
          </mxGeometry>
        </mxCell>
        <mxCell id="dwurgXfCIW99iyT5z0r_-14" value="i++" style="whiteSpace=wrap;html=1;" vertex="1" parent="1">
          <mxGeometry x="820" y="50" width="120" height="60" as="geometry" />
        </mxCell>
        <mxCell id="dwurgXfCIW99iyT5z0r_-15" value="true" style="text;html=1;strokeColor=none;fillColor=none;align=center;verticalAlign=middle;whiteSpace=wrap;rounded=0;" vertex="1" parent="1">
          <mxGeometry x="450" y="50" width="60" height="30" as="geometry" />
        </mxCell>
        <mxCell id="dwurgXfCIW99iyT5z0r_-16" value="" style="edgeStyle=orthogonalEdgeStyle;rounded=0;orthogonalLoop=1;jettySize=auto;html=1;exitX=0.5;exitY=1;exitDx=0;exitDy=0;" edge="1" parent="1" source="dwurgXfCIW99iyT5z0r_-6" target="dwurgXfCIW99iyT5z0r_-17">
          <mxGeometry relative="1" as="geometry">
            <mxPoint x="420" y="120" as="sourcePoint" />
          </mxGeometry>
        </mxCell>
        <mxCell id="dwurgXfCIW99iyT5z0r_-17" value="return true" style="shape=parallelogram;perimeter=parallelogramPerimeter;whiteSpace=wrap;html=1;fixedSize=1;" vertex="1" parent="1">
          <mxGeometry x="510" y="220" width="120" height="60" as="geometry" />
        </mxCell>
        <mxCell id="dwurgXfCIW99iyT5z0r_-18" value="false" style="text;html=1;strokeColor=none;fillColor=none;align=center;verticalAlign=middle;whiteSpace=wrap;rounded=0;" vertex="1" parent="1">
          <mxGeometry x="440" y="140" width="60" height="30" as="geometry" />
        </mxCell>
        <mxCell id="dwurgXfCIW99iyT5z0r_-19" value="" style="edgeStyle=orthogonalEdgeStyle;rounded=0;orthogonalLoop=1;jettySize=auto;html=1;" edge="1" parent="1" source="dwurgXfCIW99iyT5z0r_-20">
          <mxGeometry relative="1" as="geometry">
            <mxPoint x="430" y="400" as="targetPoint" />
          </mxGeometry>
        </mxCell>
        <mxCell id="dwurgXfCIW99iyT5z0r_-20" value="intput arr1[...]&lt;br&gt;arr2[...]" style="shape=parallelogram;perimeter=parallelogramPerimeter;whiteSpace=wrap;html=1;fixedSize=1;" vertex="1" parent="1">
          <mxGeometry x="210" y="370" width="120" height="60" as="geometry" />
        </mxCell>
        <mxCell id="dwurgXfCIW99iyT5z0r_-21" value="" style="edgeStyle=orthogonalEdgeStyle;rounded=0;orthogonalLoop=1;jettySize=auto;html=1;" edge="1" parent="1" source="dwurgXfCIW99iyT5z0r_-23" target="dwurgXfCIW99iyT5z0r_-26">
          <mxGeometry relative="1" as="geometry" />
        </mxCell>
        <mxCell id="dwurgXfCIW99iyT5z0r_-22" style="edgeStyle=orthogonalEdgeStyle;rounded=0;orthogonalLoop=1;jettySize=auto;html=1;entryX=0.5;entryY=0;entryDx=0;entryDy=0;" edge="1" parent="1" source="dwurgXfCIW99iyT5z0r_-23" target="dwurgXfCIW99iyT5z0r_-29">
          <mxGeometry relative="1" as="geometry" />
        </mxCell>
        <mxCell id="dwurgXfCIW99iyT5z0r_-23" value="n = sizeof arr1 / sizeof(int)&lt;br&gt;m = sizeof arr2 / sizeof(int)" style="rounded=0;whiteSpace=wrap;html=1;" vertex="1" parent="1">
          <mxGeometry x="430" y="370" width="260" height="60" as="geometry" />
        </mxCell>
        <mxCell id="dwurgXfCIW99iyT5z0r_-24" value="" style="edgeStyle=orthogonalEdgeStyle;rounded=0;orthogonalLoop=1;jettySize=auto;html=1;" edge="1" parent="1" source="dwurgXfCIW99iyT5z0r_-26" target="dwurgXfCIW99iyT5z0r_-30">
          <mxGeometry relative="1" as="geometry" />
        </mxCell>
        <mxCell id="dwurgXfCIW99iyT5z0r_-25" style="edgeStyle=orthogonalEdgeStyle;rounded=0;orthogonalLoop=1;jettySize=auto;html=1;entryX=0;entryY=0.5;entryDx=0;entryDy=0;" edge="1" parent="1" source="dwurgXfCIW99iyT5z0r_-26" target="dwurgXfCIW99iyT5z0r_-31">
          <mxGeometry relative="1" as="geometry">
            <Array as="points">
              <mxPoint x="1000" y="310" />
              <mxPoint x="1000" y="340" />
            </Array>
          </mxGeometry>
        </mxCell>
        <mxCell id="dwurgXfCIW99iyT5z0r_-26" value="check(arr1,n)" style="rhombus;whiteSpace=wrap;html=1;rounded=0;" vertex="1" parent="1">
          <mxGeometry x="860" y="270" width="80" height="80" as="geometry" />
        </mxCell>
        <mxCell id="dwurgXfCIW99iyT5z0r_-27" style="edgeStyle=orthogonalEdgeStyle;rounded=0;orthogonalLoop=1;jettySize=auto;html=1;entryX=0;entryY=0.5;entryDx=0;entryDy=0;" edge="1" parent="1" source="dwurgXfCIW99iyT5z0r_-29" target="dwurgXfCIW99iyT5z0r_-32">
          <mxGeometry relative="1" as="geometry" />
        </mxCell>
        <mxCell id="dwurgXfCIW99iyT5z0r_-28" style="edgeStyle=orthogonalEdgeStyle;rounded=0;orthogonalLoop=1;jettySize=auto;html=1;entryX=0;entryY=0.5;entryDx=0;entryDy=0;" edge="1" parent="1" source="dwurgXfCIW99iyT5z0r_-29" target="dwurgXfCIW99iyT5z0r_-33">
          <mxGeometry relative="1" as="geometry" />
        </mxCell>
        <mxCell id="dwurgXfCIW99iyT5z0r_-29" value="check(arr2,m)" style="rhombus;whiteSpace=wrap;html=1;" vertex="1" parent="1">
          <mxGeometry x="860" y="440" width="80" height="80" as="geometry" />
        </mxCell>
        <mxCell id="dwurgXfCIW99iyT5z0r_-30" value="la mang doi xung" style="shape=parallelogram;perimeter=parallelogramPerimeter;whiteSpace=wrap;html=1;fixedSize=1;rounded=0;" vertex="1" parent="1">
          <mxGeometry x="1050" y="210" width="120" height="60" as="geometry" />
        </mxCell>
        <mxCell id="dwurgXfCIW99iyT5z0r_-31" value="khong phai mang doi xung" style="shape=parallelogram;perimeter=parallelogramPerimeter;whiteSpace=wrap;html=1;fixedSize=1;" vertex="1" parent="1">
          <mxGeometry x="1040" y="310" width="120" height="60" as="geometry" />
        </mxCell>
        <mxCell id="dwurgXfCIW99iyT5z0r_-32" value="la mang doi xung" style="shape=parallelogram;perimeter=parallelogramPerimeter;whiteSpace=wrap;html=1;fixedSize=1;rounded=0;" vertex="1" parent="1">
          <mxGeometry x="1030" y="410" width="120" height="60" as="geometry" />
        </mxCell>
        <mxCell id="dwurgXfCIW99iyT5z0r_-33" value="khong phai mang doi xung" style="shape=parallelogram;perimeter=parallelogramPerimeter;whiteSpace=wrap;html=1;fixedSize=1;" vertex="1" parent="1">
          <mxGeometry x="1020" y="510" width="120" height="60" as="geometry" />
        </mxCell>
        <mxCell id="dwurgXfCIW99iyT5z0r_-34" value="true" style="text;html=1;strokeColor=none;fillColor=none;align=center;verticalAlign=middle;whiteSpace=wrap;rounded=0;" vertex="1" parent="1">
          <mxGeometry x="1000" y="210" width="60" height="30" as="geometry" />
        </mxCell>
        <mxCell id="dwurgXfCIW99iyT5z0r_-35" value="false" style="text;html=1;strokeColor=none;fillColor=none;align=center;verticalAlign=middle;whiteSpace=wrap;rounded=0;" vertex="1" parent="1">
          <mxGeometry x="990" y="340" width="60" height="30" as="geometry" />
        </mxCell>
        <mxCell id="dwurgXfCIW99iyT5z0r_-36" value="true" style="text;html=1;strokeColor=none;fillColor=none;align=center;verticalAlign=middle;whiteSpace=wrap;rounded=0;" vertex="1" parent="1">
          <mxGeometry x="980" y="410" width="60" height="30" as="geometry" />
        </mxCell>
        <mxCell id="dwurgXfCIW99iyT5z0r_-37" value="false" style="text;html=1;strokeColor=none;fillColor=none;align=center;verticalAlign=middle;whiteSpace=wrap;rounded=0;" vertex="1" parent="1">
          <mxGeometry x="970" y="540" width="60" height="30" as="geometry" />
        </mxCell>
      </root>
    </mxGraphModel>
  </diagram>
  <diagram id="DCM_6VnlqCSEggK1ODGs" name="Trang-5">
    <mxGraphModel dx="807" dy="603" grid="1" gridSize="10" guides="1" tooltips="1" connect="1" arrows="1" fold="1" page="1" pageScale="1" pageWidth="827" pageHeight="1169" math="0" shadow="0">
      <root>
        <mxCell id="0" />
        <mxCell id="1" parent="0" />
        <mxCell id="WmXlzH6n2CwPEO6YS7cP-1" value="" style="edgeStyle=orthogonalEdgeStyle;rounded=0;orthogonalLoop=1;jettySize=auto;html=1;" edge="1" parent="1" source="WmXlzH6n2CwPEO6YS7cP-2" target="WmXlzH6n2CwPEO6YS7cP-7">
          <mxGeometry relative="1" as="geometry" />
        </mxCell>
        <mxCell id="WmXlzH6n2CwPEO6YS7cP-2" value="bool prime(int n)" style="ellipse;whiteSpace=wrap;html=1;" vertex="1" parent="1">
          <mxGeometry x="300" y="210" width="120" height="80" as="geometry" />
        </mxCell>
        <mxCell id="WmXlzH6n2CwPEO6YS7cP-3" value="" style="edgeStyle=orthogonalEdgeStyle;rounded=0;orthogonalLoop=1;jettySize=auto;html=1;" edge="1" parent="1" source="WmXlzH6n2CwPEO6YS7cP-7" target="WmXlzH6n2CwPEO6YS7cP-8">
          <mxGeometry relative="1" as="geometry" />
        </mxCell>
        <mxCell id="WmXlzH6n2CwPEO6YS7cP-4" value="true" style="edgeLabel;html=1;align=center;verticalAlign=middle;resizable=0;points=[];" vertex="1" connectable="0" parent="WmXlzH6n2CwPEO6YS7cP-3">
          <mxGeometry x="-0.0571" y="-4" relative="1" as="geometry">
            <mxPoint y="1" as="offset" />
          </mxGeometry>
        </mxCell>
        <mxCell id="WmXlzH6n2CwPEO6YS7cP-5" value="" style="edgeStyle=orthogonalEdgeStyle;rounded=0;orthogonalLoop=1;jettySize=auto;html=1;" edge="1" parent="1" source="WmXlzH6n2CwPEO6YS7cP-7" target="WmXlzH6n2CwPEO6YS7cP-12">
          <mxGeometry relative="1" as="geometry" />
        </mxCell>
        <mxCell id="WmXlzH6n2CwPEO6YS7cP-6" value="false" style="edgeLabel;html=1;align=center;verticalAlign=middle;resizable=0;points=[];" vertex="1" connectable="0" parent="WmXlzH6n2CwPEO6YS7cP-5">
          <mxGeometry x="-0.2" y="1" relative="1" as="geometry">
            <mxPoint as="offset" />
          </mxGeometry>
        </mxCell>
        <mxCell id="WmXlzH6n2CwPEO6YS7cP-7" value="n&amp;lt;2" style="rhombus;whiteSpace=wrap;html=1;" vertex="1" parent="1">
          <mxGeometry x="510" y="210" width="80" height="80" as="geometry" />
        </mxCell>
        <mxCell id="WmXlzH6n2CwPEO6YS7cP-8" value="return false;" style="rounded=0;whiteSpace=wrap;html=1;" vertex="1" parent="1">
          <mxGeometry x="660" y="220" width="120" height="60" as="geometry" />
        </mxCell>
        <mxCell id="WmXlzH6n2CwPEO6YS7cP-9" value="" style="edgeStyle=orthogonalEdgeStyle;rounded=0;orthogonalLoop=1;jettySize=auto;html=1;" edge="1" parent="1" source="WmXlzH6n2CwPEO6YS7cP-12" target="WmXlzH6n2CwPEO6YS7cP-13">
          <mxGeometry relative="1" as="geometry" />
        </mxCell>
        <mxCell id="WmXlzH6n2CwPEO6YS7cP-10" value="true" style="edgeLabel;html=1;align=center;verticalAlign=middle;resizable=0;points=[];" vertex="1" connectable="0" parent="WmXlzH6n2CwPEO6YS7cP-9">
          <mxGeometry x="-0.0286" y="-3" relative="1" as="geometry">
            <mxPoint as="offset" />
          </mxGeometry>
        </mxCell>
        <mxCell id="WmXlzH6n2CwPEO6YS7cP-11" value="" style="edgeStyle=orthogonalEdgeStyle;rounded=0;orthogonalLoop=1;jettySize=auto;html=1;" edge="1" parent="1" source="WmXlzH6n2CwPEO6YS7cP-12" target="WmXlzH6n2CwPEO6YS7cP-27">
          <mxGeometry relative="1" as="geometry" />
        </mxCell>
        <mxCell id="WmXlzH6n2CwPEO6YS7cP-12" value="n==2||n==3" style="rhombus;whiteSpace=wrap;html=1;" vertex="1" parent="1">
          <mxGeometry x="510" y="340" width="80" height="80" as="geometry" />
        </mxCell>
        <mxCell id="WmXlzH6n2CwPEO6YS7cP-13" value="return true;" style="rounded=0;whiteSpace=wrap;html=1;" vertex="1" parent="1">
          <mxGeometry x="680" y="350" width="120" height="60" as="geometry" />
        </mxCell>
        <mxCell id="WmXlzH6n2CwPEO6YS7cP-14" value="false" style="text;html=1;align=center;verticalAlign=middle;resizable=0;points=[];autosize=1;strokeColor=none;fillColor=none;" vertex="1" parent="1">
          <mxGeometry x="525" y="440" width="50" height="30" as="geometry" />
        </mxCell>
        <mxCell id="WmXlzH6n2CwPEO6YS7cP-15" value="i++" style="rounded=0;whiteSpace=wrap;html=1;" vertex="1" parent="1">
          <mxGeometry x="770" y="480" width="120" height="60" as="geometry" />
        </mxCell>
        <mxCell id="WmXlzH6n2CwPEO6YS7cP-16" value="" style="edgeStyle=orthogonalEdgeStyle;rounded=0;orthogonalLoop=1;jettySize=auto;html=1;" edge="1" parent="1" source="WmXlzH6n2CwPEO6YS7cP-19" target="WmXlzH6n2CwPEO6YS7cP-22">
          <mxGeometry relative="1" as="geometry" />
        </mxCell>
        <mxCell id="WmXlzH6n2CwPEO6YS7cP-17" value="false" style="edgeLabel;html=1;align=center;verticalAlign=middle;resizable=0;points=[];" vertex="1" connectable="0" parent="WmXlzH6n2CwPEO6YS7cP-16">
          <mxGeometry x="-0.2885" relative="1" as="geometry">
            <mxPoint y="1" as="offset" />
          </mxGeometry>
        </mxCell>
        <mxCell id="WmXlzH6n2CwPEO6YS7cP-18" value="" style="edgeStyle=orthogonalEdgeStyle;rounded=0;orthogonalLoop=1;jettySize=auto;html=1;" edge="1" parent="1" source="WmXlzH6n2CwPEO6YS7cP-19" target="WmXlzH6n2CwPEO6YS7cP-24">
          <mxGeometry relative="1" as="geometry" />
        </mxCell>
        <mxCell id="WmXlzH6n2CwPEO6YS7cP-19" value="n%i == 0" style="rhombus;whiteSpace=wrap;html=1;" vertex="1" parent="1">
          <mxGeometry x="900" y="470" width="80" height="80" as="geometry" />
        </mxCell>
        <mxCell id="WmXlzH6n2CwPEO6YS7cP-20" value="true" style="edgeLabel;html=1;align=center;verticalAlign=middle;resizable=0;points=[];" vertex="1" connectable="0" parent="1">
          <mxGeometry x="1000" y="510" as="geometry" />
        </mxCell>
        <mxCell id="WmXlzH6n2CwPEO6YS7cP-21" style="edgeStyle=orthogonalEdgeStyle;rounded=0;orthogonalLoop=1;jettySize=auto;html=1;exitX=0.5;exitY=1;exitDx=0;exitDy=0;" edge="1" parent="1" source="WmXlzH6n2CwPEO6YS7cP-22">
          <mxGeometry relative="1" as="geometry">
            <mxPoint x="620" y="520" as="targetPoint" />
            <mxPoint x="865" y="724" as="sourcePoint" />
          </mxGeometry>
        </mxCell>
        <mxCell id="WmXlzH6n2CwPEO6YS7cP-22" value="return false;" style="rounded=0;whiteSpace=wrap;html=1;" vertex="1" parent="1">
          <mxGeometry x="870" y="602" width="120" height="60" as="geometry" />
        </mxCell>
        <mxCell id="WmXlzH6n2CwPEO6YS7cP-23" style="edgeStyle=orthogonalEdgeStyle;rounded=0;orthogonalLoop=1;jettySize=auto;html=1;exitX=0.5;exitY=1;exitDx=0;exitDy=0;" edge="1" parent="1" source="WmXlzH6n2CwPEO6YS7cP-24">
          <mxGeometry relative="1" as="geometry">
            <mxPoint x="620" y="510" as="targetPoint" />
            <Array as="points">
              <mxPoint x="1090" y="770" />
              <mxPoint x="620" y="770" />
            </Array>
          </mxGeometry>
        </mxCell>
        <mxCell id="WmXlzH6n2CwPEO6YS7cP-24" value="return true;" style="rounded=0;whiteSpace=wrap;html=1;" vertex="1" parent="1">
          <mxGeometry x="1030" y="480" width="120" height="60" as="geometry" />
        </mxCell>
        <mxCell id="WmXlzH6n2CwPEO6YS7cP-25" value="" style="edgeStyle=orthogonalEdgeStyle;rounded=0;orthogonalLoop=1;jettySize=auto;html=1;exitX=1;exitY=0.5;exitDx=0;exitDy=0;" edge="1" parent="1" source="WmXlzH6n2CwPEO6YS7cP-15" target="WmXlzH6n2CwPEO6YS7cP-19">
          <mxGeometry relative="1" as="geometry">
            <mxPoint x="840" y="510" as="sourcePoint" />
          </mxGeometry>
        </mxCell>
        <mxCell id="WmXlzH6n2CwPEO6YS7cP-26" value="" style="edgeStyle=orthogonalEdgeStyle;rounded=0;orthogonalLoop=1;jettySize=auto;html=1;" edge="1" parent="1" source="WmXlzH6n2CwPEO6YS7cP-27" target="WmXlzH6n2CwPEO6YS7cP-32">
          <mxGeometry relative="1" as="geometry" />
        </mxCell>
        <mxCell id="WmXlzH6n2CwPEO6YS7cP-27" value="int i=0" style="rounded=0;whiteSpace=wrap;html=1;" vertex="1" parent="1">
          <mxGeometry x="480" y="480" width="120" height="60" as="geometry" />
        </mxCell>
        <mxCell id="WmXlzH6n2CwPEO6YS7cP-28" value="" style="edgeStyle=orthogonalEdgeStyle;rounded=0;orthogonalLoop=1;jettySize=auto;html=1;" edge="1" parent="1" source="WmXlzH6n2CwPEO6YS7cP-32" target="WmXlzH6n2CwPEO6YS7cP-15">
          <mxGeometry relative="1" as="geometry" />
        </mxCell>
        <mxCell id="WmXlzH6n2CwPEO6YS7cP-29" value="true" style="edgeLabel;html=1;align=center;verticalAlign=middle;resizable=0;points=[];" vertex="1" connectable="0" parent="WmXlzH6n2CwPEO6YS7cP-28">
          <mxGeometry x="0.2" y="1" relative="1" as="geometry">
            <mxPoint as="offset" />
          </mxGeometry>
        </mxCell>
        <mxCell id="WmXlzH6n2CwPEO6YS7cP-30" value="" style="edgeStyle=orthogonalEdgeStyle;rounded=0;orthogonalLoop=1;jettySize=auto;html=1;" edge="1" parent="1" source="WmXlzH6n2CwPEO6YS7cP-32" target="WmXlzH6n2CwPEO6YS7cP-33">
          <mxGeometry relative="1" as="geometry" />
        </mxCell>
        <mxCell id="WmXlzH6n2CwPEO6YS7cP-31" value="false" style="edgeLabel;html=1;align=center;verticalAlign=middle;resizable=0;points=[];" vertex="1" connectable="0" parent="WmXlzH6n2CwPEO6YS7cP-30">
          <mxGeometry x="-0.0952" y="1" relative="1" as="geometry">
            <mxPoint as="offset" />
          </mxGeometry>
        </mxCell>
        <mxCell id="WmXlzH6n2CwPEO6YS7cP-32" value="i&amp;lt;n" style="rhombus;whiteSpace=wrap;html=1;" vertex="1" parent="1">
          <mxGeometry x="640" y="470" width="80" height="80" as="geometry" />
        </mxCell>
        <mxCell id="WmXlzH6n2CwPEO6YS7cP-33" value="end" style="ellipse;whiteSpace=wrap;html=1;" vertex="1" parent="1">
          <mxGeometry x="620" y="592" width="120" height="80" as="geometry" />
        </mxCell>
        <mxCell id="WmXlzH6n2CwPEO6YS7cP-34" value="" style="edgeStyle=orthogonalEdgeStyle;rounded=0;orthogonalLoop=1;jettySize=auto;html=1;" edge="1" parent="1" source="WmXlzH6n2CwPEO6YS7cP-35" target="WmXlzH6n2CwPEO6YS7cP-37">
          <mxGeometry relative="1" as="geometry" />
        </mxCell>
        <mxCell id="WmXlzH6n2CwPEO6YS7cP-35" value="start" style="ellipse;whiteSpace=wrap;html=1;" vertex="1" parent="1">
          <mxGeometry x="230" y="760" width="120" height="80" as="geometry" />
        </mxCell>
        <mxCell id="WmXlzH6n2CwPEO6YS7cP-36" value="" style="edgeStyle=orthogonalEdgeStyle;rounded=0;orthogonalLoop=1;jettySize=auto;html=1;" edge="1" parent="1" source="WmXlzH6n2CwPEO6YS7cP-37" target="WmXlzH6n2CwPEO6YS7cP-39">
          <mxGeometry relative="1" as="geometry" />
        </mxCell>
        <mxCell id="WmXlzH6n2CwPEO6YS7cP-37" value="&lt;div&gt;&amp;nbsp;int n,m;&lt;/div&gt;&lt;div&gt;&amp;nbsp; &amp;nbsp; int i,j,f=0;&lt;/div&gt;&lt;div&gt;&amp;nbsp; &amp;nbsp; int choice;&lt;/div&gt;&lt;div&gt;&amp;nbsp; &amp;nbsp; int a[100][100];&lt;/div&gt;" style="shape=label;whiteSpace=wrap;html=1;fixedSize=1;rounded=0;" vertex="1" parent="1">
          <mxGeometry x="240" y="900" width="120" height="60" as="geometry" />
        </mxCell>
        <mxCell id="WmXlzH6n2CwPEO6YS7cP-38" value="" style="edgeStyle=orthogonalEdgeStyle;rounded=0;orthogonalLoop=1;jettySize=auto;html=1;exitX=0.408;exitY=1.038;exitDx=0;exitDy=0;exitPerimeter=0;" edge="1" parent="1" source="WmXlzH6n2CwPEO6YS7cP-39" target="WmXlzH6n2CwPEO6YS7cP-42">
          <mxGeometry relative="1" as="geometry">
            <Array as="points">
              <mxPoint x="320" y="1052" />
              <mxPoint x="320" y="1250" />
            </Array>
          </mxGeometry>
        </mxCell>
        <mxCell id="WmXlzH6n2CwPEO6YS7cP-39" value="choice" style="shape=parallelogram;perimeter=parallelogramPerimeter;whiteSpace=wrap;html=1;fixedSize=1;" vertex="1" parent="1">
          <mxGeometry x="240" y="990" width="120" height="60" as="geometry" />
        </mxCell>
        <mxCell id="WmXlzH6n2CwPEO6YS7cP-40" value="" style="edgeStyle=orthogonalEdgeStyle;rounded=0;orthogonalLoop=1;jettySize=auto;html=1;" edge="1" parent="1" source="WmXlzH6n2CwPEO6YS7cP-42" target="WmXlzH6n2CwPEO6YS7cP-44">
          <mxGeometry relative="1" as="geometry" />
        </mxCell>
        <mxCell id="WmXlzH6n2CwPEO6YS7cP-41" value="true" style="edgeLabel;html=1;align=center;verticalAlign=middle;resizable=0;points=[];" vertex="1" connectable="0" parent="WmXlzH6n2CwPEO6YS7cP-40">
          <mxGeometry x="-0.2" y="1" relative="1" as="geometry">
            <mxPoint as="offset" />
          </mxGeometry>
        </mxCell>
        <mxCell id="WmXlzH6n2CwPEO6YS7cP-42" value="choice==1" style="rhombus;whiteSpace=wrap;html=1;" vertex="1" parent="1">
          <mxGeometry x="450" y="1210" width="80" height="80" as="geometry" />
        </mxCell>
        <mxCell id="WmXlzH6n2CwPEO6YS7cP-43" value="" style="edgeStyle=orthogonalEdgeStyle;rounded=0;orthogonalLoop=1;jettySize=auto;html=1;" edge="1" parent="1" source="WmXlzH6n2CwPEO6YS7cP-44" target="WmXlzH6n2CwPEO6YS7cP-46">
          <mxGeometry relative="1" as="geometry" />
        </mxCell>
        <mxCell id="WmXlzH6n2CwPEO6YS7cP-44" value="n,m" style="rounded=0;whiteSpace=wrap;html=1;shape=parallelogram;perimeter=parallelogramPerimeter;fixedSize=1;" vertex="1" parent="1">
          <mxGeometry x="590" y="1220" width="120" height="60" as="geometry" />
        </mxCell>
        <mxCell id="WmXlzH6n2CwPEO6YS7cP-45" value="" style="edgeStyle=orthogonalEdgeStyle;rounded=0;orthogonalLoop=1;jettySize=auto;html=1;" edge="1" parent="1" source="WmXlzH6n2CwPEO6YS7cP-46" target="WmXlzH6n2CwPEO6YS7cP-50">
          <mxGeometry relative="1" as="geometry" />
        </mxCell>
        <mxCell id="WmXlzH6n2CwPEO6YS7cP-46" value="i=1" style="rounded=0;whiteSpace=wrap;html=1;" vertex="1" parent="1">
          <mxGeometry x="780" y="1220" width="120" height="60" as="geometry" />
        </mxCell>
        <mxCell id="WmXlzH6n2CwPEO6YS7cP-47" value="" style="edgeStyle=orthogonalEdgeStyle;rounded=0;orthogonalLoop=1;jettySize=auto;html=1;" edge="1" parent="1" source="WmXlzH6n2CwPEO6YS7cP-50" target="WmXlzH6n2CwPEO6YS7cP-52">
          <mxGeometry relative="1" as="geometry" />
        </mxCell>
        <mxCell id="WmXlzH6n2CwPEO6YS7cP-48" value="true" style="edgeLabel;html=1;align=center;verticalAlign=middle;resizable=0;points=[];" vertex="1" connectable="0" parent="WmXlzH6n2CwPEO6YS7cP-47">
          <mxGeometry x="-0.3" relative="1" as="geometry">
            <mxPoint y="1" as="offset" />
          </mxGeometry>
        </mxCell>
        <mxCell id="WmXlzH6n2CwPEO6YS7cP-49" style="edgeStyle=orthogonalEdgeStyle;rounded=0;orthogonalLoop=1;jettySize=auto;html=1;entryX=1;entryY=0.5;entryDx=0;entryDy=0;" edge="1" parent="1" source="WmXlzH6n2CwPEO6YS7cP-50" target="WmXlzH6n2CwPEO6YS7cP-39">
          <mxGeometry relative="1" as="geometry">
            <Array as="points">
              <mxPoint x="970" y="1400" />
              <mxPoint x="2110" y="1400" />
              <mxPoint x="2110" y="1020" />
            </Array>
          </mxGeometry>
        </mxCell>
        <mxCell id="WmXlzH6n2CwPEO6YS7cP-50" value="i&amp;lt;n" style="rhombus;whiteSpace=wrap;html=1;" vertex="1" parent="1">
          <mxGeometry x="930" y="1210" width="80" height="80" as="geometry" />
        </mxCell>
        <mxCell id="WmXlzH6n2CwPEO6YS7cP-51" value="" style="edgeStyle=orthogonalEdgeStyle;rounded=0;orthogonalLoop=1;jettySize=auto;html=1;" edge="1" parent="1" source="WmXlzH6n2CwPEO6YS7cP-52" target="WmXlzH6n2CwPEO6YS7cP-58">
          <mxGeometry relative="1" as="geometry" />
        </mxCell>
        <mxCell id="WmXlzH6n2CwPEO6YS7cP-52" value="j=0" style="rounded=0;whiteSpace=wrap;html=1;" vertex="1" parent="1">
          <mxGeometry x="1060" y="1220" width="120" height="60" as="geometry" />
        </mxCell>
        <mxCell id="WmXlzH6n2CwPEO6YS7cP-53" value="" style="edgeStyle=orthogonalEdgeStyle;rounded=0;orthogonalLoop=1;jettySize=auto;html=1;" edge="1" parent="1" source="WmXlzH6n2CwPEO6YS7cP-58" target="WmXlzH6n2CwPEO6YS7cP-60">
          <mxGeometry relative="1" as="geometry" />
        </mxCell>
        <mxCell id="WmXlzH6n2CwPEO6YS7cP-54" value="true" style="edgeLabel;html=1;align=center;verticalAlign=middle;resizable=0;points=[];" vertex="1" connectable="0" parent="WmXlzH6n2CwPEO6YS7cP-53">
          <mxGeometry x="0.1186" y="3" relative="1" as="geometry">
            <mxPoint x="1" as="offset" />
          </mxGeometry>
        </mxCell>
        <mxCell id="WmXlzH6n2CwPEO6YS7cP-55" style="edgeStyle=orthogonalEdgeStyle;rounded=0;orthogonalLoop=1;jettySize=auto;html=1;entryX=1;entryY=0.5;entryDx=0;entryDy=0;" edge="1" parent="1" source="WmXlzH6n2CwPEO6YS7cP-58" target="WmXlzH6n2CwPEO6YS7cP-62">
          <mxGeometry relative="1" as="geometry">
            <mxPoint x="1160" y="1140" as="targetPoint" />
            <Array as="points">
              <mxPoint x="1281" y="1130" />
            </Array>
          </mxGeometry>
        </mxCell>
        <mxCell id="WmXlzH6n2CwPEO6YS7cP-56" value="fa" style="edgeLabel;html=1;align=center;verticalAlign=middle;resizable=0;points=[];" vertex="1" connectable="0" parent="WmXlzH6n2CwPEO6YS7cP-55">
          <mxGeometry x="-0.5867" y="5" relative="1" as="geometry">
            <mxPoint y="1" as="offset" />
          </mxGeometry>
        </mxCell>
        <mxCell id="WmXlzH6n2CwPEO6YS7cP-57" value="false" style="edgeLabel;html=1;align=center;verticalAlign=middle;resizable=0;points=[];" vertex="1" connectable="0" parent="WmXlzH6n2CwPEO6YS7cP-55">
          <mxGeometry x="-0.5249" y="1" relative="1" as="geometry">
            <mxPoint y="-1" as="offset" />
          </mxGeometry>
        </mxCell>
        <mxCell id="WmXlzH6n2CwPEO6YS7cP-58" value="j&amp;lt;m" style="rhombus;whiteSpace=wrap;html=1;" vertex="1" parent="1">
          <mxGeometry x="1241" y="1210" width="80" height="80" as="geometry" />
        </mxCell>
        <mxCell id="WmXlzH6n2CwPEO6YS7cP-59" style="edgeStyle=orthogonalEdgeStyle;rounded=0;orthogonalLoop=1;jettySize=auto;html=1;" edge="1" parent="1" source="WmXlzH6n2CwPEO6YS7cP-60">
          <mxGeometry relative="1" as="geometry">
            <mxPoint x="1200" y="1250" as="targetPoint" />
            <Array as="points">
              <mxPoint x="1440" y="1360" />
              <mxPoint x="1200" y="1360" />
            </Array>
          </mxGeometry>
        </mxCell>
        <mxCell id="WmXlzH6n2CwPEO6YS7cP-60" value="a[i][j]&lt;br&gt;j++" style="rounded=0;whiteSpace=wrap;html=1;" vertex="1" parent="1">
          <mxGeometry x="1380" y="1220" width="120" height="60" as="geometry" />
        </mxCell>
        <mxCell id="WmXlzH6n2CwPEO6YS7cP-61" style="edgeStyle=orthogonalEdgeStyle;rounded=0;orthogonalLoop=1;jettySize=auto;html=1;" edge="1" parent="1" source="WmXlzH6n2CwPEO6YS7cP-62">
          <mxGeometry relative="1" as="geometry">
            <mxPoint x="920" y="1250" as="targetPoint" />
          </mxGeometry>
        </mxCell>
        <mxCell id="WmXlzH6n2CwPEO6YS7cP-62" value="i++" style="rounded=0;whiteSpace=wrap;html=1;" vertex="1" parent="1">
          <mxGeometry x="1060" y="1100" width="120" height="60" as="geometry" />
        </mxCell>
        <mxCell id="WmXlzH6n2CwPEO6YS7cP-63" value="" style="edgeStyle=orthogonalEdgeStyle;rounded=0;orthogonalLoop=1;jettySize=auto;html=1;" edge="1" parent="1" source="WmXlzH6n2CwPEO6YS7cP-67" target="WmXlzH6n2CwPEO6YS7cP-71">
          <mxGeometry relative="1" as="geometry" />
        </mxCell>
        <mxCell id="WmXlzH6n2CwPEO6YS7cP-64" value="trua" style="edgeLabel;html=1;align=center;verticalAlign=middle;resizable=0;points=[];" vertex="1" connectable="0" parent="WmXlzH6n2CwPEO6YS7cP-63">
          <mxGeometry x="-0.2889" y="2" relative="1" as="geometry">
            <mxPoint as="offset" />
          </mxGeometry>
        </mxCell>
        <mxCell id="WmXlzH6n2CwPEO6YS7cP-65" style="edgeStyle=orthogonalEdgeStyle;rounded=0;orthogonalLoop=1;jettySize=auto;html=1;" edge="1" parent="1" source="WmXlzH6n2CwPEO6YS7cP-67" target="WmXlzH6n2CwPEO6YS7cP-91">
          <mxGeometry relative="1" as="geometry" />
        </mxCell>
        <mxCell id="WmXlzH6n2CwPEO6YS7cP-66" value="faalse" style="edgeLabel;html=1;align=center;verticalAlign=middle;resizable=0;points=[];" vertex="1" connectable="0" parent="WmXlzH6n2CwPEO6YS7cP-65">
          <mxGeometry x="0.0583" y="-2" relative="1" as="geometry">
            <mxPoint y="1" as="offset" />
          </mxGeometry>
        </mxCell>
        <mxCell id="WmXlzH6n2CwPEO6YS7cP-67" value="choice==2" style="rhombus;whiteSpace=wrap;html=1;" vertex="1" parent="1">
          <mxGeometry x="450" y="1560" width="80" height="80" as="geometry" />
        </mxCell>
        <mxCell id="WmXlzH6n2CwPEO6YS7cP-68" style="edgeStyle=orthogonalEdgeStyle;rounded=0;orthogonalLoop=1;jettySize=auto;html=1;entryX=0.469;entryY=0.096;entryDx=0;entryDy=0;entryPerimeter=0;" edge="1" parent="1" source="WmXlzH6n2CwPEO6YS7cP-42" target="WmXlzH6n2CwPEO6YS7cP-67">
          <mxGeometry relative="1" as="geometry" />
        </mxCell>
        <mxCell id="WmXlzH6n2CwPEO6YS7cP-69" value="false" style="edgeLabel;html=1;align=center;verticalAlign=middle;resizable=0;points=[];" vertex="1" connectable="0" parent="WmXlzH6n2CwPEO6YS7cP-68">
          <mxGeometry x="-0.122" y="-3" relative="1" as="geometry">
            <mxPoint as="offset" />
          </mxGeometry>
        </mxCell>
        <mxCell id="WmXlzH6n2CwPEO6YS7cP-70" value="" style="edgeStyle=orthogonalEdgeStyle;rounded=0;orthogonalLoop=1;jettySize=auto;html=1;" edge="1" parent="1" source="WmXlzH6n2CwPEO6YS7cP-71" target="WmXlzH6n2CwPEO6YS7cP-75">
          <mxGeometry relative="1" as="geometry" />
        </mxCell>
        <mxCell id="WmXlzH6n2CwPEO6YS7cP-71" value="i=1" style="rounded=0;whiteSpace=wrap;html=1;" vertex="1" parent="1">
          <mxGeometry x="575" y="1570" width="120" height="60" as="geometry" />
        </mxCell>
        <mxCell id="WmXlzH6n2CwPEO6YS7cP-72" value="" style="edgeStyle=orthogonalEdgeStyle;rounded=0;orthogonalLoop=1;jettySize=auto;html=1;" edge="1" parent="1" source="WmXlzH6n2CwPEO6YS7cP-75" target="WmXlzH6n2CwPEO6YS7cP-77">
          <mxGeometry relative="1" as="geometry" />
        </mxCell>
        <mxCell id="WmXlzH6n2CwPEO6YS7cP-73" value="true" style="edgeLabel;html=1;align=center;verticalAlign=middle;resizable=0;points=[];" vertex="1" connectable="0" parent="WmXlzH6n2CwPEO6YS7cP-72">
          <mxGeometry x="-0.3" relative="1" as="geometry">
            <mxPoint y="1" as="offset" />
          </mxGeometry>
        </mxCell>
        <mxCell id="WmXlzH6n2CwPEO6YS7cP-74" style="edgeStyle=orthogonalEdgeStyle;rounded=0;orthogonalLoop=1;jettySize=auto;html=1;entryX=1;entryY=0.5;entryDx=0;entryDy=0;" edge="1" parent="1" source="WmXlzH6n2CwPEO6YS7cP-75" target="WmXlzH6n2CwPEO6YS7cP-39">
          <mxGeometry relative="1" as="geometry">
            <Array as="points">
              <mxPoint x="765" y="1730" />
              <mxPoint x="2110" y="1730" />
              <mxPoint x="2110" y="1020" />
            </Array>
          </mxGeometry>
        </mxCell>
        <mxCell id="WmXlzH6n2CwPEO6YS7cP-75" value="i&amp;lt;n" style="rhombus;whiteSpace=wrap;html=1;" vertex="1" parent="1">
          <mxGeometry x="725" y="1560" width="80" height="80" as="geometry" />
        </mxCell>
        <mxCell id="WmXlzH6n2CwPEO6YS7cP-76" value="" style="edgeStyle=orthogonalEdgeStyle;rounded=0;orthogonalLoop=1;jettySize=auto;html=1;" edge="1" parent="1" source="WmXlzH6n2CwPEO6YS7cP-77" target="WmXlzH6n2CwPEO6YS7cP-82">
          <mxGeometry relative="1" as="geometry" />
        </mxCell>
        <mxCell id="WmXlzH6n2CwPEO6YS7cP-77" value="j=0" style="rounded=0;whiteSpace=wrap;html=1;" vertex="1" parent="1">
          <mxGeometry x="855" y="1570" width="120" height="60" as="geometry" />
        </mxCell>
        <mxCell id="WmXlzH6n2CwPEO6YS7cP-78" value="" style="edgeStyle=orthogonalEdgeStyle;rounded=0;orthogonalLoop=1;jettySize=auto;html=1;" edge="1" parent="1" source="WmXlzH6n2CwPEO6YS7cP-82" target="WmXlzH6n2CwPEO6YS7cP-84">
          <mxGeometry relative="1" as="geometry" />
        </mxCell>
        <mxCell id="WmXlzH6n2CwPEO6YS7cP-79" value="true" style="edgeLabel;html=1;align=center;verticalAlign=middle;resizable=0;points=[];" vertex="1" connectable="0" parent="WmXlzH6n2CwPEO6YS7cP-78">
          <mxGeometry x="-0.3043" y="1" relative="1" as="geometry">
            <mxPoint as="offset" />
          </mxGeometry>
        </mxCell>
        <mxCell id="WmXlzH6n2CwPEO6YS7cP-80" style="edgeStyle=orthogonalEdgeStyle;rounded=0;orthogonalLoop=1;jettySize=auto;html=1;entryX=1;entryY=0.5;entryDx=0;entryDy=0;" edge="1" parent="1" source="WmXlzH6n2CwPEO6YS7cP-82" target="WmXlzH6n2CwPEO6YS7cP-86">
          <mxGeometry relative="1" as="geometry">
            <mxPoint x="955" y="1490" as="targetPoint" />
            <Array as="points">
              <mxPoint x="1076" y="1480" />
            </Array>
          </mxGeometry>
        </mxCell>
        <mxCell id="WmXlzH6n2CwPEO6YS7cP-81" value="false" style="edgeLabel;html=1;align=center;verticalAlign=middle;resizable=0;points=[];" vertex="1" connectable="0" parent="WmXlzH6n2CwPEO6YS7cP-80">
          <mxGeometry x="-0.1934" y="4" relative="1" as="geometry">
            <mxPoint y="-1" as="offset" />
          </mxGeometry>
        </mxCell>
        <mxCell id="WmXlzH6n2CwPEO6YS7cP-82" value="j&amp;lt;m" style="rhombus;whiteSpace=wrap;html=1;" vertex="1" parent="1">
          <mxGeometry x="1036" y="1560" width="80" height="80" as="geometry" />
        </mxCell>
        <mxCell id="WmXlzH6n2CwPEO6YS7cP-83" style="edgeStyle=orthogonalEdgeStyle;rounded=0;orthogonalLoop=1;jettySize=auto;html=1;" edge="1" parent="1" source="WmXlzH6n2CwPEO6YS7cP-84">
          <mxGeometry relative="1" as="geometry">
            <mxPoint x="995" y="1600" as="targetPoint" />
            <Array as="points">
              <mxPoint x="1235" y="1710" />
              <mxPoint x="995" y="1710" />
            </Array>
          </mxGeometry>
        </mxCell>
        <mxCell id="WmXlzH6n2CwPEO6YS7cP-84" value="a[i][j]&lt;br&gt;j++" style="rounded=0;whiteSpace=wrap;html=1;shape=parallelogram;perimeter=parallelogramPerimeter;fixedSize=1;" vertex="1" parent="1">
          <mxGeometry x="1175" y="1570" width="120" height="60" as="geometry" />
        </mxCell>
        <mxCell id="WmXlzH6n2CwPEO6YS7cP-85" style="edgeStyle=orthogonalEdgeStyle;rounded=0;orthogonalLoop=1;jettySize=auto;html=1;" edge="1" parent="1" source="WmXlzH6n2CwPEO6YS7cP-86">
          <mxGeometry relative="1" as="geometry">
            <mxPoint x="715" y="1600" as="targetPoint" />
          </mxGeometry>
        </mxCell>
        <mxCell id="WmXlzH6n2CwPEO6YS7cP-86" value="i++" style="rounded=0;whiteSpace=wrap;html=1;" vertex="1" parent="1">
          <mxGeometry x="855" y="1450" width="120" height="60" as="geometry" />
        </mxCell>
        <mxCell id="WmXlzH6n2CwPEO6YS7cP-87" value="" style="edgeStyle=orthogonalEdgeStyle;rounded=0;orthogonalLoop=1;jettySize=auto;html=1;" edge="1" parent="1" source="WmXlzH6n2CwPEO6YS7cP-91" target="WmXlzH6n2CwPEO6YS7cP-93">
          <mxGeometry relative="1" as="geometry" />
        </mxCell>
        <mxCell id="WmXlzH6n2CwPEO6YS7cP-88" value="true" style="edgeLabel;html=1;align=center;verticalAlign=middle;resizable=0;points=[];" vertex="1" connectable="0" parent="WmXlzH6n2CwPEO6YS7cP-87">
          <mxGeometry x="-0.3714" y="2" relative="1" as="geometry">
            <mxPoint as="offset" />
          </mxGeometry>
        </mxCell>
        <mxCell id="WmXlzH6n2CwPEO6YS7cP-89" style="edgeStyle=orthogonalEdgeStyle;rounded=0;orthogonalLoop=1;jettySize=auto;html=1;entryX=0.5;entryY=0;entryDx=0;entryDy=0;" edge="1" parent="1" source="WmXlzH6n2CwPEO6YS7cP-91" target="WmXlzH6n2CwPEO6YS7cP-117">
          <mxGeometry relative="1" as="geometry" />
        </mxCell>
        <mxCell id="WmXlzH6n2CwPEO6YS7cP-90" value="false" style="edgeLabel;html=1;align=center;verticalAlign=middle;resizable=0;points=[];" vertex="1" connectable="0" parent="WmXlzH6n2CwPEO6YS7cP-89">
          <mxGeometry x="-0.084" y="4" relative="1" as="geometry">
            <mxPoint y="-1" as="offset" />
          </mxGeometry>
        </mxCell>
        <mxCell id="WmXlzH6n2CwPEO6YS7cP-91" value="choice==3" style="rhombus;whiteSpace=wrap;html=1;" vertex="1" parent="1">
          <mxGeometry x="450" y="1880" width="80" height="80" as="geometry" />
        </mxCell>
        <mxCell id="WmXlzH6n2CwPEO6YS7cP-92" value="" style="edgeStyle=orthogonalEdgeStyle;rounded=0;orthogonalLoop=1;jettySize=auto;html=1;" edge="1" parent="1" source="WmXlzH6n2CwPEO6YS7cP-93" target="WmXlzH6n2CwPEO6YS7cP-97">
          <mxGeometry relative="1" as="geometry" />
        </mxCell>
        <mxCell id="WmXlzH6n2CwPEO6YS7cP-93" value="i=1" style="rounded=0;whiteSpace=wrap;html=1;" vertex="1" parent="1">
          <mxGeometry x="590" y="1880" width="120" height="60" as="geometry" />
        </mxCell>
        <mxCell id="WmXlzH6n2CwPEO6YS7cP-94" value="" style="edgeStyle=orthogonalEdgeStyle;rounded=0;orthogonalLoop=1;jettySize=auto;html=1;" edge="1" parent="1" source="WmXlzH6n2CwPEO6YS7cP-97" target="WmXlzH6n2CwPEO6YS7cP-99">
          <mxGeometry relative="1" as="geometry" />
        </mxCell>
        <mxCell id="WmXlzH6n2CwPEO6YS7cP-95" value="true" style="edgeLabel;html=1;align=center;verticalAlign=middle;resizable=0;points=[];" vertex="1" connectable="0" parent="WmXlzH6n2CwPEO6YS7cP-94">
          <mxGeometry x="-0.3" relative="1" as="geometry">
            <mxPoint y="1" as="offset" />
          </mxGeometry>
        </mxCell>
        <mxCell id="WmXlzH6n2CwPEO6YS7cP-96" style="edgeStyle=orthogonalEdgeStyle;rounded=0;orthogonalLoop=1;jettySize=auto;html=1;exitX=0.5;exitY=1;exitDx=0;exitDy=0;" edge="1" parent="1" source="WmXlzH6n2CwPEO6YS7cP-97">
          <mxGeometry relative="1" as="geometry">
            <mxPoint x="820" y="2170" as="sourcePoint" />
            <mxPoint x="360" y="1030" as="targetPoint" />
            <Array as="points">
              <mxPoint x="780" y="2170" />
              <mxPoint x="2110" y="2170" />
              <mxPoint x="2110" y="1020" />
              <mxPoint x="350" y="1020" />
            </Array>
          </mxGeometry>
        </mxCell>
        <mxCell id="WmXlzH6n2CwPEO6YS7cP-97" value="i&amp;lt;n" style="rhombus;whiteSpace=wrap;html=1;" vertex="1" parent="1">
          <mxGeometry x="740" y="1870" width="80" height="80" as="geometry" />
        </mxCell>
        <mxCell id="WmXlzH6n2CwPEO6YS7cP-98" value="" style="edgeStyle=orthogonalEdgeStyle;rounded=0;orthogonalLoop=1;jettySize=auto;html=1;" edge="1" parent="1" source="WmXlzH6n2CwPEO6YS7cP-99" target="WmXlzH6n2CwPEO6YS7cP-103">
          <mxGeometry relative="1" as="geometry" />
        </mxCell>
        <mxCell id="WmXlzH6n2CwPEO6YS7cP-99" value="j=0" style="rounded=0;whiteSpace=wrap;html=1;" vertex="1" parent="1">
          <mxGeometry x="870" y="1880" width="120" height="60" as="geometry" />
        </mxCell>
        <mxCell id="WmXlzH6n2CwPEO6YS7cP-100" style="edgeStyle=orthogonalEdgeStyle;rounded=0;orthogonalLoop=1;jettySize=auto;html=1;entryX=1;entryY=0.5;entryDx=0;entryDy=0;" edge="1" parent="1" source="WmXlzH6n2CwPEO6YS7cP-103" target="WmXlzH6n2CwPEO6YS7cP-107">
          <mxGeometry relative="1" as="geometry">
            <mxPoint x="970" y="1800" as="targetPoint" />
            <Array as="points">
              <mxPoint x="1091" y="1790" />
            </Array>
          </mxGeometry>
        </mxCell>
        <mxCell id="WmXlzH6n2CwPEO6YS7cP-101" value="" style="edgeStyle=orthogonalEdgeStyle;rounded=0;orthogonalLoop=1;jettySize=auto;html=1;" edge="1" parent="1" source="WmXlzH6n2CwPEO6YS7cP-103" target="WmXlzH6n2CwPEO6YS7cP-112">
          <mxGeometry relative="1" as="geometry" />
        </mxCell>
        <mxCell id="WmXlzH6n2CwPEO6YS7cP-102" value="true" style="edgeLabel;html=1;align=center;verticalAlign=middle;resizable=0;points=[];" vertex="1" connectable="0" parent="WmXlzH6n2CwPEO6YS7cP-101">
          <mxGeometry x="0.1392" y="-3" relative="1" as="geometry">
            <mxPoint x="1" as="offset" />
          </mxGeometry>
        </mxCell>
        <mxCell id="WmXlzH6n2CwPEO6YS7cP-103" value="j&amp;lt;m" style="rhombus;whiteSpace=wrap;html=1;" vertex="1" parent="1">
          <mxGeometry x="1051" y="1870" width="80" height="80" as="geometry" />
        </mxCell>
        <mxCell id="WmXlzH6n2CwPEO6YS7cP-104" style="edgeStyle=orthogonalEdgeStyle;rounded=0;orthogonalLoop=1;jettySize=auto;html=1;" edge="1" parent="1" source="WmXlzH6n2CwPEO6YS7cP-105">
          <mxGeometry relative="1" as="geometry">
            <mxPoint x="1010" y="1910" as="targetPoint" />
            <Array as="points">
              <mxPoint x="1450" y="2020" />
              <mxPoint x="1010" y="2020" />
            </Array>
          </mxGeometry>
        </mxCell>
        <mxCell id="WmXlzH6n2CwPEO6YS7cP-105" value="a[i][j]&lt;br&gt;j++" style="rounded=0;whiteSpace=wrap;html=1;" vertex="1" parent="1">
          <mxGeometry x="1400" y="1880" width="120" height="60" as="geometry" />
        </mxCell>
        <mxCell id="WmXlzH6n2CwPEO6YS7cP-106" style="edgeStyle=orthogonalEdgeStyle;rounded=0;orthogonalLoop=1;jettySize=auto;html=1;" edge="1" parent="1" source="WmXlzH6n2CwPEO6YS7cP-107">
          <mxGeometry relative="1" as="geometry">
            <mxPoint x="730" y="1910" as="targetPoint" />
          </mxGeometry>
        </mxCell>
        <mxCell id="WmXlzH6n2CwPEO6YS7cP-107" value="i++" style="rounded=0;whiteSpace=wrap;html=1;" vertex="1" parent="1">
          <mxGeometry x="860" y="1760" width="120" height="60" as="geometry" />
        </mxCell>
        <mxCell id="WmXlzH6n2CwPEO6YS7cP-108" value="" style="edgeStyle=orthogonalEdgeStyle;rounded=0;orthogonalLoop=1;jettySize=auto;html=1;" edge="1" parent="1" source="WmXlzH6n2CwPEO6YS7cP-112" target="WmXlzH6n2CwPEO6YS7cP-105">
          <mxGeometry relative="1" as="geometry" />
        </mxCell>
        <mxCell id="WmXlzH6n2CwPEO6YS7cP-109" value="true" style="edgeLabel;html=1;align=center;verticalAlign=middle;resizable=0;points=[];" vertex="1" connectable="0" parent="WmXlzH6n2CwPEO6YS7cP-108">
          <mxGeometry x="0.0909" y="1" relative="1" as="geometry">
            <mxPoint as="offset" />
          </mxGeometry>
        </mxCell>
        <mxCell id="WmXlzH6n2CwPEO6YS7cP-110" value="" style="edgeStyle=orthogonalEdgeStyle;rounded=0;orthogonalLoop=1;jettySize=auto;html=1;" edge="1" parent="1" source="WmXlzH6n2CwPEO6YS7cP-112" target="WmXlzH6n2CwPEO6YS7cP-114">
          <mxGeometry relative="1" as="geometry" />
        </mxCell>
        <mxCell id="WmXlzH6n2CwPEO6YS7cP-111" value="false" style="edgeLabel;html=1;align=center;verticalAlign=middle;resizable=0;points=[];" vertex="1" connectable="0" parent="WmXlzH6n2CwPEO6YS7cP-110">
          <mxGeometry x="0.15" y="4" relative="1" as="geometry">
            <mxPoint y="-1" as="offset" />
          </mxGeometry>
        </mxCell>
        <mxCell id="WmXlzH6n2CwPEO6YS7cP-112" value="i==0&amp;amp;&amp;amp;j==0||i==n-1&amp;amp;&amp;amp;j==0||i==n-1&amp;amp;&amp;amp;j==m-1||i==0&amp;amp;&amp;amp;j==m-1" style="rhombus;whiteSpace=wrap;html=1;" vertex="1" parent="1">
          <mxGeometry x="1190" y="1800" width="160" height="150" as="geometry" />
        </mxCell>
        <mxCell id="WmXlzH6n2CwPEO6YS7cP-113" style="edgeStyle=orthogonalEdgeStyle;rounded=0;orthogonalLoop=1;jettySize=auto;html=1;" edge="1" parent="1" source="WmXlzH6n2CwPEO6YS7cP-114">
          <mxGeometry relative="1" as="geometry">
            <mxPoint x="1010" y="1920" as="targetPoint" />
          </mxGeometry>
        </mxCell>
        <mxCell id="WmXlzH6n2CwPEO6YS7cP-114" value="f=0&lt;br&gt;j++" style="rounded=0;whiteSpace=wrap;html=1;" vertex="1" parent="1">
          <mxGeometry x="1190" y="2050" width="120" height="60" as="geometry" />
        </mxCell>
        <mxCell id="WmXlzH6n2CwPEO6YS7cP-115" style="edgeStyle=orthogonalEdgeStyle;rounded=0;orthogonalLoop=1;jettySize=auto;html=1;entryX=0.5;entryY=0;entryDx=0;entryDy=0;" edge="1" parent="1" source="WmXlzH6n2CwPEO6YS7cP-117" target="WmXlzH6n2CwPEO6YS7cP-147">
          <mxGeometry relative="1" as="geometry" />
        </mxCell>
        <mxCell id="WmXlzH6n2CwPEO6YS7cP-116" value="false" style="edgeLabel;html=1;align=center;verticalAlign=middle;resizable=0;points=[];" vertex="1" connectable="0" parent="WmXlzH6n2CwPEO6YS7cP-115">
          <mxGeometry x="-0.0727" y="-6" relative="1" as="geometry">
            <mxPoint y="-1" as="offset" />
          </mxGeometry>
        </mxCell>
        <mxCell id="WmXlzH6n2CwPEO6YS7cP-117" value="choice==4" style="rhombus;whiteSpace=wrap;html=1;" vertex="1" parent="1">
          <mxGeometry x="450" y="2460" width="80" height="80" as="geometry" />
        </mxCell>
        <mxCell id="WmXlzH6n2CwPEO6YS7cP-118" value="" style="edgeStyle=orthogonalEdgeStyle;rounded=0;orthogonalLoop=1;jettySize=auto;html=1;exitX=1;exitY=0.5;exitDx=0;exitDy=0;" edge="1" parent="1" source="WmXlzH6n2CwPEO6YS7cP-117" target="WmXlzH6n2CwPEO6YS7cP-121">
          <mxGeometry relative="1" as="geometry">
            <mxPoint x="590" y="2480" as="sourcePoint" />
          </mxGeometry>
        </mxCell>
        <mxCell id="WmXlzH6n2CwPEO6YS7cP-119" value="true" style="edgeLabel;html=1;align=center;verticalAlign=middle;resizable=0;points=[];" vertex="1" connectable="0" parent="WmXlzH6n2CwPEO6YS7cP-118">
          <mxGeometry x="-0.3714" y="2" relative="1" as="geometry">
            <mxPoint as="offset" />
          </mxGeometry>
        </mxCell>
        <mxCell id="WmXlzH6n2CwPEO6YS7cP-120" value="" style="edgeStyle=orthogonalEdgeStyle;rounded=0;orthogonalLoop=1;jettySize=auto;html=1;" edge="1" parent="1" source="WmXlzH6n2CwPEO6YS7cP-121" target="WmXlzH6n2CwPEO6YS7cP-125">
          <mxGeometry relative="1" as="geometry" />
        </mxCell>
        <mxCell id="WmXlzH6n2CwPEO6YS7cP-121" value="i=1" style="rounded=0;whiteSpace=wrap;html=1;" vertex="1" parent="1">
          <mxGeometry x="650" y="2470" width="120" height="60" as="geometry" />
        </mxCell>
        <mxCell id="WmXlzH6n2CwPEO6YS7cP-122" value="" style="edgeStyle=orthogonalEdgeStyle;rounded=0;orthogonalLoop=1;jettySize=auto;html=1;" edge="1" parent="1" source="WmXlzH6n2CwPEO6YS7cP-125" target="WmXlzH6n2CwPEO6YS7cP-127">
          <mxGeometry relative="1" as="geometry" />
        </mxCell>
        <mxCell id="WmXlzH6n2CwPEO6YS7cP-123" value="true" style="edgeLabel;html=1;align=center;verticalAlign=middle;resizable=0;points=[];" vertex="1" connectable="0" parent="WmXlzH6n2CwPEO6YS7cP-122">
          <mxGeometry x="-0.3" relative="1" as="geometry">
            <mxPoint y="1" as="offset" />
          </mxGeometry>
        </mxCell>
        <mxCell id="WmXlzH6n2CwPEO6YS7cP-124" style="edgeStyle=orthogonalEdgeStyle;rounded=0;orthogonalLoop=1;jettySize=auto;html=1;entryX=1;entryY=0.5;entryDx=0;entryDy=0;exitX=0.5;exitY=1;exitDx=0;exitDy=0;" edge="1" parent="1" source="WmXlzH6n2CwPEO6YS7cP-125" target="WmXlzH6n2CwPEO6YS7cP-39">
          <mxGeometry relative="1" as="geometry">
            <mxPoint x="870" y="2740" as="sourcePoint" />
            <mxPoint x="340" y="1290" as="targetPoint" />
            <Array as="points">
              <mxPoint x="840" y="2740" />
              <mxPoint x="2110" y="2740" />
              <mxPoint x="2110" y="1020" />
            </Array>
          </mxGeometry>
        </mxCell>
        <mxCell id="WmXlzH6n2CwPEO6YS7cP-125" value="i&amp;lt;n" style="rhombus;whiteSpace=wrap;html=1;" vertex="1" parent="1">
          <mxGeometry x="800" y="2430" width="80" height="80" as="geometry" />
        </mxCell>
        <mxCell id="WmXlzH6n2CwPEO6YS7cP-126" value="" style="edgeStyle=orthogonalEdgeStyle;rounded=0;orthogonalLoop=1;jettySize=auto;html=1;" edge="1" parent="1" source="WmXlzH6n2CwPEO6YS7cP-127" target="WmXlzH6n2CwPEO6YS7cP-131">
          <mxGeometry relative="1" as="geometry" />
        </mxCell>
        <mxCell id="WmXlzH6n2CwPEO6YS7cP-127" value="j=0" style="rounded=0;whiteSpace=wrap;html=1;" vertex="1" parent="1">
          <mxGeometry x="930" y="2440" width="120" height="60" as="geometry" />
        </mxCell>
        <mxCell id="WmXlzH6n2CwPEO6YS7cP-128" style="edgeStyle=orthogonalEdgeStyle;rounded=0;orthogonalLoop=1;jettySize=auto;html=1;entryX=1;entryY=0.5;entryDx=0;entryDy=0;" edge="1" parent="1" source="WmXlzH6n2CwPEO6YS7cP-131">
          <mxGeometry relative="1" as="geometry">
            <mxPoint x="1050" y="2350" as="targetPoint" />
            <Array as="points">
              <mxPoint x="1151" y="2350" />
            </Array>
          </mxGeometry>
        </mxCell>
        <mxCell id="WmXlzH6n2CwPEO6YS7cP-129" value="" style="edgeStyle=orthogonalEdgeStyle;rounded=0;orthogonalLoop=1;jettySize=auto;html=1;" edge="1" parent="1" source="WmXlzH6n2CwPEO6YS7cP-131" target="WmXlzH6n2CwPEO6YS7cP-139">
          <mxGeometry relative="1" as="geometry" />
        </mxCell>
        <mxCell id="WmXlzH6n2CwPEO6YS7cP-130" value="true" style="edgeLabel;html=1;align=center;verticalAlign=middle;resizable=0;points=[];" vertex="1" connectable="0" parent="WmXlzH6n2CwPEO6YS7cP-129">
          <mxGeometry x="0.1392" y="-3" relative="1" as="geometry">
            <mxPoint x="1" as="offset" />
          </mxGeometry>
        </mxCell>
        <mxCell id="WmXlzH6n2CwPEO6YS7cP-131" value="j&amp;lt;m" style="rhombus;whiteSpace=wrap;html=1;" vertex="1" parent="1">
          <mxGeometry x="1111" y="2430" width="80" height="80" as="geometry" />
        </mxCell>
        <mxCell id="WmXlzH6n2CwPEO6YS7cP-132" style="edgeStyle=orthogonalEdgeStyle;rounded=0;orthogonalLoop=1;jettySize=auto;html=1;" edge="1" parent="1" source="WmXlzH6n2CwPEO6YS7cP-133">
          <mxGeometry relative="1" as="geometry">
            <mxPoint x="1070" y="2470" as="targetPoint" />
            <Array as="points">
              <mxPoint x="1510" y="2580" />
              <mxPoint x="1070" y="2580" />
            </Array>
          </mxGeometry>
        </mxCell>
        <mxCell id="WmXlzH6n2CwPEO6YS7cP-133" value="a[i][j]&lt;br&gt;j++" style="rounded=0;whiteSpace=wrap;html=1;" vertex="1" parent="1">
          <mxGeometry x="1460" y="2440" width="120" height="60" as="geometry" />
        </mxCell>
        <mxCell id="WmXlzH6n2CwPEO6YS7cP-134" style="edgeStyle=orthogonalEdgeStyle;rounded=0;orthogonalLoop=1;jettySize=auto;html=1;" edge="1" parent="1">
          <mxGeometry relative="1" as="geometry">
            <mxPoint x="790" y="2470" as="targetPoint" />
            <mxPoint x="930" y="2350" as="sourcePoint" />
          </mxGeometry>
        </mxCell>
        <mxCell id="WmXlzH6n2CwPEO6YS7cP-135" value="" style="edgeStyle=orthogonalEdgeStyle;rounded=0;orthogonalLoop=1;jettySize=auto;html=1;" edge="1" parent="1" source="WmXlzH6n2CwPEO6YS7cP-139" target="WmXlzH6n2CwPEO6YS7cP-133">
          <mxGeometry relative="1" as="geometry" />
        </mxCell>
        <mxCell id="WmXlzH6n2CwPEO6YS7cP-136" value="true" style="edgeLabel;html=1;align=center;verticalAlign=middle;resizable=0;points=[];" vertex="1" connectable="0" parent="WmXlzH6n2CwPEO6YS7cP-135">
          <mxGeometry x="0.0909" y="1" relative="1" as="geometry">
            <mxPoint as="offset" />
          </mxGeometry>
        </mxCell>
        <mxCell id="WmXlzH6n2CwPEO6YS7cP-137" value="" style="edgeStyle=orthogonalEdgeStyle;rounded=0;orthogonalLoop=1;jettySize=auto;html=1;" edge="1" parent="1" source="WmXlzH6n2CwPEO6YS7cP-139" target="WmXlzH6n2CwPEO6YS7cP-141">
          <mxGeometry relative="1" as="geometry" />
        </mxCell>
        <mxCell id="WmXlzH6n2CwPEO6YS7cP-138" value="false" style="edgeLabel;html=1;align=center;verticalAlign=middle;resizable=0;points=[];" vertex="1" connectable="0" parent="WmXlzH6n2CwPEO6YS7cP-137">
          <mxGeometry x="0.15" y="4" relative="1" as="geometry">
            <mxPoint y="-1" as="offset" />
          </mxGeometry>
        </mxCell>
        <mxCell id="WmXlzH6n2CwPEO6YS7cP-139" value="j==0||i==0||i==n-1||j==m-1" style="rhombus;whiteSpace=wrap;html=1;" vertex="1" parent="1">
          <mxGeometry x="1250" y="2360" width="160" height="150" as="geometry" />
        </mxCell>
        <mxCell id="WmXlzH6n2CwPEO6YS7cP-140" style="edgeStyle=orthogonalEdgeStyle;rounded=0;orthogonalLoop=1;jettySize=auto;html=1;" edge="1" parent="1" source="WmXlzH6n2CwPEO6YS7cP-141">
          <mxGeometry relative="1" as="geometry">
            <mxPoint x="1070" y="2480" as="targetPoint" />
          </mxGeometry>
        </mxCell>
        <mxCell id="WmXlzH6n2CwPEO6YS7cP-141" value="f=0&lt;br&gt;j++" style="rounded=0;whiteSpace=wrap;html=1;" vertex="1" parent="1">
          <mxGeometry x="1250" y="2610" width="120" height="60" as="geometry" />
        </mxCell>
        <mxCell id="WmXlzH6n2CwPEO6YS7cP-142" value="i++" style="rounded=0;whiteSpace=wrap;html=1;" vertex="1" parent="1">
          <mxGeometry x="930" y="2320" width="120" height="60" as="geometry" />
        </mxCell>
        <mxCell id="WmXlzH6n2CwPEO6YS7cP-143" style="edgeStyle=orthogonalEdgeStyle;rounded=0;orthogonalLoop=1;jettySize=auto;html=1;entryX=0;entryY=0.75;entryDx=0;entryDy=0;" edge="1" parent="1" source="WmXlzH6n2CwPEO6YS7cP-147" target="WmXlzH6n2CwPEO6YS7cP-149">
          <mxGeometry relative="1" as="geometry" />
        </mxCell>
        <mxCell id="WmXlzH6n2CwPEO6YS7cP-144" value="true" style="edgeLabel;html=1;align=center;verticalAlign=middle;resizable=0;points=[];" vertex="1" connectable="0" parent="WmXlzH6n2CwPEO6YS7cP-143">
          <mxGeometry x="-0.0211" y="-5" relative="1" as="geometry">
            <mxPoint as="offset" />
          </mxGeometry>
        </mxCell>
        <mxCell id="WmXlzH6n2CwPEO6YS7cP-145" style="edgeStyle=orthogonalEdgeStyle;rounded=0;orthogonalLoop=1;jettySize=auto;html=1;" edge="1" parent="1" source="WmXlzH6n2CwPEO6YS7cP-147" target="WmXlzH6n2CwPEO6YS7cP-175">
          <mxGeometry relative="1" as="geometry" />
        </mxCell>
        <mxCell id="WmXlzH6n2CwPEO6YS7cP-146" value="false" style="edgeLabel;html=1;align=center;verticalAlign=middle;resizable=0;points=[];" vertex="1" connectable="0" parent="WmXlzH6n2CwPEO6YS7cP-145">
          <mxGeometry x="-0.1429" y="-4" relative="1" as="geometry">
            <mxPoint as="offset" />
          </mxGeometry>
        </mxCell>
        <mxCell id="WmXlzH6n2CwPEO6YS7cP-147" value="choice==5" style="rhombus;whiteSpace=wrap;html=1;" vertex="1" parent="1">
          <mxGeometry x="450" y="2870" width="80" height="80" as="geometry" />
        </mxCell>
        <mxCell id="WmXlzH6n2CwPEO6YS7cP-148" value="" style="edgeStyle=orthogonalEdgeStyle;rounded=0;orthogonalLoop=1;jettySize=auto;html=1;" edge="1" parent="1" source="WmXlzH6n2CwPEO6YS7cP-149" target="WmXlzH6n2CwPEO6YS7cP-153">
          <mxGeometry relative="1" as="geometry" />
        </mxCell>
        <mxCell id="WmXlzH6n2CwPEO6YS7cP-149" value="i=1" style="rounded=0;whiteSpace=wrap;html=1;" vertex="1" parent="1">
          <mxGeometry x="611" y="2897.5" width="120" height="60" as="geometry" />
        </mxCell>
        <mxCell id="WmXlzH6n2CwPEO6YS7cP-150" value="" style="edgeStyle=orthogonalEdgeStyle;rounded=0;orthogonalLoop=1;jettySize=auto;html=1;" edge="1" parent="1" source="WmXlzH6n2CwPEO6YS7cP-153" target="WmXlzH6n2CwPEO6YS7cP-155">
          <mxGeometry relative="1" as="geometry" />
        </mxCell>
        <mxCell id="WmXlzH6n2CwPEO6YS7cP-151" value="true" style="edgeLabel;html=1;align=center;verticalAlign=middle;resizable=0;points=[];" vertex="1" connectable="0" parent="WmXlzH6n2CwPEO6YS7cP-150">
          <mxGeometry x="-0.3" relative="1" as="geometry">
            <mxPoint y="1" as="offset" />
          </mxGeometry>
        </mxCell>
        <mxCell id="WmXlzH6n2CwPEO6YS7cP-152" style="edgeStyle=orthogonalEdgeStyle;rounded=0;orthogonalLoop=1;jettySize=auto;html=1;entryX=1;entryY=0.5;entryDx=0;entryDy=0;exitX=0.5;exitY=1;exitDx=0;exitDy=0;" edge="1" parent="1" source="WmXlzH6n2CwPEO6YS7cP-153">
          <mxGeometry relative="1" as="geometry">
            <mxPoint x="805" y="3157.5" as="sourcePoint" />
            <mxPoint x="2114" y="1420" as="targetPoint" />
          </mxGeometry>
        </mxCell>
        <mxCell id="WmXlzH6n2CwPEO6YS7cP-153" value="i&amp;lt;n" style="rhombus;whiteSpace=wrap;html=1;" vertex="1" parent="1">
          <mxGeometry x="761" y="2857.5" width="80" height="80" as="geometry" />
        </mxCell>
        <mxCell id="WmXlzH6n2CwPEO6YS7cP-154" value="" style="edgeStyle=orthogonalEdgeStyle;rounded=0;orthogonalLoop=1;jettySize=auto;html=1;" edge="1" parent="1" source="WmXlzH6n2CwPEO6YS7cP-155" target="WmXlzH6n2CwPEO6YS7cP-159">
          <mxGeometry relative="1" as="geometry" />
        </mxCell>
        <mxCell id="WmXlzH6n2CwPEO6YS7cP-155" value="j=0" style="rounded=0;whiteSpace=wrap;html=1;" vertex="1" parent="1">
          <mxGeometry x="891" y="2867.5" width="120" height="60" as="geometry" />
        </mxCell>
        <mxCell id="WmXlzH6n2CwPEO6YS7cP-156" style="edgeStyle=orthogonalEdgeStyle;rounded=0;orthogonalLoop=1;jettySize=auto;html=1;entryX=1;entryY=0.5;entryDx=0;entryDy=0;" edge="1" parent="1" source="WmXlzH6n2CwPEO6YS7cP-159">
          <mxGeometry relative="1" as="geometry">
            <mxPoint x="1011" y="2777.5" as="targetPoint" />
            <Array as="points">
              <mxPoint x="1112" y="2777.5" />
            </Array>
          </mxGeometry>
        </mxCell>
        <mxCell id="WmXlzH6n2CwPEO6YS7cP-157" value="" style="edgeStyle=orthogonalEdgeStyle;rounded=0;orthogonalLoop=1;jettySize=auto;html=1;" edge="1" parent="1" source="WmXlzH6n2CwPEO6YS7cP-159" target="WmXlzH6n2CwPEO6YS7cP-167">
          <mxGeometry relative="1" as="geometry" />
        </mxCell>
        <mxCell id="WmXlzH6n2CwPEO6YS7cP-158" value="true" style="edgeLabel;html=1;align=center;verticalAlign=middle;resizable=0;points=[];" vertex="1" connectable="0" parent="WmXlzH6n2CwPEO6YS7cP-157">
          <mxGeometry x="0.1392" y="-3" relative="1" as="geometry">
            <mxPoint x="1" as="offset" />
          </mxGeometry>
        </mxCell>
        <mxCell id="WmXlzH6n2CwPEO6YS7cP-159" value="j&amp;lt;m" style="rhombus;whiteSpace=wrap;html=1;" vertex="1" parent="1">
          <mxGeometry x="1072" y="2857.5" width="80" height="80" as="geometry" />
        </mxCell>
        <mxCell id="WmXlzH6n2CwPEO6YS7cP-160" style="edgeStyle=orthogonalEdgeStyle;rounded=0;orthogonalLoop=1;jettySize=auto;html=1;" edge="1" parent="1" source="WmXlzH6n2CwPEO6YS7cP-161">
          <mxGeometry relative="1" as="geometry">
            <mxPoint x="1031" y="2897.5" as="targetPoint" />
            <Array as="points">
              <mxPoint x="1471" y="3007.5" />
              <mxPoint x="1031" y="3007.5" />
            </Array>
          </mxGeometry>
        </mxCell>
        <mxCell id="WmXlzH6n2CwPEO6YS7cP-161" value="a[i][j]&lt;br&gt;j++" style="rounded=0;whiteSpace=wrap;html=1;" vertex="1" parent="1">
          <mxGeometry x="1421" y="2867.5" width="120" height="60" as="geometry" />
        </mxCell>
        <mxCell id="WmXlzH6n2CwPEO6YS7cP-162" style="edgeStyle=orthogonalEdgeStyle;rounded=0;orthogonalLoop=1;jettySize=auto;html=1;" edge="1" parent="1">
          <mxGeometry relative="1" as="geometry">
            <mxPoint x="751" y="2897.5" as="targetPoint" />
            <mxPoint x="891" y="2777.5" as="sourcePoint" />
          </mxGeometry>
        </mxCell>
        <mxCell id="WmXlzH6n2CwPEO6YS7cP-163" value="" style="edgeStyle=orthogonalEdgeStyle;rounded=0;orthogonalLoop=1;jettySize=auto;html=1;" edge="1" parent="1" source="WmXlzH6n2CwPEO6YS7cP-167" target="WmXlzH6n2CwPEO6YS7cP-161">
          <mxGeometry relative="1" as="geometry" />
        </mxCell>
        <mxCell id="WmXlzH6n2CwPEO6YS7cP-164" value="true" style="edgeLabel;html=1;align=center;verticalAlign=middle;resizable=0;points=[];" vertex="1" connectable="0" parent="WmXlzH6n2CwPEO6YS7cP-163">
          <mxGeometry x="0.0909" y="1" relative="1" as="geometry">
            <mxPoint as="offset" />
          </mxGeometry>
        </mxCell>
        <mxCell id="WmXlzH6n2CwPEO6YS7cP-165" value="" style="edgeStyle=orthogonalEdgeStyle;rounded=0;orthogonalLoop=1;jettySize=auto;html=1;" edge="1" parent="1" source="WmXlzH6n2CwPEO6YS7cP-167" target="WmXlzH6n2CwPEO6YS7cP-169">
          <mxGeometry relative="1" as="geometry" />
        </mxCell>
        <mxCell id="WmXlzH6n2CwPEO6YS7cP-166" value="false" style="edgeLabel;html=1;align=center;verticalAlign=middle;resizable=0;points=[];" vertex="1" connectable="0" parent="WmXlzH6n2CwPEO6YS7cP-165">
          <mxGeometry x="0.15" y="4" relative="1" as="geometry">
            <mxPoint y="-1" as="offset" />
          </mxGeometry>
        </mxCell>
        <mxCell id="WmXlzH6n2CwPEO6YS7cP-167" value="i==j" style="rhombus;whiteSpace=wrap;html=1;" vertex="1" parent="1">
          <mxGeometry x="1211" y="2787.5" width="160" height="150" as="geometry" />
        </mxCell>
        <mxCell id="WmXlzH6n2CwPEO6YS7cP-168" style="edgeStyle=orthogonalEdgeStyle;rounded=0;orthogonalLoop=1;jettySize=auto;html=1;" edge="1" parent="1" source="WmXlzH6n2CwPEO6YS7cP-169">
          <mxGeometry relative="1" as="geometry">
            <mxPoint x="1031" y="2907.5" as="targetPoint" />
          </mxGeometry>
        </mxCell>
        <mxCell id="WmXlzH6n2CwPEO6YS7cP-169" value="f=0&lt;br&gt;j++" style="rounded=0;whiteSpace=wrap;html=1;" vertex="1" parent="1">
          <mxGeometry x="1211" y="3037.5" width="120" height="60" as="geometry" />
        </mxCell>
        <mxCell id="WmXlzH6n2CwPEO6YS7cP-170" value="i++" style="rounded=0;whiteSpace=wrap;html=1;" vertex="1" parent="1">
          <mxGeometry x="891" y="2747.5" width="120" height="60" as="geometry" />
        </mxCell>
        <mxCell id="WmXlzH6n2CwPEO6YS7cP-171" style="edgeStyle=orthogonalEdgeStyle;rounded=0;orthogonalLoop=1;jettySize=auto;html=1;" edge="1" parent="1" source="WmXlzH6n2CwPEO6YS7cP-175" target="WmXlzH6n2CwPEO6YS7cP-177">
          <mxGeometry relative="1" as="geometry" />
        </mxCell>
        <mxCell id="WmXlzH6n2CwPEO6YS7cP-172" value="true" style="edgeLabel;html=1;align=center;verticalAlign=middle;resizable=0;points=[];" vertex="1" connectable="0" parent="WmXlzH6n2CwPEO6YS7cP-171">
          <mxGeometry x="0.1167" y="-2" relative="1" as="geometry">
            <mxPoint y="1" as="offset" />
          </mxGeometry>
        </mxCell>
        <mxCell id="WmXlzH6n2CwPEO6YS7cP-173" style="edgeStyle=orthogonalEdgeStyle;rounded=0;orthogonalLoop=1;jettySize=auto;html=1;entryX=0.5;entryY=0;entryDx=0;entryDy=0;" edge="1" parent="1" source="WmXlzH6n2CwPEO6YS7cP-175" target="WmXlzH6n2CwPEO6YS7cP-202">
          <mxGeometry relative="1" as="geometry" />
        </mxCell>
        <mxCell id="WmXlzH6n2CwPEO6YS7cP-174" value="false" style="edgeLabel;html=1;align=center;verticalAlign=middle;resizable=0;points=[];" vertex="1" connectable="0" parent="WmXlzH6n2CwPEO6YS7cP-173">
          <mxGeometry x="-0.235" y="7" relative="1" as="geometry">
            <mxPoint y="-1" as="offset" />
          </mxGeometry>
        </mxCell>
        <mxCell id="WmXlzH6n2CwPEO6YS7cP-175" value="choice==6" style="rhombus;whiteSpace=wrap;html=1;" vertex="1" parent="1">
          <mxGeometry x="460" y="3360" width="80" height="80" as="geometry" />
        </mxCell>
        <mxCell id="WmXlzH6n2CwPEO6YS7cP-176" value="" style="edgeStyle=orthogonalEdgeStyle;rounded=0;orthogonalLoop=1;jettySize=auto;html=1;" edge="1" parent="1" source="WmXlzH6n2CwPEO6YS7cP-177" target="WmXlzH6n2CwPEO6YS7cP-181">
          <mxGeometry relative="1" as="geometry" />
        </mxCell>
        <mxCell id="WmXlzH6n2CwPEO6YS7cP-177" value="i=1" style="rounded=0;whiteSpace=wrap;html=1;" vertex="1" parent="1">
          <mxGeometry x="640" y="3350" width="120" height="60" as="geometry" />
        </mxCell>
        <mxCell id="WmXlzH6n2CwPEO6YS7cP-178" value="" style="edgeStyle=orthogonalEdgeStyle;rounded=0;orthogonalLoop=1;jettySize=auto;html=1;" edge="1" parent="1" source="WmXlzH6n2CwPEO6YS7cP-181" target="WmXlzH6n2CwPEO6YS7cP-183">
          <mxGeometry relative="1" as="geometry" />
        </mxCell>
        <mxCell id="WmXlzH6n2CwPEO6YS7cP-179" value="true" style="edgeLabel;html=1;align=center;verticalAlign=middle;resizable=0;points=[];" vertex="1" connectable="0" parent="WmXlzH6n2CwPEO6YS7cP-178">
          <mxGeometry x="-0.3" relative="1" as="geometry">
            <mxPoint y="1" as="offset" />
          </mxGeometry>
        </mxCell>
        <mxCell id="WmXlzH6n2CwPEO6YS7cP-180" style="edgeStyle=orthogonalEdgeStyle;rounded=0;orthogonalLoop=1;jettySize=auto;html=1;entryX=1;entryY=0.25;entryDx=0;entryDy=0;" edge="1" parent="1" source="WmXlzH6n2CwPEO6YS7cP-181">
          <mxGeometry relative="1" as="geometry">
            <mxPoint x="878.45" y="3606.82" as="sourcePoint" />
            <mxPoint x="362.9954545454545" y="1263.1836363636364" as="targetPoint" />
            <Array as="points">
              <mxPoint x="830" y="3607" />
              <mxPoint x="2118" y="3607" />
              <mxPoint x="2118" y="1263" />
            </Array>
          </mxGeometry>
        </mxCell>
        <mxCell id="WmXlzH6n2CwPEO6YS7cP-181" value="i&amp;lt;n" style="rhombus;whiteSpace=wrap;html=1;" vertex="1" parent="1">
          <mxGeometry x="790" y="3310" width="80" height="80" as="geometry" />
        </mxCell>
        <mxCell id="WmXlzH6n2CwPEO6YS7cP-182" value="" style="edgeStyle=orthogonalEdgeStyle;rounded=0;orthogonalLoop=1;jettySize=auto;html=1;" edge="1" parent="1" source="WmXlzH6n2CwPEO6YS7cP-183" target="WmXlzH6n2CwPEO6YS7cP-187">
          <mxGeometry relative="1" as="geometry" />
        </mxCell>
        <mxCell id="WmXlzH6n2CwPEO6YS7cP-183" value="j=0" style="rounded=0;whiteSpace=wrap;html=1;" vertex="1" parent="1">
          <mxGeometry x="920" y="3320" width="120" height="60" as="geometry" />
        </mxCell>
        <mxCell id="WmXlzH6n2CwPEO6YS7cP-184" style="edgeStyle=orthogonalEdgeStyle;rounded=0;orthogonalLoop=1;jettySize=auto;html=1;entryX=1;entryY=0.5;entryDx=0;entryDy=0;" edge="1" parent="1" source="WmXlzH6n2CwPEO6YS7cP-187">
          <mxGeometry relative="1" as="geometry">
            <mxPoint x="1040" y="3230" as="targetPoint" />
            <Array as="points">
              <mxPoint x="1141" y="3230" />
            </Array>
          </mxGeometry>
        </mxCell>
        <mxCell id="WmXlzH6n2CwPEO6YS7cP-185" value="" style="edgeStyle=orthogonalEdgeStyle;rounded=0;orthogonalLoop=1;jettySize=auto;html=1;" edge="1" parent="1" source="WmXlzH6n2CwPEO6YS7cP-187" target="WmXlzH6n2CwPEO6YS7cP-195">
          <mxGeometry relative="1" as="geometry" />
        </mxCell>
        <mxCell id="WmXlzH6n2CwPEO6YS7cP-186" value="true" style="edgeLabel;html=1;align=center;verticalAlign=middle;resizable=0;points=[];" vertex="1" connectable="0" parent="WmXlzH6n2CwPEO6YS7cP-185">
          <mxGeometry x="0.1392" y="-3" relative="1" as="geometry">
            <mxPoint x="1" as="offset" />
          </mxGeometry>
        </mxCell>
        <mxCell id="WmXlzH6n2CwPEO6YS7cP-187" value="j&amp;lt;m" style="rhombus;whiteSpace=wrap;html=1;" vertex="1" parent="1">
          <mxGeometry x="1101" y="3310" width="80" height="80" as="geometry" />
        </mxCell>
        <mxCell id="WmXlzH6n2CwPEO6YS7cP-188" style="edgeStyle=orthogonalEdgeStyle;rounded=0;orthogonalLoop=1;jettySize=auto;html=1;" edge="1" parent="1" source="WmXlzH6n2CwPEO6YS7cP-189">
          <mxGeometry relative="1" as="geometry">
            <mxPoint x="1060" y="3350" as="targetPoint" />
            <Array as="points">
              <mxPoint x="1500" y="3460" />
              <mxPoint x="1060" y="3460" />
            </Array>
          </mxGeometry>
        </mxCell>
        <mxCell id="WmXlzH6n2CwPEO6YS7cP-189" value="a[i][j]&lt;br&gt;j++" style="rounded=0;whiteSpace=wrap;html=1;" vertex="1" parent="1">
          <mxGeometry x="1450" y="3320" width="120" height="60" as="geometry" />
        </mxCell>
        <mxCell id="WmXlzH6n2CwPEO6YS7cP-190" style="edgeStyle=orthogonalEdgeStyle;rounded=0;orthogonalLoop=1;jettySize=auto;html=1;" edge="1" parent="1">
          <mxGeometry relative="1" as="geometry">
            <mxPoint x="780" y="3350" as="targetPoint" />
            <mxPoint x="920" y="3230" as="sourcePoint" />
          </mxGeometry>
        </mxCell>
        <mxCell id="WmXlzH6n2CwPEO6YS7cP-191" value="" style="edgeStyle=orthogonalEdgeStyle;rounded=0;orthogonalLoop=1;jettySize=auto;html=1;" edge="1" parent="1" source="WmXlzH6n2CwPEO6YS7cP-195" target="WmXlzH6n2CwPEO6YS7cP-189">
          <mxGeometry relative="1" as="geometry" />
        </mxCell>
        <mxCell id="WmXlzH6n2CwPEO6YS7cP-192" value="true" style="edgeLabel;html=1;align=center;verticalAlign=middle;resizable=0;points=[];" vertex="1" connectable="0" parent="WmXlzH6n2CwPEO6YS7cP-191">
          <mxGeometry x="0.0909" y="1" relative="1" as="geometry">
            <mxPoint as="offset" />
          </mxGeometry>
        </mxCell>
        <mxCell id="WmXlzH6n2CwPEO6YS7cP-193" value="" style="edgeStyle=orthogonalEdgeStyle;rounded=0;orthogonalLoop=1;jettySize=auto;html=1;" edge="1" parent="1" source="WmXlzH6n2CwPEO6YS7cP-195" target="WmXlzH6n2CwPEO6YS7cP-197">
          <mxGeometry relative="1" as="geometry" />
        </mxCell>
        <mxCell id="WmXlzH6n2CwPEO6YS7cP-194" value="false" style="edgeLabel;html=1;align=center;verticalAlign=middle;resizable=0;points=[];" vertex="1" connectable="0" parent="WmXlzH6n2CwPEO6YS7cP-193">
          <mxGeometry x="0.15" y="4" relative="1" as="geometry">
            <mxPoint y="-1" as="offset" />
          </mxGeometry>
        </mxCell>
        <mxCell id="WmXlzH6n2CwPEO6YS7cP-195" value="(prime(a[i][j])" style="rhombus;whiteSpace=wrap;html=1;" vertex="1" parent="1">
          <mxGeometry x="1240" y="3240" width="160" height="150" as="geometry" />
        </mxCell>
        <mxCell id="WmXlzH6n2CwPEO6YS7cP-196" style="edgeStyle=orthogonalEdgeStyle;rounded=0;orthogonalLoop=1;jettySize=auto;html=1;" edge="1" parent="1" source="WmXlzH6n2CwPEO6YS7cP-197">
          <mxGeometry relative="1" as="geometry">
            <mxPoint x="1060" y="3360" as="targetPoint" />
          </mxGeometry>
        </mxCell>
        <mxCell id="WmXlzH6n2CwPEO6YS7cP-197" value="f=0&lt;br&gt;j++" style="rounded=0;whiteSpace=wrap;html=1;" vertex="1" parent="1">
          <mxGeometry x="1240" y="3490" width="120" height="60" as="geometry" />
        </mxCell>
        <mxCell id="WmXlzH6n2CwPEO6YS7cP-198" value="i++" style="rounded=0;whiteSpace=wrap;html=1;" vertex="1" parent="1">
          <mxGeometry x="920" y="3200" width="120" height="60" as="geometry" />
        </mxCell>
        <mxCell id="WmXlzH6n2CwPEO6YS7cP-199" style="edgeStyle=orthogonalEdgeStyle;rounded=0;orthogonalLoop=1;jettySize=auto;html=1;" edge="1" parent="1" source="WmXlzH6n2CwPEO6YS7cP-202" target="WmXlzH6n2CwPEO6YS7cP-204">
          <mxGeometry relative="1" as="geometry" />
        </mxCell>
        <mxCell id="WmXlzH6n2CwPEO6YS7cP-200" style="edgeStyle=orthogonalEdgeStyle;rounded=0;orthogonalLoop=1;jettySize=auto;html=1;" edge="1" parent="1" source="WmXlzH6n2CwPEO6YS7cP-202" target="WmXlzH6n2CwPEO6YS7cP-207">
          <mxGeometry relative="1" as="geometry" />
        </mxCell>
        <mxCell id="WmXlzH6n2CwPEO6YS7cP-201" value="default" style="edgeLabel;html=1;align=center;verticalAlign=middle;resizable=0;points=[];" vertex="1" connectable="0" parent="WmXlzH6n2CwPEO6YS7cP-200">
          <mxGeometry x="-0.2769" y="7" relative="1" as="geometry">
            <mxPoint y="-1" as="offset" />
          </mxGeometry>
        </mxCell>
        <mxCell id="WmXlzH6n2CwPEO6YS7cP-202" value="choice==7" style="rhombus;whiteSpace=wrap;html=1;" vertex="1" parent="1">
          <mxGeometry x="480" y="3820" width="80" height="80" as="geometry" />
        </mxCell>
        <mxCell id="WmXlzH6n2CwPEO6YS7cP-203" style="edgeStyle=orthogonalEdgeStyle;rounded=0;orthogonalLoop=1;jettySize=auto;html=1;" edge="1" parent="1" source="WmXlzH6n2CwPEO6YS7cP-204" target="WmXlzH6n2CwPEO6YS7cP-205">
          <mxGeometry relative="1" as="geometry" />
        </mxCell>
        <mxCell id="WmXlzH6n2CwPEO6YS7cP-204" value="end" style="shape=parallelogram;perimeter=parallelogramPerimeter;whiteSpace=wrap;html=1;fixedSize=1;" vertex="1" parent="1">
          <mxGeometry x="721" y="3830" width="120" height="60" as="geometry" />
        </mxCell>
        <mxCell id="WmXlzH6n2CwPEO6YS7cP-205" value="end" style="ellipse;whiteSpace=wrap;html=1;" vertex="1" parent="1">
          <mxGeometry x="1030" y="3830" width="120" height="80" as="geometry" />
        </mxCell>
        <mxCell id="WmXlzH6n2CwPEO6YS7cP-206" style="edgeStyle=orthogonalEdgeStyle;rounded=0;orthogonalLoop=1;jettySize=auto;html=1;entryX=1;entryY=0.5;entryDx=0;entryDy=0;" edge="1" parent="1" source="WmXlzH6n2CwPEO6YS7cP-207" target="WmXlzH6n2CwPEO6YS7cP-39">
          <mxGeometry relative="1" as="geometry">
            <Array as="points">
              <mxPoint x="2120" y="4070" />
              <mxPoint x="2120" y="1020" />
            </Array>
          </mxGeometry>
        </mxCell>
        <mxCell id="WmXlzH6n2CwPEO6YS7cP-207" value="nhap lai tu 1-7" style="whiteSpace=wrap;html=1;shape=parallelogram;perimeter=parallelogramPerimeter;fixedSize=1;" vertex="1" parent="1">
          <mxGeometry x="480" y="4030" width="190" height="80" as="geometry" />
        </mxCell>
      </root>
    </mxGraphModel>
  </diagram>
  <diagram id="phxyciJ4aDrldYIcAYae" name="Trang-6">
    <mxGraphModel dx="1614" dy="3544" grid="1" gridSize="10" guides="1" tooltips="1" connect="1" arrows="1" fold="1" page="1" pageScale="1" pageWidth="827" pageHeight="1169" math="0" shadow="0">
      <root>
        <mxCell id="0" />
        <mxCell id="1" parent="0" />
        <mxCell id="OZqDNf4CaY5WHfxMBCso-1" value="" style="edgeStyle=orthogonalEdgeStyle;rounded=0;orthogonalLoop=1;jettySize=auto;html=1;" edge="1" parent="1" source="OZqDNf4CaY5WHfxMBCso-2">
          <mxGeometry relative="1" as="geometry">
            <mxPoint x="414" y="240" as="targetPoint" />
          </mxGeometry>
        </mxCell>
        <mxCell id="OZqDNf4CaY5WHfxMBCso-2" value="start" style="ellipse;whiteSpace=wrap;html=1;" vertex="1" parent="1">
          <mxGeometry x="354" y="20" width="120" height="80" as="geometry" />
        </mxCell>
        <mxCell id="OZqDNf4CaY5WHfxMBCso-3" value="" style="edgeStyle=orthogonalEdgeStyle;rounded=0;orthogonalLoop=1;jettySize=auto;html=1;" edge="1" parent="1" source="OZqDNf4CaY5WHfxMBCso-4" target="OZqDNf4CaY5WHfxMBCso-8">
          <mxGeometry relative="1" as="geometry" />
        </mxCell>
        <mxCell id="OZqDNf4CaY5WHfxMBCso-4" value="increasea(int a[],int n)" style="ellipse;whiteSpace=wrap;html=1;" vertex="1" parent="1">
          <mxGeometry x="500" y="-280" width="120" height="80" as="geometry" />
        </mxCell>
        <mxCell id="OZqDNf4CaY5WHfxMBCso-5" style="edgeStyle=orthogonalEdgeStyle;rounded=0;orthogonalLoop=1;jettySize=auto;html=1;entryX=0;entryY=0.75;entryDx=0;entryDy=0;" edge="1" parent="1" source="OZqDNf4CaY5WHfxMBCso-6" target="OZqDNf4CaY5WHfxMBCso-31">
          <mxGeometry relative="1" as="geometry" />
        </mxCell>
        <mxCell id="OZqDNf4CaY5WHfxMBCso-6" value="decrease(int a[], int n)" style="ellipse;whiteSpace=wrap;html=1;" vertex="1" parent="1">
          <mxGeometry x="400" y="-960" width="220" height="90" as="geometry" />
        </mxCell>
        <mxCell id="OZqDNf4CaY5WHfxMBCso-7" value="" style="edgeStyle=orthogonalEdgeStyle;rounded=0;orthogonalLoop=1;jettySize=auto;html=1;" edge="1" parent="1" source="OZqDNf4CaY5WHfxMBCso-8" target="OZqDNf4CaY5WHfxMBCso-21">
          <mxGeometry relative="1" as="geometry">
            <mxPoint x="910" y="-240" as="targetPoint" />
          </mxGeometry>
        </mxCell>
        <mxCell id="OZqDNf4CaY5WHfxMBCso-8" value="int i=0,j=0;" style="whiteSpace=wrap;html=1;" vertex="1" parent="1">
          <mxGeometry x="700" y="-270" width="120" height="60" as="geometry" />
        </mxCell>
        <mxCell id="OZqDNf4CaY5WHfxMBCso-9" value="" style="edgeStyle=orthogonalEdgeStyle;rounded=0;orthogonalLoop=1;jettySize=auto;html=1;" edge="1" parent="1" source="OZqDNf4CaY5WHfxMBCso-13" target="OZqDNf4CaY5WHfxMBCso-15">
          <mxGeometry relative="1" as="geometry" />
        </mxCell>
        <mxCell id="OZqDNf4CaY5WHfxMBCso-10" value="true" style="edgeLabel;html=1;align=center;verticalAlign=middle;resizable=0;points=[];" vertex="1" connectable="0" parent="OZqDNf4CaY5WHfxMBCso-9">
          <mxGeometry y="-2" relative="1" as="geometry">
            <mxPoint as="offset" />
          </mxGeometry>
        </mxCell>
        <mxCell id="OZqDNf4CaY5WHfxMBCso-11" value="" style="edgeStyle=orthogonalEdgeStyle;rounded=0;orthogonalLoop=1;jettySize=auto;html=1;" edge="1" parent="1" source="OZqDNf4CaY5WHfxMBCso-13" target="OZqDNf4CaY5WHfxMBCso-17">
          <mxGeometry relative="1" as="geometry" />
        </mxCell>
        <mxCell id="OZqDNf4CaY5WHfxMBCso-12" value="false" style="edgeLabel;html=1;align=center;verticalAlign=middle;resizable=0;points=[];" vertex="1" connectable="0" parent="OZqDNf4CaY5WHfxMBCso-11">
          <mxGeometry x="0.0222" relative="1" as="geometry">
            <mxPoint as="offset" />
          </mxGeometry>
        </mxCell>
        <mxCell id="OZqDNf4CaY5WHfxMBCso-13" value="a[j] &amp;lt; a[j + 1" style="rhombus;whiteSpace=wrap;html=1;" vertex="1" parent="1">
          <mxGeometry x="1260" y="-280" width="120" height="80" as="geometry" />
        </mxCell>
        <mxCell id="OZqDNf4CaY5WHfxMBCso-14" style="edgeStyle=orthogonalEdgeStyle;rounded=0;orthogonalLoop=1;jettySize=auto;html=1;entryX=1;entryY=0.5;entryDx=0;entryDy=0;" edge="1" parent="1" source="OZqDNf4CaY5WHfxMBCso-15" target="OZqDNf4CaY5WHfxMBCso-17">
          <mxGeometry relative="1" as="geometry">
            <mxPoint x="1545" y="-50" as="targetPoint" />
            <Array as="points">
              <mxPoint x="1545" y="-130" />
              <mxPoint x="1546" y="-130" />
              <mxPoint x="1546" y="-80" />
            </Array>
          </mxGeometry>
        </mxCell>
        <mxCell id="OZqDNf4CaY5WHfxMBCso-15" value="&lt;font face=&quot;Consolas, Courier New, monospace&quot; color=&quot;#569cd6&quot;&gt;int temp = a[j] a[j] = a[j + 1] a[j + 1] = temp&lt;/font&gt;" style="whiteSpace=wrap;html=1;" vertex="1" parent="1">
          <mxGeometry x="1460" y="-270" width="170" height="60" as="geometry" />
        </mxCell>
        <mxCell id="OZqDNf4CaY5WHfxMBCso-16" style="edgeStyle=orthogonalEdgeStyle;rounded=0;orthogonalLoop=1;jettySize=auto;html=1;" edge="1" parent="1" source="OZqDNf4CaY5WHfxMBCso-17">
          <mxGeometry relative="1" as="geometry">
            <mxPoint x="1000" y="-240" as="targetPoint" />
          </mxGeometry>
        </mxCell>
        <mxCell id="OZqDNf4CaY5WHfxMBCso-17" value="j++" style="whiteSpace=wrap;html=1;" vertex="1" parent="1">
          <mxGeometry x="1260" y="-110" width="120" height="60" as="geometry" />
        </mxCell>
        <mxCell id="OZqDNf4CaY5WHfxMBCso-18" value="" style="edgeStyle=orthogonalEdgeStyle;rounded=0;orthogonalLoop=1;jettySize=auto;html=1;" edge="1" parent="1" source="OZqDNf4CaY5WHfxMBCso-21" target="OZqDNf4CaY5WHfxMBCso-24">
          <mxGeometry relative="1" as="geometry" />
        </mxCell>
        <mxCell id="OZqDNf4CaY5WHfxMBCso-19" value="true" style="edgeLabel;html=1;align=center;verticalAlign=middle;resizable=0;points=[];" vertex="1" connectable="0" parent="OZqDNf4CaY5WHfxMBCso-18">
          <mxGeometry x="-0.225" relative="1" as="geometry">
            <mxPoint as="offset" />
          </mxGeometry>
        </mxCell>
        <mxCell id="OZqDNf4CaY5WHfxMBCso-20" value="" style="edgeStyle=orthogonalEdgeStyle;rounded=0;orthogonalLoop=1;jettySize=auto;html=1;" edge="1" parent="1" source="OZqDNf4CaY5WHfxMBCso-21" target="OZqDNf4CaY5WHfxMBCso-27">
          <mxGeometry relative="1" as="geometry" />
        </mxCell>
        <mxCell id="OZqDNf4CaY5WHfxMBCso-21" value="i &amp;lt; n - 1" style="rhombus;whiteSpace=wrap;html=1;" vertex="1" parent="1">
          <mxGeometry x="870" y="-280" width="80" height="80" as="geometry" />
        </mxCell>
        <mxCell id="OZqDNf4CaY5WHfxMBCso-22" value="true" style="edgeStyle=orthogonalEdgeStyle;rounded=0;orthogonalLoop=1;jettySize=auto;html=1;entryX=0;entryY=0.5;entryDx=0;entryDy=0;" edge="1" parent="1" source="OZqDNf4CaY5WHfxMBCso-24" target="OZqDNf4CaY5WHfxMBCso-13">
          <mxGeometry relative="1" as="geometry" />
        </mxCell>
        <mxCell id="OZqDNf4CaY5WHfxMBCso-23" value="false" style="edgeStyle=orthogonalEdgeStyle;rounded=0;orthogonalLoop=1;jettySize=auto;html=1;" edge="1" parent="1" source="OZqDNf4CaY5WHfxMBCso-24" target="OZqDNf4CaY5WHfxMBCso-26">
          <mxGeometry relative="1" as="geometry" />
        </mxCell>
        <mxCell id="OZqDNf4CaY5WHfxMBCso-24" value="j &amp;lt; n - i - 1" style="rhombus;whiteSpace=wrap;html=1;" vertex="1" parent="1">
          <mxGeometry x="1030" y="-280" width="130" height="80" as="geometry" />
        </mxCell>
        <mxCell id="OZqDNf4CaY5WHfxMBCso-25" style="edgeStyle=orthogonalEdgeStyle;rounded=0;orthogonalLoop=1;jettySize=auto;html=1;" edge="1" parent="1" source="OZqDNf4CaY5WHfxMBCso-26">
          <mxGeometry relative="1" as="geometry">
            <mxPoint x="850" y="-240" as="targetPoint" />
          </mxGeometry>
        </mxCell>
        <mxCell id="OZqDNf4CaY5WHfxMBCso-26" value="i++" style="whiteSpace=wrap;html=1;" vertex="1" parent="1">
          <mxGeometry x="1035" y="-430" width="120" height="60" as="geometry" />
        </mxCell>
        <mxCell id="OZqDNf4CaY5WHfxMBCso-27" value="a[i]" style="shape=parallelogram;perimeter=parallelogramPerimeter;whiteSpace=wrap;html=1;fixedSize=1;" vertex="1" parent="1">
          <mxGeometry x="850" y="110" width="120" height="60" as="geometry" />
        </mxCell>
        <mxCell id="OZqDNf4CaY5WHfxMBCso-28" value="" style="edgeStyle=orthogonalEdgeStyle;rounded=0;orthogonalLoop=1;jettySize=auto;html=1;" edge="1" parent="1" target="OZqDNf4CaY5WHfxMBCso-52">
          <mxGeometry relative="1" as="geometry">
            <mxPoint x="414" y="519.9999999999995" as="targetPoint" />
            <mxPoint x="414" y="400" as="sourcePoint" />
          </mxGeometry>
        </mxCell>
        <mxCell id="OZqDNf4CaY5WHfxMBCso-30" value="" style="edgeStyle=orthogonalEdgeStyle;rounded=0;orthogonalLoop=1;jettySize=auto;html=1;" edge="1" parent="1" source="OZqDNf4CaY5WHfxMBCso-31" target="OZqDNf4CaY5WHfxMBCso-44">
          <mxGeometry relative="1" as="geometry">
            <mxPoint x="900" y="-1020" as="targetPoint" />
          </mxGeometry>
        </mxCell>
        <mxCell id="OZqDNf4CaY5WHfxMBCso-31" value="int i=0,j=0;" style="whiteSpace=wrap;html=1;" vertex="1" parent="1">
          <mxGeometry x="690" y="-1050" width="120" height="60" as="geometry" />
        </mxCell>
        <mxCell id="OZqDNf4CaY5WHfxMBCso-32" value="" style="edgeStyle=orthogonalEdgeStyle;rounded=0;orthogonalLoop=1;jettySize=auto;html=1;" edge="1" parent="1" source="OZqDNf4CaY5WHfxMBCso-36" target="OZqDNf4CaY5WHfxMBCso-38">
          <mxGeometry relative="1" as="geometry" />
        </mxCell>
        <mxCell id="OZqDNf4CaY5WHfxMBCso-33" value="true" style="edgeLabel;html=1;align=center;verticalAlign=middle;resizable=0;points=[];" vertex="1" connectable="0" parent="OZqDNf4CaY5WHfxMBCso-32">
          <mxGeometry y="-2" relative="1" as="geometry">
            <mxPoint as="offset" />
          </mxGeometry>
        </mxCell>
        <mxCell id="OZqDNf4CaY5WHfxMBCso-34" value="" style="edgeStyle=orthogonalEdgeStyle;rounded=0;orthogonalLoop=1;jettySize=auto;html=1;" edge="1" parent="1" source="OZqDNf4CaY5WHfxMBCso-36" target="OZqDNf4CaY5WHfxMBCso-40">
          <mxGeometry relative="1" as="geometry" />
        </mxCell>
        <mxCell id="OZqDNf4CaY5WHfxMBCso-35" value="false" style="edgeLabel;html=1;align=center;verticalAlign=middle;resizable=0;points=[];" vertex="1" connectable="0" parent="OZqDNf4CaY5WHfxMBCso-34">
          <mxGeometry x="0.0222" relative="1" as="geometry">
            <mxPoint as="offset" />
          </mxGeometry>
        </mxCell>
        <mxCell id="OZqDNf4CaY5WHfxMBCso-36" value="a[j] &amp;gt; a[j + 1" style="rhombus;whiteSpace=wrap;html=1;" vertex="1" parent="1">
          <mxGeometry x="1250" y="-1060" width="120" height="80" as="geometry" />
        </mxCell>
        <mxCell id="OZqDNf4CaY5WHfxMBCso-37" style="edgeStyle=orthogonalEdgeStyle;rounded=0;orthogonalLoop=1;jettySize=auto;html=1;entryX=1;entryY=0.5;entryDx=0;entryDy=0;" edge="1" parent="1" source="OZqDNf4CaY5WHfxMBCso-38" target="OZqDNf4CaY5WHfxMBCso-40">
          <mxGeometry relative="1" as="geometry">
            <mxPoint x="1535" y="-830" as="targetPoint" />
            <Array as="points">
              <mxPoint x="1535" y="-910" />
              <mxPoint x="1536" y="-910" />
              <mxPoint x="1536" y="-860" />
            </Array>
          </mxGeometry>
        </mxCell>
        <mxCell id="OZqDNf4CaY5WHfxMBCso-38" value="int temp = a[j] a[j] = a[j + 1] a[j + 1] = temp" style="whiteSpace=wrap;html=1;" vertex="1" parent="1">
          <mxGeometry x="1450" y="-1050" width="170" height="60" as="geometry" />
        </mxCell>
        <mxCell id="OZqDNf4CaY5WHfxMBCso-39" style="edgeStyle=orthogonalEdgeStyle;rounded=0;orthogonalLoop=1;jettySize=auto;html=1;" edge="1" parent="1" source="OZqDNf4CaY5WHfxMBCso-40">
          <mxGeometry relative="1" as="geometry">
            <mxPoint x="990" y="-1020" as="targetPoint" />
          </mxGeometry>
        </mxCell>
        <mxCell id="OZqDNf4CaY5WHfxMBCso-40" value="j++" style="whiteSpace=wrap;html=1;" vertex="1" parent="1">
          <mxGeometry x="1250" y="-890" width="120" height="60" as="geometry" />
        </mxCell>
        <mxCell id="OZqDNf4CaY5WHfxMBCso-41" value="" style="edgeStyle=orthogonalEdgeStyle;rounded=0;orthogonalLoop=1;jettySize=auto;html=1;" edge="1" parent="1" source="OZqDNf4CaY5WHfxMBCso-44" target="OZqDNf4CaY5WHfxMBCso-47">
          <mxGeometry relative="1" as="geometry" />
        </mxCell>
        <mxCell id="OZqDNf4CaY5WHfxMBCso-42" value="true" style="edgeLabel;html=1;align=center;verticalAlign=middle;resizable=0;points=[];" vertex="1" connectable="0" parent="OZqDNf4CaY5WHfxMBCso-41">
          <mxGeometry x="-0.225" relative="1" as="geometry">
            <mxPoint as="offset" />
          </mxGeometry>
        </mxCell>
        <mxCell id="OZqDNf4CaY5WHfxMBCso-43" value="" style="edgeStyle=orthogonalEdgeStyle;rounded=0;orthogonalLoop=1;jettySize=auto;html=1;" edge="1" parent="1" source="OZqDNf4CaY5WHfxMBCso-44" target="OZqDNf4CaY5WHfxMBCso-50">
          <mxGeometry relative="1" as="geometry" />
        </mxCell>
        <mxCell id="OZqDNf4CaY5WHfxMBCso-44" value="i &amp;lt; n - 1" style="rhombus;whiteSpace=wrap;html=1;" vertex="1" parent="1">
          <mxGeometry x="860" y="-1060" width="80" height="80" as="geometry" />
        </mxCell>
        <mxCell id="OZqDNf4CaY5WHfxMBCso-45" value="true" style="edgeStyle=orthogonalEdgeStyle;rounded=0;orthogonalLoop=1;jettySize=auto;html=1;entryX=0;entryY=0.5;entryDx=0;entryDy=0;" edge="1" parent="1" source="OZqDNf4CaY5WHfxMBCso-47" target="OZqDNf4CaY5WHfxMBCso-36">
          <mxGeometry relative="1" as="geometry" />
        </mxCell>
        <mxCell id="OZqDNf4CaY5WHfxMBCso-46" value="false" style="edgeStyle=orthogonalEdgeStyle;rounded=0;orthogonalLoop=1;jettySize=auto;html=1;" edge="1" parent="1" source="OZqDNf4CaY5WHfxMBCso-47" target="OZqDNf4CaY5WHfxMBCso-49">
          <mxGeometry relative="1" as="geometry" />
        </mxCell>
        <mxCell id="OZqDNf4CaY5WHfxMBCso-47" value="j &amp;lt; n - i - 1" style="rhombus;whiteSpace=wrap;html=1;" vertex="1" parent="1">
          <mxGeometry x="1020" y="-1060" width="130" height="80" as="geometry" />
        </mxCell>
        <mxCell id="OZqDNf4CaY5WHfxMBCso-48" style="edgeStyle=orthogonalEdgeStyle;rounded=0;orthogonalLoop=1;jettySize=auto;html=1;" edge="1" parent="1" source="OZqDNf4CaY5WHfxMBCso-49">
          <mxGeometry relative="1" as="geometry">
            <mxPoint x="840" y="-1020" as="targetPoint" />
          </mxGeometry>
        </mxCell>
        <mxCell id="OZqDNf4CaY5WHfxMBCso-49" value="i++" style="whiteSpace=wrap;html=1;" vertex="1" parent="1">
          <mxGeometry x="1025" y="-1210" width="120" height="60" as="geometry" />
        </mxCell>
        <mxCell id="OZqDNf4CaY5WHfxMBCso-50" value="a[i]" style="shape=parallelogram;perimeter=parallelogramPerimeter;whiteSpace=wrap;html=1;fixedSize=1;" vertex="1" parent="1">
          <mxGeometry x="840" y="-670" width="120" height="60" as="geometry" />
        </mxCell>
        <mxCell id="OZqDNf4CaY5WHfxMBCso-51" value="" style="edgeStyle=orthogonalEdgeStyle;rounded=0;orthogonalLoop=1;jettySize=auto;html=1;" edge="1" parent="1" source="OZqDNf4CaY5WHfxMBCso-52" target="OZqDNf4CaY5WHfxMBCso-54">
          <mxGeometry relative="1" as="geometry" />
        </mxCell>
        <mxCell id="OZqDNf4CaY5WHfxMBCso-52" value="choice" style="shape=parallelogram;perimeter=parallelogramPerimeter;whiteSpace=wrap;html=1;fixedSize=1;" vertex="1" parent="1">
          <mxGeometry x="354" y="489.99999999999955" width="120" height="60" as="geometry" />
        </mxCell>
        <mxCell id="OZqDNf4CaY5WHfxMBCso-53" value="" style="edgeStyle=orthogonalEdgeStyle;rounded=0;orthogonalLoop=1;jettySize=auto;html=1;" edge="1" parent="1" source="OZqDNf4CaY5WHfxMBCso-54" target="OZqDNf4CaY5WHfxMBCso-76">
          <mxGeometry relative="1" as="geometry" />
        </mxCell>
        <mxCell id="OZqDNf4CaY5WHfxMBCso-54" value="choice==1" style="rhombus;whiteSpace=wrap;html=1;" vertex="1" parent="1">
          <mxGeometry x="374" y="619.9999999999995" width="80" height="80" as="geometry" />
        </mxCell>
        <mxCell id="OZqDNf4CaY5WHfxMBCso-55" value="" style="edgeStyle=orthogonalEdgeStyle;rounded=0;orthogonalLoop=1;jettySize=auto;html=1;exitX=0.5;exitY=1;exitDx=0;exitDy=0;" edge="1" parent="1" source="OZqDNf4CaY5WHfxMBCso-54" target="OZqDNf4CaY5WHfxMBCso-58">
          <mxGeometry relative="1" as="geometry">
            <mxPoint x="414" y="700" as="sourcePoint" />
          </mxGeometry>
        </mxCell>
        <mxCell id="OZqDNf4CaY5WHfxMBCso-56" value="false" style="edgeLabel;html=1;align=center;verticalAlign=middle;resizable=0;points=[];" vertex="1" connectable="0" parent="OZqDNf4CaY5WHfxMBCso-55">
          <mxGeometry x="0.0449" relative="1" as="geometry">
            <mxPoint y="-1" as="offset" />
          </mxGeometry>
        </mxCell>
        <mxCell id="OZqDNf4CaY5WHfxMBCso-57" style="edgeStyle=orthogonalEdgeStyle;rounded=0;orthogonalLoop=1;jettySize=auto;html=1;" edge="1" parent="1" source="OZqDNf4CaY5WHfxMBCso-58" target="OZqDNf4CaY5WHfxMBCso-86">
          <mxGeometry relative="1" as="geometry" />
        </mxCell>
        <mxCell id="OZqDNf4CaY5WHfxMBCso-58" value="choice==2" style="rhombus;whiteSpace=wrap;html=1;" vertex="1" parent="1">
          <mxGeometry x="374" y="959.9999999999995" width="80" height="80" as="geometry" />
        </mxCell>
        <mxCell id="OZqDNf4CaY5WHfxMBCso-59" value="" style="edgeStyle=orthogonalEdgeStyle;rounded=0;orthogonalLoop=1;jettySize=auto;html=1;exitX=0.5;exitY=1;exitDx=0;exitDy=0;" edge="1" parent="1" source="OZqDNf4CaY5WHfxMBCso-58" target="OZqDNf4CaY5WHfxMBCso-61">
          <mxGeometry relative="1" as="geometry">
            <mxPoint x="414" y="1070" as="sourcePoint" />
          </mxGeometry>
        </mxCell>
        <mxCell id="OZqDNf4CaY5WHfxMBCso-60" value="" style="edgeStyle=orthogonalEdgeStyle;rounded=0;orthogonalLoop=1;jettySize=auto;html=1;" edge="1" parent="1" source="OZqDNf4CaY5WHfxMBCso-61" target="OZqDNf4CaY5WHfxMBCso-94">
          <mxGeometry relative="1" as="geometry" />
        </mxCell>
        <mxCell id="OZqDNf4CaY5WHfxMBCso-61" value="choice==3" style="rhombus;whiteSpace=wrap;html=1;" vertex="1" parent="1">
          <mxGeometry x="374" y="1349.9999999999995" width="80" height="80" as="geometry" />
        </mxCell>
        <mxCell id="OZqDNf4CaY5WHfxMBCso-62" value="" style="edgeStyle=orthogonalEdgeStyle;rounded=0;orthogonalLoop=1;jettySize=auto;html=1;exitX=0.5;exitY=1;exitDx=0;exitDy=0;" edge="1" parent="1" source="OZqDNf4CaY5WHfxMBCso-61" target="OZqDNf4CaY5WHfxMBCso-64">
          <mxGeometry relative="1" as="geometry">
            <mxPoint x="414" y="1500" as="sourcePoint" />
          </mxGeometry>
        </mxCell>
        <mxCell id="OZqDNf4CaY5WHfxMBCso-63" value="" style="edgeStyle=orthogonalEdgeStyle;rounded=0;orthogonalLoop=1;jettySize=auto;html=1;" edge="1" parent="1" source="OZqDNf4CaY5WHfxMBCso-64" target="OZqDNf4CaY5WHfxMBCso-116">
          <mxGeometry relative="1" as="geometry" />
        </mxCell>
        <mxCell id="OZqDNf4CaY5WHfxMBCso-64" value="choice==4" style="rhombus;whiteSpace=wrap;html=1;" vertex="1" parent="1">
          <mxGeometry x="373" y="1749.9999999999995" width="80" height="80" as="geometry" />
        </mxCell>
        <mxCell id="OZqDNf4CaY5WHfxMBCso-65" value="" style="edgeStyle=orthogonalEdgeStyle;rounded=0;orthogonalLoop=1;jettySize=auto;html=1;exitX=0.5;exitY=1;exitDx=0;exitDy=0;" edge="1" parent="1" source="OZqDNf4CaY5WHfxMBCso-64" target="OZqDNf4CaY5WHfxMBCso-67">
          <mxGeometry relative="1" as="geometry">
            <mxPoint x="413" y="1870" as="sourcePoint" />
          </mxGeometry>
        </mxCell>
        <mxCell id="OZqDNf4CaY5WHfxMBCso-66" value="" style="edgeStyle=orthogonalEdgeStyle;rounded=0;orthogonalLoop=1;jettySize=auto;html=1;" edge="1" parent="1" source="OZqDNf4CaY5WHfxMBCso-67" target="OZqDNf4CaY5WHfxMBCso-119">
          <mxGeometry relative="1" as="geometry" />
        </mxCell>
        <mxCell id="OZqDNf4CaY5WHfxMBCso-67" value="choice==5" style="rhombus;whiteSpace=wrap;html=1;" vertex="1" parent="1">
          <mxGeometry x="373" y="2129.9999999999995" width="80" height="80" as="geometry" />
        </mxCell>
        <mxCell id="OZqDNf4CaY5WHfxMBCso-68" value="false" style="edgeLabel;html=1;align=center;verticalAlign=middle;resizable=0;points=[];" vertex="1" connectable="0" parent="1">
          <mxGeometry x="424" y="1330.0028571428575" as="geometry">
            <mxPoint x="-10" y="150" as="offset" />
          </mxGeometry>
        </mxCell>
        <mxCell id="OZqDNf4CaY5WHfxMBCso-69" value="false" style="edgeLabel;html=1;align=center;verticalAlign=middle;resizable=0;points=[];" vertex="1" connectable="0" parent="1">
          <mxGeometry x="320" y="770.0028571428574" as="geometry">
            <mxPoint x="89" y="307" as="offset" />
          </mxGeometry>
        </mxCell>
        <mxCell id="OZqDNf4CaY5WHfxMBCso-70" value="false" style="edgeLabel;html=1;align=center;verticalAlign=middle;resizable=0;points=[];" vertex="1" connectable="0" parent="1">
          <mxGeometry x="320" y="1580.0028571428575" as="geometry">
            <mxPoint x="89" y="307" as="offset" />
          </mxGeometry>
        </mxCell>
        <mxCell id="OZqDNf4CaY5WHfxMBCso-71" value="" style="edgeStyle=orthogonalEdgeStyle;rounded=0;orthogonalLoop=1;jettySize=auto;html=1;exitX=0.5;exitY=1;exitDx=0;exitDy=0;" edge="1" parent="1" source="OZqDNf4CaY5WHfxMBCso-67" target="OZqDNf4CaY5WHfxMBCso-74">
          <mxGeometry relative="1" as="geometry">
            <mxPoint x="413" y="2220" as="sourcePoint" />
          </mxGeometry>
        </mxCell>
        <mxCell id="OZqDNf4CaY5WHfxMBCso-72" style="edgeStyle=orthogonalEdgeStyle;rounded=0;orthogonalLoop=1;jettySize=auto;html=1;" edge="1" parent="1" source="OZqDNf4CaY5WHfxMBCso-74" target="OZqDNf4CaY5WHfxMBCso-128">
          <mxGeometry relative="1" as="geometry" />
        </mxCell>
        <mxCell id="OZqDNf4CaY5WHfxMBCso-73" value="" style="edgeStyle=orthogonalEdgeStyle;rounded=0;orthogonalLoop=1;jettySize=auto;html=1;" edge="1" parent="1" source="OZqDNf4CaY5WHfxMBCso-74" target="OZqDNf4CaY5WHfxMBCso-139">
          <mxGeometry relative="1" as="geometry" />
        </mxCell>
        <mxCell id="OZqDNf4CaY5WHfxMBCso-74" value="choice==6" style="rhombus;whiteSpace=wrap;html=1;" vertex="1" parent="1">
          <mxGeometry x="373" y="2801.9999999999995" width="80" height="80" as="geometry" />
        </mxCell>
        <mxCell id="OZqDNf4CaY5WHfxMBCso-75" value="" style="edgeStyle=orthogonalEdgeStyle;rounded=0;orthogonalLoop=1;jettySize=auto;html=1;" edge="1" parent="1" source="OZqDNf4CaY5WHfxMBCso-76" target="OZqDNf4CaY5WHfxMBCso-79">
          <mxGeometry relative="1" as="geometry" />
        </mxCell>
        <mxCell id="OZqDNf4CaY5WHfxMBCso-76" value="n&lt;br&gt;i=0" style="shape=parallelogram;perimeter=parallelogramPerimeter;whiteSpace=wrap;html=1;fixedSize=1;" vertex="1" parent="1">
          <mxGeometry x="514" y="629.9999999999995" width="120" height="60" as="geometry" />
        </mxCell>
        <mxCell id="OZqDNf4CaY5WHfxMBCso-77" value="" style="edgeStyle=orthogonalEdgeStyle;rounded=0;orthogonalLoop=1;jettySize=auto;html=1;" edge="1" parent="1" source="OZqDNf4CaY5WHfxMBCso-79" target="OZqDNf4CaY5WHfxMBCso-81">
          <mxGeometry relative="1" as="geometry" />
        </mxCell>
        <mxCell id="OZqDNf4CaY5WHfxMBCso-78" style="edgeStyle=orthogonalEdgeStyle;rounded=0;orthogonalLoop=1;jettySize=auto;html=1;" edge="1" parent="1" source="OZqDNf4CaY5WHfxMBCso-79">
          <mxGeometry relative="1" as="geometry">
            <mxPoint x="420" y="450" as="targetPoint" />
            <Array as="points">
              <mxPoint x="775" y="790" />
              <mxPoint x="1670" y="790" />
              <mxPoint x="1670" y="180" />
              <mxPoint x="630" y="180" />
              <mxPoint x="630" y="450" />
            </Array>
          </mxGeometry>
        </mxCell>
        <mxCell id="OZqDNf4CaY5WHfxMBCso-79" value="i&amp;lt;n" style="rhombus;whiteSpace=wrap;html=1;" vertex="1" parent="1">
          <mxGeometry x="734" y="619.9999999999995" width="80" height="80" as="geometry" />
        </mxCell>
        <mxCell id="OZqDNf4CaY5WHfxMBCso-80" value="" style="edgeStyle=orthogonalEdgeStyle;rounded=0;orthogonalLoop=1;jettySize=auto;html=1;" edge="1" parent="1" source="OZqDNf4CaY5WHfxMBCso-81" target="OZqDNf4CaY5WHfxMBCso-83">
          <mxGeometry relative="1" as="geometry" />
        </mxCell>
        <mxCell id="OZqDNf4CaY5WHfxMBCso-81" value="a[i]&lt;br&gt;current++" style="shape=parallelogram;perimeter=parallelogramPerimeter;whiteSpace=wrap;html=1;fixedSize=1;" vertex="1" parent="1">
          <mxGeometry x="874" y="629.9999999999995" width="120" height="60" as="geometry" />
        </mxCell>
        <mxCell id="OZqDNf4CaY5WHfxMBCso-82" style="edgeStyle=orthogonalEdgeStyle;rounded=0;orthogonalLoop=1;jettySize=auto;html=1;" edge="1" parent="1" source="OZqDNf4CaY5WHfxMBCso-83">
          <mxGeometry relative="1" as="geometry">
            <mxPoint x="690" y="650" as="targetPoint" />
            <Array as="points">
              <mxPoint x="1134" y="511" />
              <mxPoint x="1130" y="511" />
              <mxPoint x="1130" y="500" />
              <mxPoint x="690" y="500" />
            </Array>
          </mxGeometry>
        </mxCell>
        <mxCell id="OZqDNf4CaY5WHfxMBCso-83" value="i++" style="whiteSpace=wrap;html=1;" vertex="1" parent="1">
          <mxGeometry x="1074" y="629.9999999999995" width="120" height="60" as="geometry" />
        </mxCell>
        <mxCell id="OZqDNf4CaY5WHfxMBCso-84" value="" style="edgeStyle=orthogonalEdgeStyle;rounded=0;orthogonalLoop=1;jettySize=auto;html=1;" edge="1" parent="1" source="OZqDNf4CaY5WHfxMBCso-86" target="OZqDNf4CaY5WHfxMBCso-88">
          <mxGeometry relative="1" as="geometry" />
        </mxCell>
        <mxCell id="OZqDNf4CaY5WHfxMBCso-85" style="edgeStyle=orthogonalEdgeStyle;rounded=0;orthogonalLoop=1;jettySize=auto;html=1;" edge="1" parent="1" source="OZqDNf4CaY5WHfxMBCso-86">
          <mxGeometry relative="1" as="geometry">
            <mxPoint x="1670" y="740" as="targetPoint" />
            <Array as="points">
              <mxPoint x="580" y="1170" />
              <mxPoint x="1670" y="1170" />
            </Array>
          </mxGeometry>
        </mxCell>
        <mxCell id="OZqDNf4CaY5WHfxMBCso-86" value="n&lt;br&gt;i=0" style="shape=parallelogram;perimeter=parallelogramPerimeter;whiteSpace=wrap;html=1;fixedSize=1;" vertex="1" parent="1">
          <mxGeometry x="520" y="979.9999999999995" width="120" height="60" as="geometry" />
        </mxCell>
        <mxCell id="OZqDNf4CaY5WHfxMBCso-87" value="" style="edgeStyle=orthogonalEdgeStyle;rounded=0;orthogonalLoop=1;jettySize=auto;html=1;" edge="1" parent="1" source="OZqDNf4CaY5WHfxMBCso-88" target="OZqDNf4CaY5WHfxMBCso-90">
          <mxGeometry relative="1" as="geometry" />
        </mxCell>
        <mxCell id="OZqDNf4CaY5WHfxMBCso-88" value="i&amp;lt;n" style="rhombus;whiteSpace=wrap;html=1;" vertex="1" parent="1">
          <mxGeometry x="740" y="969.9999999999995" width="80" height="80" as="geometry" />
        </mxCell>
        <mxCell id="OZqDNf4CaY5WHfxMBCso-89" value="" style="edgeStyle=orthogonalEdgeStyle;rounded=0;orthogonalLoop=1;jettySize=auto;html=1;" edge="1" parent="1" source="OZqDNf4CaY5WHfxMBCso-90" target="OZqDNf4CaY5WHfxMBCso-92">
          <mxGeometry relative="1" as="geometry" />
        </mxCell>
        <mxCell id="OZqDNf4CaY5WHfxMBCso-90" value="a[i]" style="shape=parallelogram;perimeter=parallelogramPerimeter;whiteSpace=wrap;html=1;fixedSize=1;" vertex="1" parent="1">
          <mxGeometry x="880" y="979.9999999999995" width="120" height="60" as="geometry" />
        </mxCell>
        <mxCell id="OZqDNf4CaY5WHfxMBCso-91" style="edgeStyle=orthogonalEdgeStyle;rounded=0;orthogonalLoop=1;jettySize=auto;html=1;" edge="1" parent="1" source="OZqDNf4CaY5WHfxMBCso-92">
          <mxGeometry relative="1" as="geometry">
            <mxPoint x="696" y="1000" as="targetPoint" />
            <Array as="points">
              <mxPoint x="1140" y="861" />
              <mxPoint x="1136" y="861" />
              <mxPoint x="1136" y="850" />
              <mxPoint x="696" y="850" />
            </Array>
          </mxGeometry>
        </mxCell>
        <mxCell id="OZqDNf4CaY5WHfxMBCso-92" value="i++" style="whiteSpace=wrap;html=1;" vertex="1" parent="1">
          <mxGeometry x="1080" y="979.9999999999995" width="120" height="60" as="geometry" />
        </mxCell>
        <mxCell id="OZqDNf4CaY5WHfxMBCso-93" value="" style="edgeStyle=orthogonalEdgeStyle;rounded=0;orthogonalLoop=1;jettySize=auto;html=1;" edge="1" parent="1" source="OZqDNf4CaY5WHfxMBCso-94" target="OZqDNf4CaY5WHfxMBCso-97">
          <mxGeometry relative="1" as="geometry" />
        </mxCell>
        <mxCell id="OZqDNf4CaY5WHfxMBCso-94" value="add_valueadd_index" style="shape=parallelogram;perimeter=parallelogramPerimeter;whiteSpace=wrap;html=1;fixedSize=1;" vertex="1" parent="1">
          <mxGeometry x="530" y="1340" width="176" height="100" as="geometry" />
        </mxCell>
        <mxCell id="OZqDNf4CaY5WHfxMBCso-95" value="" style="edgeStyle=orthogonalEdgeStyle;rounded=0;orthogonalLoop=1;jettySize=auto;html=1;" edge="1" parent="1" source="OZqDNf4CaY5WHfxMBCso-97" target="OZqDNf4CaY5WHfxMBCso-99">
          <mxGeometry relative="1" as="geometry" />
        </mxCell>
        <mxCell id="OZqDNf4CaY5WHfxMBCso-96" value="" style="edgeStyle=orthogonalEdgeStyle;rounded=0;orthogonalLoop=1;jettySize=auto;html=1;" edge="1" parent="1" source="OZqDNf4CaY5WHfxMBCso-97" target="OZqDNf4CaY5WHfxMBCso-114">
          <mxGeometry relative="1" as="geometry" />
        </mxCell>
        <mxCell id="OZqDNf4CaY5WHfxMBCso-97" value="&#xa;&lt;div style=&quot;color: rgb(212, 212, 212); background-color: rgb(30, 30, 30); font-family: Consolas, &amp;quot;Courier New&amp;quot;, monospace; font-weight: normal; font-size: 14px; line-height: 19px;&quot;&gt;&lt;div&gt;&lt;span style=&quot;color: #c8c8c8;&quot;&gt;add_index&lt;/span&gt;&lt;span style=&quot;color: #d4d4d4;&quot;&gt; &amp;lt; &lt;/span&gt;&lt;span style=&quot;color: #c8c8c8;&quot;&gt;current&lt;/span&gt;&lt;/div&gt;&lt;/div&gt;&#xa;&#xa;" style="rhombus;whiteSpace=wrap;html=1;" vertex="1" parent="1">
          <mxGeometry x="839" y="1330" width="186" height="120" as="geometry" />
        </mxCell>
        <mxCell id="OZqDNf4CaY5WHfxMBCso-98" value="" style="edgeStyle=orthogonalEdgeStyle;rounded=0;orthogonalLoop=1;jettySize=auto;html=1;" edge="1" parent="1" source="OZqDNf4CaY5WHfxMBCso-99" target="OZqDNf4CaY5WHfxMBCso-102">
          <mxGeometry relative="1" as="geometry" />
        </mxCell>
        <mxCell id="OZqDNf4CaY5WHfxMBCso-99" value="i=0" style="whiteSpace=wrap;html=1;" vertex="1" parent="1">
          <mxGeometry x="1138" y="1360" width="120" height="60" as="geometry" />
        </mxCell>
        <mxCell id="OZqDNf4CaY5WHfxMBCso-100" value="" style="edgeStyle=orthogonalEdgeStyle;rounded=0;orthogonalLoop=1;jettySize=auto;html=1;" edge="1" parent="1" source="OZqDNf4CaY5WHfxMBCso-102" target="OZqDNf4CaY5WHfxMBCso-104">
          <mxGeometry relative="1" as="geometry" />
        </mxCell>
        <mxCell id="OZqDNf4CaY5WHfxMBCso-101" value="" style="edgeStyle=orthogonalEdgeStyle;rounded=0;orthogonalLoop=1;jettySize=auto;html=1;" edge="1" parent="1" source="OZqDNf4CaY5WHfxMBCso-102" target="OZqDNf4CaY5WHfxMBCso-112">
          <mxGeometry relative="1" as="geometry" />
        </mxCell>
        <mxCell id="OZqDNf4CaY5WHfxMBCso-102" value="&#xa;&lt;div style=&quot;color: rgb(212, 212, 212); background-color: rgb(30, 30, 30); font-family: Consolas, &amp;quot;Courier New&amp;quot;, monospace; font-weight: normal; font-size: 14px; line-height: 19px;&quot;&gt;&lt;div&gt;&lt;span style=&quot;color: #c8c8c8;&quot;&gt;i&lt;/span&gt;&lt;span style=&quot;color: #d4d4d4;&quot;&gt; &amp;gt;= &lt;/span&gt;&lt;span style=&quot;color: #c8c8c8;&quot;&gt;add_index&lt;/span&gt;&lt;/div&gt;&lt;/div&gt;&#xa;&#xa;" style="rhombus;whiteSpace=wrap;html=1;" vertex="1" parent="1">
          <mxGeometry x="1358" y="1350" width="152" height="90" as="geometry" />
        </mxCell>
        <mxCell id="OZqDNf4CaY5WHfxMBCso-103" value="" style="edgeStyle=orthogonalEdgeStyle;rounded=0;orthogonalLoop=1;jettySize=auto;html=1;" edge="1" parent="1" source="OZqDNf4CaY5WHfxMBCso-104" target="OZqDNf4CaY5WHfxMBCso-106">
          <mxGeometry relative="1" as="geometry" />
        </mxCell>
        <mxCell id="OZqDNf4CaY5WHfxMBCso-104" value="&#xa;&lt;div style=&quot;color: rgb(212, 212, 212); background-color: rgb(30, 30, 30); font-family: Consolas, &amp;quot;Courier New&amp;quot;, monospace; font-weight: normal; font-size: 14px; line-height: 19px;&quot;&gt;&lt;div&gt;&lt;span style=&quot;color: #c8c8c8;&quot;&gt;a&lt;/span&gt;&lt;span style=&quot;color: #d4d4d4;&quot;&gt;[&lt;/span&gt;&lt;span style=&quot;color: #c8c8c8;&quot;&gt;i&lt;/span&gt;&lt;span style=&quot;color: #d4d4d4;&quot;&gt;] = &lt;/span&gt;&lt;span style=&quot;color: #c8c8c8;&quot;&gt;a&lt;/span&gt;&lt;span style=&quot;color: #d4d4d4;&quot;&gt;[&lt;/span&gt;&lt;span style=&quot;color: #c8c8c8;&quot;&gt;i&lt;/span&gt;&lt;span style=&quot;color: #d4d4d4;&quot;&gt; - &lt;/span&gt;&lt;span style=&quot;color: #b5cea8;&quot;&gt;1&lt;/span&gt;&lt;span style=&quot;color: #d4d4d4;&quot;&gt;];&lt;/span&gt;&lt;/div&gt;&lt;/div&gt;&#xa;&#xa;" style="whiteSpace=wrap;html=1;" vertex="1" parent="1">
          <mxGeometry x="1606" y="1365" width="154" height="65" as="geometry" />
        </mxCell>
        <mxCell id="OZqDNf4CaY5WHfxMBCso-105" value="" style="edgeStyle=orthogonalEdgeStyle;rounded=0;orthogonalLoop=1;jettySize=auto;html=1;" edge="1" parent="1" source="OZqDNf4CaY5WHfxMBCso-106" target="OZqDNf4CaY5WHfxMBCso-110">
          <mxGeometry relative="1" as="geometry">
            <mxPoint x="2050" y="1404" as="targetPoint" />
          </mxGeometry>
        </mxCell>
        <mxCell id="OZqDNf4CaY5WHfxMBCso-106" value="&#xa;&lt;div style=&quot;color: rgb(212, 212, 212); background-color: rgb(30, 30, 30); font-family: Consolas, &amp;quot;Courier New&amp;quot;, monospace; font-weight: normal; font-size: 14px; line-height: 19px;&quot;&gt;&lt;div&gt;&lt;span style=&quot;color: #c8c8c8;&quot;&gt;i&lt;/span&gt;&lt;span style=&quot;color: #d4d4d4;&quot;&gt; == &lt;/span&gt;&lt;span style=&quot;color: #c8c8c8;&quot;&gt;add_index&lt;/span&gt;&lt;/div&gt;&lt;/div&gt;&#xa;&#xa;" style="rhombus;whiteSpace=wrap;html=1;" vertex="1" parent="1">
          <mxGeometry x="1877" y="1357.5" width="113" height="92.5" as="geometry" />
        </mxCell>
        <mxCell id="OZqDNf4CaY5WHfxMBCso-107" style="edgeStyle=orthogonalEdgeStyle;rounded=0;orthogonalLoop=1;jettySize=auto;html=1;" edge="1" parent="1" source="OZqDNf4CaY5WHfxMBCso-108">
          <mxGeometry relative="1" as="geometry">
            <mxPoint x="1310" y="1400" as="targetPoint" />
            <Array as="points">
              <mxPoint x="2360" y="1280" />
              <mxPoint x="1310" y="1280" />
            </Array>
          </mxGeometry>
        </mxCell>
        <mxCell id="OZqDNf4CaY5WHfxMBCso-108" value="i--" style="whiteSpace=wrap;html=1;" vertex="1" parent="1">
          <mxGeometry x="2290" y="1370" width="120" height="60" as="geometry" />
        </mxCell>
        <mxCell id="OZqDNf4CaY5WHfxMBCso-109" style="edgeStyle=orthogonalEdgeStyle;rounded=0;orthogonalLoop=1;jettySize=auto;html=1;entryX=0;entryY=0.5;entryDx=0;entryDy=0;" edge="1" parent="1" source="OZqDNf4CaY5WHfxMBCso-110" target="OZqDNf4CaY5WHfxMBCso-108">
          <mxGeometry relative="1" as="geometry" />
        </mxCell>
        <mxCell id="OZqDNf4CaY5WHfxMBCso-110" value="&#xa;&lt;div style=&quot;color: rgb(212, 212, 212); background-color: rgb(30, 30, 30); font-family: Consolas, &amp;quot;Courier New&amp;quot;, monospace; font-weight: normal; font-size: 14px; line-height: 19px;&quot;&gt;&lt;div&gt;&lt;span style=&quot;color: #d4d4d4;&quot;&gt;&amp;nbsp;&lt;/span&gt;&lt;span style=&quot;color: #c8c8c8;&quot;&gt;a&lt;/span&gt;&lt;span style=&quot;color: #d4d4d4;&quot;&gt;[&lt;/span&gt;&lt;span style=&quot;color: #c8c8c8;&quot;&gt;i&lt;/span&gt;&lt;span style=&quot;color: #d4d4d4;&quot;&gt;] = &lt;/span&gt;&lt;span style=&quot;color: #c8c8c8;&quot;&gt;add_value&lt;/span&gt;&lt;span style=&quot;color: #d4d4d4;&quot;&gt;;&lt;/span&gt;&lt;/div&gt;&lt;/div&gt;&#xa;&#xa;" style="rounded=1;whiteSpace=wrap;html=1;" vertex="1" parent="1">
          <mxGeometry x="2066.9999999999995" y="1373.75" width="120" height="60" as="geometry" />
        </mxCell>
        <mxCell id="OZqDNf4CaY5WHfxMBCso-111" style="edgeStyle=orthogonalEdgeStyle;rounded=0;orthogonalLoop=1;jettySize=auto;html=1;" edge="1" parent="1" source="OZqDNf4CaY5WHfxMBCso-112">
          <mxGeometry relative="1" as="geometry">
            <mxPoint x="1670" y="820" as="targetPoint" />
            <Array as="points">
              <mxPoint x="2791" y="1568" />
              <mxPoint x="2791" y="820" />
            </Array>
          </mxGeometry>
        </mxCell>
        <mxCell id="OZqDNf4CaY5WHfxMBCso-112" value="&#xa;&lt;div style=&quot;color: rgb(212, 212, 212); background-color: rgb(30, 30, 30); font-family: Consolas, &amp;quot;Courier New&amp;quot;, monospace; font-weight: normal; font-size: 14px; line-height: 19px;&quot;&gt;&lt;div&gt;&lt;span style=&quot;color: #d4d4d4;&quot;&gt;&amp;nbsp; &lt;/span&gt;&lt;span style=&quot;color: #c8c8c8;&quot;&gt;countArrange&lt;/span&gt;&lt;span style=&quot;color: #d4d4d4;&quot;&gt; = &lt;/span&gt;&lt;span style=&quot;color: #b5cea8;&quot;&gt;0&lt;/span&gt;&lt;span style=&quot;color: #d4d4d4;&quot;&gt;;&lt;/span&gt;&lt;/div&gt;&lt;/div&gt;&#xa;&#xa;" style="whiteSpace=wrap;html=1;" vertex="1" parent="1">
          <mxGeometry x="1374" y="1535" width="166" height="65" as="geometry" />
        </mxCell>
        <mxCell id="OZqDNf4CaY5WHfxMBCso-113" style="edgeStyle=orthogonalEdgeStyle;rounded=0;orthogonalLoop=1;jettySize=auto;html=1;entryX=0;entryY=0.5;entryDx=0;entryDy=0;" edge="1" parent="1" source="OZqDNf4CaY5WHfxMBCso-114" target="OZqDNf4CaY5WHfxMBCso-112">
          <mxGeometry relative="1" as="geometry" />
        </mxCell>
        <mxCell id="OZqDNf4CaY5WHfxMBCso-114" value="&#xa;&lt;div style=&quot;color: rgb(212, 212, 212); background-color: rgb(30, 30, 30); font-family: Consolas, &amp;quot;Courier New&amp;quot;, monospace; font-weight: normal; font-size: 14px; line-height: 19px;&quot;&gt;&lt;div&gt;&lt;span style=&quot;color: #d4d4d4;&quot;&gt;&amp;nbsp; &lt;/span&gt;&lt;span style=&quot;color: #c8c8c8;&quot;&gt;a&lt;/span&gt;&lt;span style=&quot;color: #d4d4d4;&quot;&gt;[&lt;/span&gt;&lt;span style=&quot;color: #c8c8c8;&quot;&gt;add_index&lt;/span&gt;&lt;span style=&quot;color: #d4d4d4;&quot;&gt;] = &lt;/span&gt;&lt;span style=&quot;color: #c8c8c8;&quot;&gt;add_value&lt;/span&gt;&lt;span style=&quot;color: #d4d4d4;&quot;&gt;;&lt;/span&gt;&lt;/div&gt;&lt;/div&gt;&#xa;&#xa;" style="whiteSpace=wrap;html=1;" vertex="1" parent="1">
          <mxGeometry x="872" y="1560" width="120" height="60" as="geometry" />
        </mxCell>
        <mxCell id="OZqDNf4CaY5WHfxMBCso-115" value="" style="edgeStyle=orthogonalEdgeStyle;rounded=0;orthogonalLoop=1;jettySize=auto;html=1;" edge="1" parent="1" source="OZqDNf4CaY5WHfxMBCso-116" target="OZqDNf4CaY5WHfxMBCso-117">
          <mxGeometry relative="1" as="geometry" />
        </mxCell>
        <mxCell id="OZqDNf4CaY5WHfxMBCso-116" value="&lt;br&gt;&lt;div style=&quot;color: rgb(212, 212, 212); background-color: rgb(30, 30, 30); font-family: Consolas, &amp;quot;Courier New&amp;quot;, monospace; font-weight: normal; font-size: 14px; line-height: 19px;&quot;&gt;&lt;div&gt;&lt;span style=&quot;color: #d4d4d4;&quot;&gt;&amp;nbsp; &lt;/span&gt;&lt;span style=&quot;color: #d4d4d4;&quot;&gt;&amp;nbsp;&lt;/span&gt;&lt;span style=&quot;color: #c8c8c8;&quot;&gt;update_index&lt;/span&gt;&lt;span style=&quot;color: #d4d4d4;&quot;&gt;, &lt;/span&gt;&lt;span style=&quot;color: #c8c8c8;&quot;&gt;update_value&lt;/span&gt;&lt;span style=&quot;color: #d4d4d4;&quot;&gt;;&lt;/span&gt;&lt;/div&gt;&lt;/div&gt;&lt;br&gt;" style="shape=parallelogram;perimeter=parallelogramPerimeter;whiteSpace=wrap;html=1;fixedSize=1;" vertex="1" parent="1">
          <mxGeometry x="513" y="1760" width="267" height="80" as="geometry" />
        </mxCell>
        <mxCell id="OZqDNf4CaY5WHfxMBCso-117" value="&#xa;&lt;div style=&quot;color: rgb(212, 212, 212); background-color: rgb(30, 30, 30); font-family: Consolas, &amp;quot;Courier New&amp;quot;, monospace; font-weight: normal; font-size: 14px; line-height: 19px;&quot;&gt;&lt;div&gt;&lt;span style=&quot;color: #c8c8c8;&quot;&gt;a&lt;/span&gt;&lt;span style=&quot;color: #d4d4d4;&quot;&gt;[&lt;/span&gt;&lt;span style=&quot;color: #c8c8c8;&quot;&gt;update_index&lt;/span&gt;&lt;span style=&quot;color: #d4d4d4;&quot;&gt;] = &lt;/span&gt;&lt;span style=&quot;color: #c8c8c8;&quot;&gt;update_value&lt;/span&gt;&lt;span style=&quot;color: #d4d4d4;&quot;&gt;;&lt;/span&gt;&lt;/div&gt;&lt;/div&gt;&#xa;&#xa;" style="whiteSpace=wrap;html=1;" vertex="1" parent="1">
          <mxGeometry x="933.5" y="1770" width="236.5" height="60" as="geometry" />
        </mxCell>
        <mxCell id="OZqDNf4CaY5WHfxMBCso-118" value="" style="edgeStyle=orthogonalEdgeStyle;rounded=0;orthogonalLoop=1;jettySize=auto;html=1;" edge="1" parent="1" source="OZqDNf4CaY5WHfxMBCso-119" target="OZqDNf4CaY5WHfxMBCso-121">
          <mxGeometry relative="1" as="geometry" />
        </mxCell>
        <mxCell id="OZqDNf4CaY5WHfxMBCso-119" value="deleteInxdex" style="shape=parallelogram;perimeter=parallelogramPerimeter;whiteSpace=wrap;html=1;fixedSize=1;" vertex="1" parent="1">
          <mxGeometry x="513" y="2139.9999999999995" width="120" height="60" as="geometry" />
        </mxCell>
        <mxCell id="OZqDNf4CaY5WHfxMBCso-120" value="" style="edgeStyle=orthogonalEdgeStyle;rounded=0;orthogonalLoop=1;jettySize=auto;html=1;" edge="1" parent="1" source="OZqDNf4CaY5WHfxMBCso-121" target="OZqDNf4CaY5WHfxMBCso-124">
          <mxGeometry relative="1" as="geometry" />
        </mxCell>
        <mxCell id="OZqDNf4CaY5WHfxMBCso-121" value="&#xa;&lt;div style=&quot;color: rgb(212, 212, 212); background-color: rgb(30, 30, 30); font-family: Consolas, &amp;quot;Courier New&amp;quot;, monospace; font-weight: normal; font-size: 14px; line-height: 19px;&quot;&gt;&lt;div&gt;&lt;span style=&quot;color: #c8c8c8;&quot;&gt;i&lt;/span&gt;&lt;span style=&quot;color: #d4d4d4;&quot;&gt; = &lt;/span&gt;&lt;span style=&quot;color: #c8c8c8;&quot;&gt;delete_index&lt;/span&gt;&lt;span style=&quot;color: #d4d4d4;&quot;&gt; - &lt;/span&gt;&lt;span style=&quot;color: #b5cea8;&quot;&gt;1&lt;/span&gt;&lt;span style=&quot;color: #d4d4d4;&quot;&gt;;&lt;/span&gt;&lt;/div&gt;&lt;/div&gt;&#xa;&#xa;" style="whiteSpace=wrap;html=1;" vertex="1" parent="1">
          <mxGeometry x="713" y="2140" width="197" height="70" as="geometry" />
        </mxCell>
        <mxCell id="OZqDNf4CaY5WHfxMBCso-122" value="" style="edgeStyle=orthogonalEdgeStyle;rounded=0;orthogonalLoop=1;jettySize=auto;html=1;" edge="1" parent="1" source="OZqDNf4CaY5WHfxMBCso-124" target="OZqDNf4CaY5WHfxMBCso-126">
          <mxGeometry relative="1" as="geometry" />
        </mxCell>
        <mxCell id="OZqDNf4CaY5WHfxMBCso-123" style="edgeStyle=orthogonalEdgeStyle;rounded=0;orthogonalLoop=1;jettySize=auto;html=1;" edge="1" parent="1" source="OZqDNf4CaY5WHfxMBCso-124">
          <mxGeometry relative="1" as="geometry">
            <mxPoint x="2795" y="1470" as="targetPoint" />
            <Array as="points">
              <mxPoint x="1114" y="2400" />
              <mxPoint x="2795" y="2400" />
            </Array>
          </mxGeometry>
        </mxCell>
        <mxCell id="OZqDNf4CaY5WHfxMBCso-124" value="&#xa;&lt;div style=&quot;color: rgb(212, 212, 212); background-color: rgb(30, 30, 30); font-family: Consolas, &amp;quot;Courier New&amp;quot;, monospace; font-weight: normal; font-size: 14px; line-height: 19px;&quot;&gt;&lt;div&gt;&lt;span style=&quot;color: #c8c8c8;&quot;&gt;i&lt;/span&gt;&lt;span style=&quot;color: #d4d4d4;&quot;&gt; &amp;lt; &lt;/span&gt;&lt;span style=&quot;color: #c8c8c8;&quot;&gt;current&lt;/span&gt;&lt;span style=&quot;color: #d4d4d4;&quot;&gt; - &lt;/span&gt;&lt;span style=&quot;color: #b5cea8;&quot;&gt;1&lt;/span&gt;&lt;span style=&quot;color: #d4d4d4;&quot;&gt;;&lt;/span&gt;&lt;/div&gt;&lt;/div&gt;&#xa;&#xa;" style="rhombus;whiteSpace=wrap;html=1;" vertex="1" parent="1">
          <mxGeometry x="1048.5" y="2135" width="131.5" height="105" as="geometry" />
        </mxCell>
        <mxCell id="OZqDNf4CaY5WHfxMBCso-125" style="edgeStyle=orthogonalEdgeStyle;rounded=0;orthogonalLoop=1;jettySize=auto;html=1;" edge="1" parent="1" source="OZqDNf4CaY5WHfxMBCso-126">
          <mxGeometry relative="1" as="geometry">
            <mxPoint x="1010" y="2179" as="targetPoint" />
            <Array as="points">
              <mxPoint x="1353" y="2090" />
              <mxPoint x="1010" y="2090" />
            </Array>
          </mxGeometry>
        </mxCell>
        <mxCell id="OZqDNf4CaY5WHfxMBCso-126" value="&lt;br&gt;&lt;div style=&quot;color: rgb(212, 212, 212); background-color: rgb(30, 30, 30); font-family: Consolas, &amp;quot;Courier New&amp;quot;, monospace; font-weight: normal; font-size: 14px; line-height: 19px;&quot;&gt;&lt;div&gt;&lt;span style=&quot;color: #d4d4d4;&quot;&gt;&amp;nbsp;&lt;/span&gt;&lt;span style=&quot;color: #c8c8c8;&quot;&gt;a&lt;/span&gt;&lt;span style=&quot;color: #d4d4d4;&quot;&gt;[&lt;/span&gt;&lt;span style=&quot;color: #c8c8c8;&quot;&gt;i&lt;/span&gt;&lt;span style=&quot;color: #d4d4d4;&quot;&gt;] = &lt;/span&gt;&lt;span style=&quot;color: #c8c8c8;&quot;&gt;a&lt;/span&gt;&lt;span style=&quot;color: #d4d4d4;&quot;&gt;[&lt;/span&gt;&lt;span style=&quot;color: #c8c8c8;&quot;&gt;i&lt;/span&gt;&lt;span style=&quot;color: #d4d4d4;&quot;&gt; + &lt;/span&gt;&lt;span style=&quot;color: #b5cea8;&quot;&gt;1&lt;/span&gt;&lt;span style=&quot;color: #d4d4d4;&quot;&gt;];&lt;/span&gt;&lt;/div&gt;&lt;/div&gt;i++&lt;br&gt;" style="whiteSpace=wrap;html=1;" vertex="1" parent="1">
          <mxGeometry x="1265.75" y="2157.5" width="174.25" height="42.5" as="geometry" />
        </mxCell>
        <mxCell id="OZqDNf4CaY5WHfxMBCso-127" value="" style="edgeStyle=orthogonalEdgeStyle;rounded=0;orthogonalLoop=1;jettySize=auto;html=1;" edge="1" parent="1" source="OZqDNf4CaY5WHfxMBCso-128" target="OZqDNf4CaY5WHfxMBCso-131">
          <mxGeometry relative="1" as="geometry" />
        </mxCell>
        <mxCell id="OZqDNf4CaY5WHfxMBCso-128" value="choice" style="shape=parallelogram;perimeter=parallelogramPerimeter;whiteSpace=wrap;html=1;fixedSize=1;" vertex="1" parent="1">
          <mxGeometry x="570" y="2812" width="120" height="60" as="geometry" />
        </mxCell>
        <mxCell id="OZqDNf4CaY5WHfxMBCso-129" value="" style="edgeStyle=orthogonalEdgeStyle;rounded=0;orthogonalLoop=1;jettySize=auto;html=1;" edge="1" parent="1" source="OZqDNf4CaY5WHfxMBCso-131" target="OZqDNf4CaY5WHfxMBCso-133">
          <mxGeometry relative="1" as="geometry" />
        </mxCell>
        <mxCell id="OZqDNf4CaY5WHfxMBCso-130" value="" style="edgeStyle=orthogonalEdgeStyle;rounded=0;orthogonalLoop=1;jettySize=auto;html=1;" edge="1" parent="1" source="OZqDNf4CaY5WHfxMBCso-131" target="OZqDNf4CaY5WHfxMBCso-135">
          <mxGeometry relative="1" as="geometry" />
        </mxCell>
        <mxCell id="OZqDNf4CaY5WHfxMBCso-131" value="choice==1" style="rhombus;whiteSpace=wrap;html=1;" vertex="1" parent="1">
          <mxGeometry x="790" y="2802" width="80" height="80" as="geometry" />
        </mxCell>
        <mxCell id="OZqDNf4CaY5WHfxMBCso-132" value="" style="edgeStyle=orthogonalEdgeStyle;rounded=0;orthogonalLoop=1;jettySize=auto;html=1;" edge="1" parent="1" source="OZqDNf4CaY5WHfxMBCso-133" target="OZqDNf4CaY5WHfxMBCso-137">
          <mxGeometry relative="1" as="geometry" />
        </mxCell>
        <mxCell id="OZqDNf4CaY5WHfxMBCso-133" value="choice==2" style="rhombus;whiteSpace=wrap;html=1;" vertex="1" parent="1">
          <mxGeometry x="790" y="2962" width="80" height="80" as="geometry" />
        </mxCell>
        <mxCell id="OZqDNf4CaY5WHfxMBCso-134" style="edgeStyle=orthogonalEdgeStyle;rounded=0;orthogonalLoop=1;jettySize=auto;html=1;" edge="1" parent="1" source="OZqDNf4CaY5WHfxMBCso-141">
          <mxGeometry relative="1" as="geometry">
            <mxPoint x="2790" y="2386.6666666666665" as="targetPoint" />
          </mxGeometry>
        </mxCell>
        <mxCell id="OZqDNf4CaY5WHfxMBCso-135" value="increase(a,current)" style="whiteSpace=wrap;html=1;" vertex="1" parent="1">
          <mxGeometry x="930" y="2812" width="120" height="60" as="geometry" />
        </mxCell>
        <mxCell id="OZqDNf4CaY5WHfxMBCso-136" style="edgeStyle=orthogonalEdgeStyle;rounded=0;orthogonalLoop=1;jettySize=auto;html=1;exitX=1;exitY=0.5;exitDx=0;exitDy=0;" edge="1" parent="1" source="OZqDNf4CaY5WHfxMBCso-137">
          <mxGeometry relative="1" as="geometry">
            <mxPoint x="1338" y="2882" as="targetPoint" />
            <mxPoint x="1138" y="3044" as="sourcePoint" />
          </mxGeometry>
        </mxCell>
        <mxCell id="OZqDNf4CaY5WHfxMBCso-137" value="decrease(a,current)" style="whiteSpace=wrap;html=1;" vertex="1" parent="1">
          <mxGeometry x="930" y="2972" width="120" height="60" as="geometry" />
        </mxCell>
        <mxCell id="OZqDNf4CaY5WHfxMBCso-138" value="" style="edgeStyle=orthogonalEdgeStyle;rounded=0;orthogonalLoop=1;jettySize=auto;html=1;" edge="1" parent="1" source="OZqDNf4CaY5WHfxMBCso-139" target="OZqDNf4CaY5WHfxMBCso-143">
          <mxGeometry relative="1" as="geometry" />
        </mxCell>
        <mxCell id="OZqDNf4CaY5WHfxMBCso-139" value="choice==7" style="rhombus;whiteSpace=wrap;html=1;" vertex="1" parent="1">
          <mxGeometry x="374" y="3259.9999999999995" width="80" height="80" as="geometry" />
        </mxCell>
        <mxCell id="OZqDNf4CaY5WHfxMBCso-140" value="" style="edgeStyle=orthogonalEdgeStyle;rounded=0;orthogonalLoop=1;jettySize=auto;html=1;" edge="1" parent="1" source="OZqDNf4CaY5WHfxMBCso-135" target="OZqDNf4CaY5WHfxMBCso-141">
          <mxGeometry relative="1" as="geometry">
            <mxPoint x="2790" y="2386.6666666666665" as="targetPoint" />
            <mxPoint x="1050" y="2842" as="sourcePoint" />
          </mxGeometry>
        </mxCell>
        <mxCell id="OZqDNf4CaY5WHfxMBCso-141" value="&#xa;&lt;div style=&quot;color: rgb(212, 212, 212); background-color: rgb(30, 30, 30); font-family: Consolas, &amp;quot;Courier New&amp;quot;, monospace; font-weight: normal; font-size: 14px; line-height: 19px;&quot;&gt;&lt;div&gt;&lt;span style=&quot;color: #d4d4d4;&quot;&gt;&amp;nbsp;&lt;/span&gt;&lt;span style=&quot;color: #c8c8c8;&quot;&gt;countArrange&lt;/span&gt;&lt;span style=&quot;color: #d4d4d4;&quot;&gt; = &lt;/span&gt;&lt;span style=&quot;color: #b5cea8;&quot;&gt;1&lt;/span&gt;&lt;span style=&quot;color: #d4d4d4;&quot;&gt;;&lt;/span&gt;&lt;/div&gt;&lt;/div&gt;&#xa;&#xa;" style="rounded=1;whiteSpace=wrap;html=1;" vertex="1" parent="1">
          <mxGeometry x="1292.88" y="2822" width="120" height="60" as="geometry" />
        </mxCell>
        <mxCell id="OZqDNf4CaY5WHfxMBCso-142" value="" style="edgeStyle=orthogonalEdgeStyle;rounded=0;orthogonalLoop=1;jettySize=auto;html=1;" edge="1" parent="1" source="OZqDNf4CaY5WHfxMBCso-143" target="OZqDNf4CaY5WHfxMBCso-146">
          <mxGeometry relative="1" as="geometry" />
        </mxCell>
        <mxCell id="OZqDNf4CaY5WHfxMBCso-143" value="fiindValue" style="shape=parallelogram;perimeter=parallelogramPerimeter;whiteSpace=wrap;html=1;fixedSize=1;" vertex="1" parent="1">
          <mxGeometry x="570" y="3269.9999999999995" width="120" height="60" as="geometry" />
        </mxCell>
        <mxCell id="OZqDNf4CaY5WHfxMBCso-144" value="" style="edgeStyle=orthogonalEdgeStyle;rounded=0;orthogonalLoop=1;jettySize=auto;html=1;" edge="1" parent="1" source="OZqDNf4CaY5WHfxMBCso-146" target="OZqDNf4CaY5WHfxMBCso-148">
          <mxGeometry relative="1" as="geometry" />
        </mxCell>
        <mxCell id="OZqDNf4CaY5WHfxMBCso-145" value="" style="edgeStyle=orthogonalEdgeStyle;rounded=0;orthogonalLoop=1;jettySize=auto;html=1;" edge="1" parent="1" source="OZqDNf4CaY5WHfxMBCso-146" target="OZqDNf4CaY5WHfxMBCso-161">
          <mxGeometry relative="1" as="geometry" />
        </mxCell>
        <mxCell id="OZqDNf4CaY5WHfxMBCso-146" value="&lt;div style=&quot;color: rgb(212, 212, 212); background-color: rgb(30, 30, 30); font-family: Consolas, &amp;quot;Courier New&amp;quot;, monospace; font-size: 14px; line-height: 19px;&quot;&gt;countArrange == &lt;span style=&quot;color: #b5cea8;&quot;&gt;0&lt;/span&gt;&lt;/div&gt;" style="rhombus;whiteSpace=wrap;html=1;" vertex="1" parent="1">
          <mxGeometry x="790" y="3260" width="150" height="100" as="geometry" />
        </mxCell>
        <mxCell id="OZqDNf4CaY5WHfxMBCso-147" value="" style="edgeStyle=orthogonalEdgeStyle;rounded=0;orthogonalLoop=1;jettySize=auto;html=1;" edge="1" parent="1" source="OZqDNf4CaY5WHfxMBCso-148" target="OZqDNf4CaY5WHfxMBCso-150">
          <mxGeometry relative="1" as="geometry" />
        </mxCell>
        <mxCell id="OZqDNf4CaY5WHfxMBCso-148" value="i=0" style="whiteSpace=wrap;html=1;" vertex="1" parent="1">
          <mxGeometry x="1035" y="3280" width="120" height="60" as="geometry" />
        </mxCell>
        <mxCell id="OZqDNf4CaY5WHfxMBCso-149" value="" style="edgeStyle=orthogonalEdgeStyle;rounded=0;orthogonalLoop=1;jettySize=auto;html=1;" edge="1" parent="1" source="OZqDNf4CaY5WHfxMBCso-150" target="OZqDNf4CaY5WHfxMBCso-154">
          <mxGeometry relative="1" as="geometry" />
        </mxCell>
        <mxCell id="OZqDNf4CaY5WHfxMBCso-150" value="i&amp;lt;current" style="rhombus;whiteSpace=wrap;html=1;" vertex="1" parent="1">
          <mxGeometry x="1255" y="3270" width="80" height="80" as="geometry" />
        </mxCell>
        <mxCell id="OZqDNf4CaY5WHfxMBCso-151" style="edgeStyle=orthogonalEdgeStyle;rounded=0;orthogonalLoop=1;jettySize=auto;html=1;entryX=0;entryY=0.5;entryDx=0;entryDy=0;" edge="1" parent="1" source="OZqDNf4CaY5WHfxMBCso-154" target="OZqDNf4CaY5WHfxMBCso-156">
          <mxGeometry relative="1" as="geometry" />
        </mxCell>
        <mxCell id="OZqDNf4CaY5WHfxMBCso-152" value="true" style="edgeLabel;html=1;align=center;verticalAlign=middle;resizable=0;points=[];" vertex="1" connectable="0" parent="OZqDNf4CaY5WHfxMBCso-151">
          <mxGeometry x="0.0252" y="3" relative="1" as="geometry">
            <mxPoint as="offset" />
          </mxGeometry>
        </mxCell>
        <mxCell id="OZqDNf4CaY5WHfxMBCso-153" style="edgeStyle=orthogonalEdgeStyle;rounded=0;orthogonalLoop=1;jettySize=auto;html=1;entryX=0;entryY=0;entryDx=0;entryDy=0;" edge="1" parent="1" source="OZqDNf4CaY5WHfxMBCso-159" target="OZqDNf4CaY5WHfxMBCso-150">
          <mxGeometry relative="1" as="geometry">
            <mxPoint x="1200" y="3300" as="targetPoint" />
            <Array as="points">
              <mxPoint x="1275" y="3150" />
            </Array>
          </mxGeometry>
        </mxCell>
        <mxCell id="OZqDNf4CaY5WHfxMBCso-154" value="a[i]==find_value" style="rhombus;whiteSpace=wrap;html=1;" vertex="1" parent="1">
          <mxGeometry x="1440" y="3260" width="145" height="100" as="geometry" />
        </mxCell>
        <mxCell id="OZqDNf4CaY5WHfxMBCso-155" style="edgeStyle=orthogonalEdgeStyle;rounded=0;orthogonalLoop=1;jettySize=auto;html=1;" edge="1" parent="1" source="OZqDNf4CaY5WHfxMBCso-156">
          <mxGeometry relative="1" as="geometry">
            <mxPoint x="2795" y="2800" as="targetPoint" />
          </mxGeometry>
        </mxCell>
        <mxCell id="OZqDNf4CaY5WHfxMBCso-156" value="i" style="shape=parallelogram;perimeter=parallelogramPerimeter;whiteSpace=wrap;html=1;fixedSize=1;" vertex="1" parent="1">
          <mxGeometry x="1800" y="3280" width="120" height="60" as="geometry" />
        </mxCell>
        <mxCell id="OZqDNf4CaY5WHfxMBCso-157" value="" style="edgeStyle=orthogonalEdgeStyle;rounded=0;orthogonalLoop=1;jettySize=auto;html=1;entryX=0;entryY=0;entryDx=0;entryDy=0;" edge="1" parent="1" source="OZqDNf4CaY5WHfxMBCso-154" target="OZqDNf4CaY5WHfxMBCso-159">
          <mxGeometry relative="1" as="geometry">
            <mxPoint x="1275" y="3290" as="targetPoint" />
            <mxPoint x="1540" y="3279" as="sourcePoint" />
            <Array as="points">
              <mxPoint x="1540" y="3150" />
            </Array>
          </mxGeometry>
        </mxCell>
        <mxCell id="OZqDNf4CaY5WHfxMBCso-158" value="false" style="edgeLabel;html=1;align=center;verticalAlign=middle;resizable=0;points=[];" vertex="1" connectable="0" parent="OZqDNf4CaY5WHfxMBCso-157">
          <mxGeometry x="-0.5773" y="3" relative="1" as="geometry">
            <mxPoint y="-1" as="offset" />
          </mxGeometry>
        </mxCell>
        <mxCell id="OZqDNf4CaY5WHfxMBCso-159" value="i++" style="rounded=1;whiteSpace=wrap;html=1;" vertex="1" parent="1">
          <mxGeometry x="1410" y="3130" width="120" height="60" as="geometry" />
        </mxCell>
        <mxCell id="OZqDNf4CaY5WHfxMBCso-160" value="" style="edgeStyle=orthogonalEdgeStyle;rounded=0;orthogonalLoop=1;jettySize=auto;html=1;" edge="1" parent="1" source="OZqDNf4CaY5WHfxMBCso-166" target="OZqDNf4CaY5WHfxMBCso-164">
          <mxGeometry relative="1" as="geometry" />
        </mxCell>
        <mxCell id="OZqDNf4CaY5WHfxMBCso-161" value="&#xa;&lt;div style=&quot;color: rgb(212, 212, 212); background-color: rgb(30, 30, 30); font-family: Consolas, &amp;quot;Courier New&amp;quot;, monospace; font-weight: normal; font-size: 14px; line-height: 19px;&quot;&gt;&lt;div&gt;&lt;span style=&quot;color: #c8c8c8;&quot;&gt;start&lt;/span&gt;&lt;span style=&quot;color: #d4d4d4;&quot;&gt; = &lt;/span&gt;&lt;span style=&quot;color: #b5cea8;&quot;&gt;0&lt;/span&gt;&lt;span style=&quot;color: #d4d4d4;&quot;&gt;, &lt;/span&gt;&lt;span style=&quot;color: #c8c8c8;&quot;&gt;end&lt;/span&gt;&lt;span style=&quot;color: #d4d4d4;&quot;&gt; = &lt;/span&gt;&lt;span style=&quot;color: #c8c8c8;&quot;&gt;current&lt;/span&gt;&lt;span style=&quot;color: #d4d4d4;&quot;&gt;, &lt;/span&gt;&lt;span style=&quot;color: #c8c8c8;&quot;&gt;check&lt;/span&gt;&lt;span style=&quot;color: #d4d4d4;&quot;&gt;;&lt;/span&gt;&lt;/div&gt;&lt;/div&gt;&#xa;&#xa;" style="whiteSpace=wrap;html=1;" vertex="1" parent="1">
          <mxGeometry x="805" y="3460" width="275" height="190" as="geometry" />
        </mxCell>
        <mxCell id="OZqDNf4CaY5WHfxMBCso-162" value="" style="edgeStyle=orthogonalEdgeStyle;rounded=0;orthogonalLoop=1;jettySize=auto;html=1;" edge="1" parent="1" source="OZqDNf4CaY5WHfxMBCso-164" target="OZqDNf4CaY5WHfxMBCso-168">
          <mxGeometry relative="1" as="geometry" />
        </mxCell>
        <mxCell id="OZqDNf4CaY5WHfxMBCso-163" value="" style="edgeStyle=orthogonalEdgeStyle;rounded=0;orthogonalLoop=1;jettySize=auto;html=1;" edge="1" parent="1" source="OZqDNf4CaY5WHfxMBCso-164" target="OZqDNf4CaY5WHfxMBCso-171">
          <mxGeometry relative="1" as="geometry" />
        </mxCell>
        <mxCell id="OZqDNf4CaY5WHfxMBCso-164" value="a[check]==findValue" style="rhombus;whiteSpace=wrap;html=1;" vertex="1" parent="1">
          <mxGeometry x="860" y="3940" width="157.5" height="130" as="geometry" />
        </mxCell>
        <mxCell id="OZqDNf4CaY5WHfxMBCso-165" value="" style="edgeStyle=orthogonalEdgeStyle;rounded=0;orthogonalLoop=1;jettySize=auto;html=1;" edge="1" parent="1" source="OZqDNf4CaY5WHfxMBCso-161" target="OZqDNf4CaY5WHfxMBCso-166">
          <mxGeometry relative="1" as="geometry">
            <mxPoint x="943" y="3650" as="sourcePoint" />
            <mxPoint x="939" y="3940" as="targetPoint" />
          </mxGeometry>
        </mxCell>
        <mxCell id="OZqDNf4CaY5WHfxMBCso-166" value="&#xa;&lt;div style=&quot;color: rgb(212, 212, 212); background-color: rgb(30, 30, 30); font-family: Consolas, &amp;quot;Courier New&amp;quot;, monospace; font-weight: normal; font-size: 14px; line-height: 19px;&quot;&gt;&lt;div&gt;&lt;span style=&quot;color: #d4d4d4;&quot;&gt;&amp;nbsp;&lt;/span&gt;&lt;span style=&quot;color: #c8c8c8;&quot;&gt;check&lt;/span&gt;&lt;span style=&quot;color: #d4d4d4;&quot;&gt; = (&lt;/span&gt;&lt;span style=&quot;color: #c8c8c8;&quot;&gt;start&lt;/span&gt;&lt;span style=&quot;color: #d4d4d4;&quot;&gt; + &lt;/span&gt;&lt;span style=&quot;color: #c8c8c8;&quot;&gt;end&lt;/span&gt;&lt;span style=&quot;color: #d4d4d4;&quot;&gt; / &lt;/span&gt;&lt;span style=&quot;color: #b5cea8;&quot;&gt;2&lt;/span&gt;&lt;span style=&quot;color: #d4d4d4;&quot;&gt;);&lt;/span&gt;&lt;/div&gt;&lt;/div&gt;&#xa;&#xa;" style="rounded=1;whiteSpace=wrap;html=1;" vertex="1" parent="1">
          <mxGeometry x="880" y="3730" width="120" height="60" as="geometry" />
        </mxCell>
        <mxCell id="OZqDNf4CaY5WHfxMBCso-167" style="edgeStyle=orthogonalEdgeStyle;rounded=0;orthogonalLoop=1;jettySize=auto;html=1;" edge="1" parent="1" source="OZqDNf4CaY5WHfxMBCso-168">
          <mxGeometry relative="1" as="geometry">
            <mxPoint x="2790" y="2798" as="targetPoint" />
          </mxGeometry>
        </mxCell>
        <mxCell id="OZqDNf4CaY5WHfxMBCso-168" value="a[check]" style="shape=parallelogram;perimeter=parallelogramPerimeter;whiteSpace=wrap;html=1;fixedSize=1;" vertex="1" parent="1">
          <mxGeometry x="1440" y="3972.5" width="120" height="65" as="geometry" />
        </mxCell>
        <mxCell id="OZqDNf4CaY5WHfxMBCso-169" style="edgeStyle=orthogonalEdgeStyle;rounded=0;orthogonalLoop=1;jettySize=auto;html=1;entryX=1;entryY=0.5;entryDx=0;entryDy=0;" edge="1" parent="1" source="OZqDNf4CaY5WHfxMBCso-171" target="OZqDNf4CaY5WHfxMBCso-173">
          <mxGeometry relative="1" as="geometry" />
        </mxCell>
        <mxCell id="OZqDNf4CaY5WHfxMBCso-170" value="" style="edgeStyle=orthogonalEdgeStyle;rounded=0;orthogonalLoop=1;jettySize=auto;html=1;entryX=0.5;entryY=0;entryDx=0;entryDy=0;" edge="1" parent="1" source="OZqDNf4CaY5WHfxMBCso-171" target="OZqDNf4CaY5WHfxMBCso-175">
          <mxGeometry relative="1" as="geometry">
            <mxPoint x="938.75" y="4480" as="targetPoint" />
          </mxGeometry>
        </mxCell>
        <mxCell id="OZqDNf4CaY5WHfxMBCso-171" value="&lt;div style=&quot;color: rgb(212, 212, 212); background-color: rgb(30, 30, 30); font-family: Consolas, &amp;quot;Courier New&amp;quot;, monospace; font-size: 14px; line-height: 19px;&quot;&gt;a[&lt;span style=&quot;color: #c8c8c8;&quot;&gt;check&lt;/span&gt;] &amp;gt; &lt;span style=&quot;color: #c8c8c8;&quot;&gt;find_value&lt;/span&gt;&lt;/div&gt;" style="rhombus;whiteSpace=wrap;html=1;" vertex="1" parent="1">
          <mxGeometry x="818.75" y="4210" width="240" height="190" as="geometry" />
        </mxCell>
        <mxCell id="OZqDNf4CaY5WHfxMBCso-172" style="edgeStyle=orthogonalEdgeStyle;rounded=0;orthogonalLoop=1;jettySize=auto;html=1;" edge="1" parent="1" source="OZqDNf4CaY5WHfxMBCso-173">
          <mxGeometry relative="1" as="geometry">
            <mxPoint x="940" y="3690" as="targetPoint" />
            <Array as="points">
              <mxPoint x="508" y="3680" />
              <mxPoint x="940" y="3680" />
            </Array>
          </mxGeometry>
        </mxCell>
        <mxCell id="OZqDNf4CaY5WHfxMBCso-173" value="&#xa;&lt;div style=&quot;color: rgb(212, 212, 212); background-color: rgb(30, 30, 30); font-family: Consolas, &amp;quot;Courier New&amp;quot;, monospace; font-weight: normal; font-size: 14px; line-height: 19px;&quot;&gt;&lt;div&gt;&lt;span style=&quot;color: #d4d4d4;&quot;&gt;&amp;nbsp;&lt;/span&gt;&lt;span style=&quot;color: #c8c8c8;&quot;&gt;end&lt;/span&gt;&lt;span style=&quot;color: #d4d4d4;&quot;&gt; = &lt;/span&gt;&lt;span style=&quot;color: #c8c8c8;&quot;&gt;check&lt;/span&gt;&lt;span style=&quot;color: #d4d4d4;&quot;&gt; - &lt;/span&gt;&lt;span style=&quot;color: #b5cea8;&quot;&gt;1&lt;/span&gt;&lt;span style=&quot;color: #d4d4d4;&quot;&gt;;&lt;/span&gt;&lt;/div&gt;&lt;/div&gt;&#xa;&#xa;" style="rounded=1;whiteSpace=wrap;html=1;" vertex="1" parent="1">
          <mxGeometry x="383" y="4240" width="250" height="120" as="geometry" />
        </mxCell>
        <mxCell id="OZqDNf4CaY5WHfxMBCso-174" style="edgeStyle=orthogonalEdgeStyle;rounded=0;orthogonalLoop=1;jettySize=auto;html=1;" edge="1" parent="1" source="OZqDNf4CaY5WHfxMBCso-175">
          <mxGeometry relative="1" as="geometry">
            <mxPoint x="510" y="3700" as="targetPoint" />
            <Array as="points">
              <mxPoint x="181" y="4635" />
              <mxPoint x="181" y="3700" />
            </Array>
          </mxGeometry>
        </mxCell>
        <mxCell id="OZqDNf4CaY5WHfxMBCso-175" value="&#xa;&lt;div style=&quot;color: rgb(212, 212, 212); background-color: rgb(30, 30, 30); font-family: Consolas, &amp;quot;Courier New&amp;quot;, monospace; font-weight: normal; font-size: 14px; line-height: 19px;&quot;&gt;&lt;div&gt;&lt;span style=&quot;color: #d4d4d4;&quot;&gt;&amp;nbsp;&lt;/span&gt;&lt;span style=&quot;color: #c8c8c8;&quot;&gt;start&lt;/span&gt;&lt;span style=&quot;color: #d4d4d4;&quot;&gt; = &lt;/span&gt;&lt;span style=&quot;color: #c8c8c8;&quot;&gt;check&lt;/span&gt;&lt;span style=&quot;color: #d4d4d4;&quot;&gt; + &lt;/span&gt;&lt;span style=&quot;color: #b5cea8;&quot;&gt;1&lt;/span&gt;&lt;span style=&quot;color: #d4d4d4;&quot;&gt;;&lt;/span&gt;&lt;/div&gt;&lt;/div&gt;&#xa;&#xa;" style="rounded=1;whiteSpace=wrap;html=1;" vertex="1" parent="1">
          <mxGeometry x="720" y="4580" width="190" height="110" as="geometry" />
        </mxCell>
        <mxCell id="tlXu48ate4W_hBsDZjgZ-2" value="int n, i, count, choice, a[100], current = 0, countArrange = 0;" style="shape=parallelogram;perimeter=parallelogramPerimeter;whiteSpace=wrap;html=1;fixedSize=1;" vertex="1" parent="1">
          <mxGeometry x="290.5" y="240" width="247" height="160" as="geometry" />
        </mxCell>
      </root>
    </mxGraphModel>
  </diagram>
</mxfile>
